<?xml version="1.0" encoding="utf-8"?>
<!-- Generator: Adobe Illustrator 16.0.0, SVG Export Plug-In . SVG Version: 6.00 Build 0)  -->
<!DOCTYPE svg PUBLIC "-//W3C//DTD SVG 1.1//EN" "http://www.w3.org/Graphics/SVG/1.1/DTD/svg11.dtd">
<svg version="1.1" id="圖層_1" xmlns="http://www.w3.org/2000/svg" xmlns:xlink="http://www.w3.org/1999/xlink" x="0px" y="0px"
	 width="366.703px" height="60.525px" viewBox="0 0 366.703 60.525" enable-background="new 0 0 366.703 60.525"
	 xml:space="preserve">
<g>
	<linearGradient id="SVGID_1_" gradientUnits="userSpaceOnUse" x1="312.3579" y1="27.333" x2="312.3579" y2="60.5259">
		<stop  offset="0" style="stop-color:#EBF1F2"/>
		<stop  offset="1" style="stop-color:#C9E4F0"/>
	</linearGradient>
	<path fill="url(#SVGID_1_)" d="M345.951,40.538c-2.501,0-4.898,0.461-7.115,1.272c-4.255-8.565-13.068-14.478-23.274-14.478
		c-11.3,0-20.878,7.218-24.471,17.278c-3.443-2.551-7.703-4.073-12.323-4.073c-11.219,0-20.331,8.88-20.756,19.987h108.69
		C366.28,49.418,357.166,40.538,345.951,40.538z"/>
	<linearGradient id="SVGID_2_" gradientUnits="userSpaceOnUse" x1="76.0708" y1="0" x2="76.0708" y2="46.4683">
		<stop  offset="0" style="stop-color:#EBF1F2"/>
		<stop  offset="1" style="stop-color:#C9E4F0"/>
	</linearGradient>
	<path fill="url(#SVGID_2_)" d="M123.094,18.485c-3.501,0-6.854,0.647-9.96,1.784C107.183,8.275,94.84,0,80.557,0
		C64.739,0,51.329,10.104,46.303,24.188c-4.825-3.567-10.782-5.703-17.252-5.703C13.348,18.485,0.592,30.917,0,46.468h152.142
		C151.552,30.917,138.792,18.485,123.094,18.485z"/>
</g>
</svg>
