<svg width="104" height="200" viewBox="0 0 104 200" fill="none" xmlns="http://www.w3.org/2000/svg">
<mask id="mask0_230_1405" style="mask-type:luminance" maskUnits="userSpaceOnUse" x="0" y="0" width="104" height="200">
<path d="M103.133 0.086731L103.133 200L0.16168 200L0.161689 0.0867265L103.133 0.086731Z" fill="white"/>
</mask>
<g mask="url(#mask0_230_1405)">
<path d="M51.6441 185.481C62.0689 185.481 70.5224 191.982 70.5224 200.004L73.9211 200.004C73.9211 198.452 75.5572 197.194 77.5755 197.194C79.5921 197.194 81.2283 198.452 81.2283 200.004L82.9924 200.004C82.9924 198.452 84.6286 197.194 86.6452 197.194C88.6635 197.194 90.298 198.452 90.298 200.004L91.9359 200.004C91.9359 198.452 93.5721 197.194 95.5887 197.194C97.607 197.194 99.2431 198.452 99.2431 200.004L103.1 200.004L103.1 175.521C103.074 175.522 103.051 175.526 103.024 175.526L101.122 175.526C100.743 175.526 100.437 175.29 100.437 174.999C100.437 174.709 100.743 174.472 101.122 174.472L103.024 174.472C103.051 174.472 103.076 174.476 103.1 174.478L103.1 25.6124C103.074 25.6137 103.051 25.6176 103.024 25.6176L101.122 25.6176C100.743 25.6176 100.437 25.3819 100.437 25.0918C100.437 24.8004 100.743 24.5647 101.122 24.5647L103.024 24.5647C103.051 24.5647 103.076 24.5673 103.1 24.5698L103.1 0.086731L99.2448 0.0867308C99.2448 1.63821 97.6086 2.89701 95.592 2.89701C93.5737 2.89701 91.9359 1.63821 91.9359 0.0867305L90.298 0.0867304C90.298 1.63821 88.6635 2.89701 86.6452 2.89701C84.6286 2.89701 82.9924 1.63821 82.9924 0.0867301L81.2283 0.08673C81.2283 1.63821 79.5921 2.89701 77.5755 2.89701C75.5572 2.89701 73.9211 1.63821 73.9211 0.0867297L70.5225 0.0867295C70.5225 8.10704 62.0705 14.6095 51.6441 14.6095C41.2193 14.6095 32.7657 8.10833 32.7657 0.0867279L29.3671 0.0867277C29.3671 1.63821 27.731 2.89701 25.7127 2.89701C23.6961 2.89701 22.0599 1.63821 22.0599 0.0867274L20.422 0.0867273C20.422 1.63821 18.7875 2.89701 16.7692 2.89701C14.7509 2.89701 13.1164 1.63821 13.1164 0.086727L11.3523 0.0867269C11.3523 1.63821 9.71615 2.89701 7.69786 2.89701C5.68125 2.89701 4.04507 1.63821 4.04507 0.0867266L0.19028 0.0867265L0.190279 24.5698C0.215529 24.5685 0.239095 24.5647 0.266028 24.5647L2.16817 24.5647C2.54692 24.5647 2.85328 24.8004 2.85328 25.0918C2.85328 25.3818 2.54692 25.6175 2.16817 25.6175L0.266028 25.6175C0.239095 25.6175 0.213845 25.615 0.190279 25.6124L0.190273 174.478C0.215522 174.477 0.239089 174.472 0.266022 174.472L2.16817 174.472C2.54691 174.472 2.85327 174.709 2.85327 174.999C2.85327 175.29 2.54691 175.526 2.16817 175.526L0.266022 175.526C0.239089 175.526 0.213839 175.523 0.190273 175.521L0.190272 200.004L4.04506 200.004C4.04506 198.452 5.68124 197.194 7.69785 197.194C9.71614 197.194 11.3523 198.452 11.3523 200.004L13.1164 200.004C13.1164 198.452 14.7509 197.194 16.7692 197.194C18.7875 197.194 20.422 198.452 20.422 200.004L22.0599 200.004C22.0599 198.452 23.6961 197.194 25.7127 197.194C27.731 197.194 29.3671 198.452 29.3671 200.004L32.7674 200.004C32.7674 191.982 41.2193 185.481 51.6441 185.481ZM5.83274 25.6175C5.45568 25.6175 5.14764 25.3818 5.14764 25.0918C5.14764 24.8004 5.45568 24.5647 5.83274 24.5647L9.499 24.5647C9.87606 24.5647 10.1841 24.8004 10.1841 25.0918C10.1841 25.3818 9.87606 25.6175 9.499 25.6175L5.83274 25.6175ZM13.1636 25.6175C12.7848 25.6175 12.4785 25.3818 12.4785 25.0918C12.4785 24.8004 12.7848 24.5647 13.1636 24.5647L16.8281 24.5647C17.2069 24.5647 17.5133 24.8004 17.5133 25.0918C17.5133 25.3818 17.2069 25.6175 16.8281 25.6175L13.1636 25.6175ZM20.4944 25.6175C20.1157 25.6175 19.8093 25.3818 19.8093 25.0918C19.8093 24.8004 20.1157 24.5647 20.4944 24.5647L24.159 24.5647C24.5377 24.5647 24.8441 24.8004 24.8441 25.0918C24.8441 25.3818 24.5377 25.6175 24.159 25.6175L20.4944 25.6175ZM27.8219 25.6175C27.4431 25.6175 27.1368 25.3818 27.1368 25.0918C27.1368 24.8004 27.4431 24.5647 27.8219 24.5647L31.4864 24.5647C31.8652 24.5647 32.1715 24.8004 32.1715 25.0918C32.1715 25.3818 31.8652 25.6175 31.4864 25.6175L27.8219 25.6175ZM35.1527 25.6175C34.7739 25.6175 34.4676 25.3818 34.4676 25.0918C34.4676 24.8004 34.7739 24.5647 35.1527 24.5647L38.8173 24.5647C39.196 24.5647 39.5024 24.8004 39.5024 25.0918C39.5024 25.3818 39.196 25.6175 38.8173 25.6175L35.1527 25.6175ZM42.4818 25.6175C42.1048 25.6175 41.7967 25.3818 41.7967 25.0918C41.7967 24.8004 42.1048 24.5647 42.4818 24.5647L46.1481 24.5647C46.5251 24.5647 46.8332 24.8004 46.8332 25.0918C46.8332 25.3818 46.5251 25.6175 46.1481 25.6175L42.4818 25.6175ZM49.8127 25.6175C49.4339 25.6175 49.1275 25.3818 49.1275 25.0918C49.1275 24.8004 49.4339 24.5647 49.8127 24.5647L53.4772 24.5647C53.856 24.5647 54.1623 24.8004 54.1623 25.0918C54.1623 25.3818 53.856 25.6175 53.4772 25.6175L49.8127 25.6175ZM57.1418 25.6175C56.7647 25.6175 56.4567 25.3818 56.4567 25.0918C56.4567 24.8004 56.7647 24.5647 57.1418 24.5647L60.8081 24.5647C61.1851 24.5647 61.4932 24.8004 61.4932 25.0918C61.4932 25.3818 61.1851 25.6175 60.8081 25.6175L57.1418 25.6175ZM64.4709 25.6175C64.0922 25.6175 63.7858 25.3818 63.7858 25.0918C63.7858 24.8004 64.0922 24.5647 64.4709 24.5647L68.1355 24.5647C68.5143 24.5647 68.8206 24.8004 68.8206 25.0918C68.8206 25.3818 68.5143 25.6175 68.1355 25.6175L64.4709 25.6175ZM71.8018 25.6176C71.423 25.6176 71.1167 25.3818 71.1167 25.0918C71.1167 24.8004 71.423 24.5647 71.8018 24.5647L75.4663 24.5647C75.8451 24.5647 76.1515 24.8004 76.1515 25.0918C76.1515 25.3818 75.8451 25.6176 75.4663 25.6176L71.8018 25.6176ZM79.1309 25.6176C78.7522 25.6176 78.4458 25.3818 78.4458 25.0918C78.4458 24.8004 78.7522 24.5647 79.1309 24.5647L82.7955 24.5647C83.1742 24.5647 83.4806 24.8004 83.4806 25.0918C83.4806 25.3818 83.1742 25.6176 82.7955 25.6176L79.1309 25.6176ZM86.4617 25.6176C86.083 25.6176 85.7766 25.3818 85.7766 25.0918C85.7766 24.8004 86.083 24.5647 86.4617 24.5647L90.1263 24.5647C90.5051 24.5647 90.8114 24.8004 90.8114 25.0918C90.8114 25.3818 90.5051 25.6176 90.1263 25.6176L86.4617 25.6176ZM93.7909 25.6176C93.4138 25.6176 93.1058 25.3818 93.1058 25.0918C93.1058 24.8004 93.4138 24.5647 93.7909 24.5647L97.4571 24.5647C97.8342 24.5647 98.1423 24.8004 98.1423 25.0918C98.1423 25.3819 97.8342 25.6176 97.4571 25.6176L93.7909 25.6176ZM5.83274 175.526C5.45568 175.526 5.14763 175.29 5.14763 174.999C5.14763 174.709 5.45568 174.472 5.83274 174.472L9.49899 174.472C9.87605 174.472 10.1841 174.709 10.1841 174.999C10.1841 175.29 9.87605 175.526 9.49899 175.526L5.83274 175.526ZM13.1636 175.526C12.7848 175.526 12.4785 175.29 12.4785 174.999C12.4785 174.709 12.7848 174.472 13.1636 174.472L16.8281 174.472C17.2069 174.472 17.5132 174.709 17.5132 174.999C17.5132 175.29 17.2069 175.526 16.8281 175.526L13.1636 175.526ZM20.4944 175.526C20.1156 175.526 19.8093 175.29 19.8093 174.999C19.8093 174.709 20.1156 174.472 20.4944 174.472L24.159 174.472C24.5377 174.472 24.8441 174.709 24.8441 174.999C24.8441 175.29 24.5377 175.526 24.159 175.526L20.4944 175.526ZM27.8219 175.526C27.4431 175.526 27.1367 175.29 27.1367 174.999C27.1367 174.709 27.4431 174.472 27.8219 174.472L31.4864 174.472C31.8652 174.472 32.1715 174.709 32.1715 174.999C32.1715 175.29 31.8652 175.526 31.4864 175.526L27.8219 175.526ZM35.1527 175.526C34.7739 175.526 34.4676 175.29 34.4676 174.999C34.4676 174.709 34.7739 174.472 35.1527 174.472L38.8173 174.472C39.196 174.472 39.5024 174.709 39.5024 174.999C39.5024 175.29 39.196 175.526 38.8173 175.526L35.1527 175.526ZM42.4818 175.526C42.1048 175.526 41.7967 175.29 41.7967 174.999C41.7967 174.709 42.1048 174.472 42.4818 174.472L46.1481 174.472C46.5251 174.472 46.8332 174.709 46.8332 174.999C46.8332 175.29 46.5251 175.526 46.1481 175.526L42.4818 175.526ZM49.8127 175.526C49.4339 175.526 49.1275 175.29 49.1275 174.999C49.1275 174.709 49.4339 174.472 49.8127 174.472L53.4772 174.472C53.856 174.472 54.1623 174.709 54.1623 174.999C54.1623 175.29 53.856 175.526 53.4772 175.526L49.8127 175.526ZM57.1418 175.526C56.7647 175.526 56.4567 175.29 56.4567 174.999C56.4567 174.709 56.7647 174.472 57.1418 174.472L60.8081 174.472C61.1851 174.472 61.4932 174.709 61.4932 174.999C61.4932 175.29 61.1851 175.526 60.8081 175.526L57.1418 175.526ZM64.4709 175.526C64.0922 175.526 63.7858 175.29 63.7858 174.999C63.7858 174.709 64.0922 174.472 64.4709 174.472L68.1355 174.472C68.5143 174.472 68.8206 174.709 68.8206 174.999C68.8206 175.29 68.5143 175.526 68.1355 175.526L64.4709 175.526ZM71.8018 175.526C71.423 175.526 71.1167 175.29 71.1167 174.999C71.1167 174.709 71.423 174.472 71.8018 174.472L75.4663 174.472C75.8451 174.472 76.1514 174.709 76.1514 174.999C76.1514 175.29 75.8451 175.526 75.4663 175.526L71.8018 175.526ZM79.1309 175.526C78.7522 175.526 78.4458 175.29 78.4458 174.999C78.4458 174.709 78.7522 174.472 79.1309 174.472L82.7955 174.472C83.1742 174.472 83.4806 174.709 83.4806 174.999C83.4806 175.29 83.1742 175.526 82.7955 175.526L79.1309 175.526ZM86.4617 175.526C86.083 175.526 85.7766 175.29 85.7766 174.999C85.7766 174.709 86.083 174.472 86.4617 174.472L90.1263 174.472C90.5051 174.472 90.8114 174.709 90.8114 174.999C90.8114 175.29 90.5051 175.526 90.1263 175.526L86.4617 175.526ZM93.7909 175.526C93.4138 175.526 93.1058 175.29 93.1058 174.999C93.1058 174.709 93.4138 174.472 93.7909 174.472L97.4571 174.472C97.8342 174.472 98.1422 174.709 98.1422 174.999C98.1422 175.29 97.8342 175.526 97.4571 175.526L93.7909 175.526Z" fill="#F4D6A9"/>
</g>
<path d="M0.412795 169.668L2.35029 169.668L2.35029 170.279L0.412795 170.279M2.995 169.668L4.93249 169.668L4.93249 170.279L2.995 170.279M5.57888 169.668L7.51638 169.668L7.51638 170.279L5.57888 170.279M8.16108 169.668L10.0986 169.668L10.0986 170.279L8.16108 170.279M10.745 169.668L12.6808 169.668L12.6808 170.279L10.745 170.279M13.3272 169.668L15.2647 169.668L15.2647 170.279L13.3272 170.279M15.9094 169.668L17.8469 169.668L17.8469 170.279L15.9094 170.279M18.4933 169.668L20.4308 169.668L20.4308 170.279L18.4933 170.279M21.0755 169.668L23.013 169.668L23.013 170.279L21.0755 170.279M23.6593 169.668L25.5952 169.668L25.5952 170.279L23.6593 170.279M26.2415 169.668L28.179 169.668L28.179 170.279L26.2415 170.279M28.8238 169.668L30.7612 169.668L30.7612 170.279L28.8238 170.279M31.4076 169.668L33.3451 169.668L33.3451 170.279L31.4076 170.279M33.9898 169.668L35.9273 169.668L35.9273 170.279L33.9898 170.279M36.5737 169.668L38.5095 169.668L38.5095 170.279L36.5737 170.279M39.1559 169.668L41.0934 169.668L41.0934 170.279L39.1559 170.279M41.7381 169.668L43.6756 169.668L43.6756 170.279L41.7381 170.279M44.322 169.668L46.2595 169.668L46.2595 170.279L44.322 170.279M46.9042 169.668L48.8417 169.668L48.8417 170.279L46.9042 170.279M49.4881 169.668L51.4239 169.668L51.4239 170.279L49.4881 170.279M52.0703 169.668L54.0078 169.668L54.0078 170.279L52.0703 170.279M54.6525 169.668L56.59 169.668L56.59 170.279L54.6525 170.279M57.2364 169.668L59.1739 169.668L59.1739 170.279L57.2364 170.279M59.8186 169.668L61.7561 169.668L61.7561 170.279L59.8186 170.279M62.4025 169.668L64.3383 169.668L64.3383 170.279L62.4025 170.279M64.9847 169.668L66.9222 169.668L66.9222 170.279L64.9847 170.279M67.5669 169.668L69.5044 169.668L69.5044 170.279L67.5669 170.279M70.1508 169.668L72.0883 169.668L72.0883 170.279L70.1508 170.279M72.733 169.668L74.6705 169.668L74.6705 170.279L72.733 170.279M75.3169 169.668L77.2527 169.668L77.2527 170.279L75.3169 170.279M77.8991 169.668L79.8365 169.668L79.8365 170.279L77.8991 170.279M80.4813 169.668L82.4188 169.668L82.4188 170.279L80.4813 170.279M83.0651 169.668L85.0026 169.668L85.0026 170.279L83.0651 170.279M85.6473 169.668L87.5848 169.668L87.5848 170.279L85.6473 170.279M88.2312 169.668L90.167 169.668L90.167 170.279L88.2312 170.279M90.8134 169.668L92.7509 169.668L92.7509 170.279L90.8134 170.279M93.3956 169.668L95.3331 169.668L95.3331 170.279L93.3956 170.279M95.9795 169.668L97.917 169.668L97.917 170.279L95.9795 170.279M98.5617 169.668L100.499 169.668L100.499 170.279L98.5617 170.279M101.146 169.668L102.097 169.668L102.097 170.279L101.146 170.279" fill="#302401"/>
<path d="M21.3899 131.927L27.1491 131.991L27.561 107.402L23.1677 107.353L22.7009 108.718C22.0811 110.539 20.9605 111.193 18.5247 111.166L15.9039 111.137L15.8221 116.019L21.6553 116.084L21.3899 131.927Z" fill="#FF5757"/>
<path d="M40.2872 132.703C47.2465 132.78 51.5107 128.009 51.6451 120.033C51.7796 112.054 47.6778 107.191 40.7186 107.114C33.7617 107.037 29.4975 111.807 29.363 119.786C29.2286 127.762 33.3303 132.625 40.2872 132.703ZM35.0615 119.849C35.1439 114.962 37.156 112.068 40.6344 112.107C44.0782 112.145 45.9895 115.082 45.9071 119.969C45.8248 124.854 43.8151 127.748 40.3713 127.71C36.8929 127.671 34.9791 124.734 35.0615 119.849Z" fill="#FF5757"/>
<path d="M58.8362 132.459L64.6913 132.524L80.6711 108.081L74.7789 108.016L58.8362 132.459ZM54.1654 112.888C54.1118 116.054 56.5905 118.472 60.5178 118.516C64.4079 118.558 66.9676 116.195 67.0212 113.03C67.0747 109.866 64.5967 107.41 60.7065 107.367C56.7793 107.324 54.2189 109.724 54.1654 112.888ZM58.5381 112.936C58.5565 111.846 59.3856 110.977 60.6452 110.991C61.9048 111.005 62.7065 111.892 62.6881 112.982C62.6696 114.072 61.8381 114.943 60.5785 114.929C59.3189 114.915 58.5196 114.026 58.5381 112.936ZM72.4465 127.51C72.3929 130.673 74.9081 133.13 78.8008 133.173C82.728 133.216 85.2883 130.816 85.3419 127.652C85.3955 124.486 82.9168 122.068 78.9895 122.024C75.0969 121.981 72.5001 124.344 72.4465 127.51ZM76.8192 127.558C76.8377 126.468 77.7038 125.597 78.9288 125.611C80.1884 125.625 80.9876 126.514 80.9692 127.604C80.9507 128.694 80.1217 129.563 78.8621 129.549C77.6372 129.536 76.8008 128.648 76.8192 127.558Z" fill="#FF5757"/>
<path d="M28.1674 40.231L26.4444 40.2567L26.4161 39.0055L28.139 38.9798L28.1674 40.231ZM28.2092 42.079L26.4862 42.1047L26.4576 40.8419L28.1806 40.8163L28.2092 42.079ZM28.2516 43.9559L26.5287 43.9815L26.4995 42.6899L28.2224 42.6643L28.2516 43.9559ZM28.835 38.3552L25.7015 38.4018L25.8414 44.5859L28.9749 44.5392L28.835 38.3552ZM26.4015 44.7967C26.2084 45.5148 25.8267 46.2155 25.3459 46.6899C25.5269 46.7766 25.844 46.9795 25.9711 47.0987C26.4506 46.5638 26.8816 45.7643 27.1361 44.9444L26.4015 44.7967ZM27.7539 45.0246C28.0452 45.4269 28.3822 45.9698 28.5235 46.3138L29.1564 45.9871C29.0001 45.652 28.6671 45.1494 28.3548 44.759L27.7539 45.0246ZM33.6017 41.5604C33.3966 42.6853 33.0206 43.6369 32.5037 44.3973C31.943 43.6212 31.5239 42.6642 31.2508 41.5954L33.6017 41.5604ZM33.9505 40.8804L33.8266 40.9024L30.4838 40.9522L30.4424 39.1243L34.5466 39.0632L34.5311 38.38L29.7171 38.4516L29.7984 42.0438C29.8308 43.4738 29.7879 45.3317 28.8774 46.6661C29.0458 46.7328 29.3627 46.9271 29.4931 47.055C30.4535 45.6506 30.5426 43.5526 30.5082 42.0333L30.4986 41.6066L30.5805 41.6054C30.9137 42.9213 31.4009 44.0676 32.0679 44.9805C31.518 45.6232 30.8491 46.1004 30.1159 46.4199C30.2766 46.5473 30.4803 46.8326 30.5781 46.9984C31.3227 46.6499 31.9795 46.1729 32.542 45.5503C33.0987 46.1476 33.7558 46.6252 34.5495 46.971C34.6486 46.7908 34.8728 46.5077 35.0456 46.3667C34.2346 46.0615 33.5564 45.5929 32.9874 44.987C33.696 43.9844 34.2004 42.6733 34.4142 40.9917L33.9505 40.8804Z" fill="black"/>
<path d="M46.0942 44.3919L46.1236 45.6919L40.7447 45.7719L40.7153 44.472L46.0942 44.3919ZM39.9963 46.8759L40.7695 46.8643L40.7587 46.3888L46.1375 46.3087L46.1483 46.7843L46.9306 46.7726L46.8627 43.775L39.9285 43.8782L39.9963 46.8759ZM40.6556 41.8318L43.3298 41.792L43.3465 42.527L40.6722 42.5668L40.6556 41.8318ZM43.2908 40.0654L40.6165 40.1053L40.6012 39.4279L43.2754 39.3881L43.2908 40.0654ZM43.3179 41.2645L40.6436 41.3043L40.6284 40.6298L43.3026 40.59L43.3179 41.2645ZM44.0984 42.5158L44.0818 41.7808L46.7227 41.7414L46.7108 41.214L44.0699 41.2533L44.0546 40.5788L46.6652 40.54L46.6533 40.0154L44.0427 40.0542L44.0274 39.3769L47.1383 39.3306L47.1257 38.7772L44.1695 38.8212C44.0163 38.4861 43.755 38.0604 43.529 37.7264L42.8238 37.9272C42.9968 38.2014 43.1834 38.536 43.3236 38.8338L40.8494 38.8706C41.0094 38.5684 41.1814 38.2602 41.3201 37.9582L40.5844 37.7501C40.0975 38.8818 39.2671 39.9841 38.3856 40.7036C38.5553 40.8308 38.8316 41.115 38.9497 41.2401C39.256 40.9674 39.5641 40.6457 39.8592 40.2838L39.9331 43.5495L40.6942 43.5381L40.6853 43.1432L47.4619 43.0423L47.4488 42.4659L44.0984 42.5158Z" fill="black"/>
<path d="M53.5541 37.6138C53.1275 39.1399 52.3915 40.6705 51.5678 41.6748C51.6962 41.8517 51.9145 42.2464 51.9911 42.4154C52.2951 42.0417 52.5886 41.6019 52.8598 41.1192L52.9848 46.6397L53.7278 46.6286L53.5712 39.71C53.8393 39.0889 54.0734 38.4395 54.268 37.7906L53.5541 37.6138ZM56.4581 44.4742L59.1938 44.4335C58.8366 44.7358 58.3397 45.0316 57.72 45.2686C57.182 45.0892 56.7065 44.8569 56.3152 44.5946L56.4581 44.4742ZM59.8188 43.8965L59.683 43.9273L57.0534 43.9665C57.205 43.8258 57.3383 43.6854 57.4593 43.5336L58.7149 43.5149C59.2578 43.5069 59.4304 43.3572 59.4812 42.7884C59.3138 42.762 59.0728 42.7051 58.9436 42.6291C58.9221 43.0159 58.8716 43.0656 58.629 43.0692L57.3339 43.0885C56.9912 43.0936 56.9269 43.0657 56.9226 42.8784L56.9096 42.3018L56.2635 42.3114L56.2766 42.888C56.2851 43.2627 56.383 43.4314 56.6848 43.4961C56.4629 43.7474 56.1651 43.9912 55.8247 44.2356C55.707 44.1278 55.5893 44.02 55.5046 43.9001L54.903 44.1282C55.0307 44.2763 55.1615 44.4243 55.3102 44.5605C55.0019 44.7439 54.6387 44.9165 54.2571 45.0808C54.4138 45.1679 54.6185 45.3638 54.725 45.5122C55.1092 45.3277 55.4691 45.1435 55.7891 44.9398C56.1069 45.1744 56.4664 45.3767 56.8589 45.5583C56.0903 45.7802 55.1751 45.9611 54.1433 46.0861C54.2923 46.2338 54.4645 46.4706 54.5532 46.6365C55.7719 46.4598 56.8404 46.2161 57.7342 45.8942C58.6697 46.209 59.7394 46.4209 60.8615 46.534C60.9512 46.3423 61.1245 46.0917 61.2546 45.9399C60.3126 45.876 59.4024 45.7396 58.5907 45.5325C59.3558 45.1549 59.943 44.6905 60.3071 44.1574L59.8188 43.8965ZM55.7298 42.3194C55.5071 42.6687 55.1103 43.1014 54.6879 43.3384L55.1537 43.6775C55.6085 43.3939 55.9744 42.9415 56.2267 42.56L55.7298 42.3194ZM60.8922 43.3355C60.6363 43.0192 60.113 42.5512 59.6658 42.2291L59.2347 42.4864C59.6793 42.8258 60.2029 43.3054 60.441 43.6392L60.8922 43.3355ZM56.0147 41.104L59.4935 41.0522L59.5031 41.4788L56.0244 41.5306L56.0147 41.104ZM59.4566 39.4234L59.4663 39.8501L55.9875 39.9019L55.9779 39.4752L59.4566 39.4234ZM59.4847 40.663L56.0059 40.7148L55.9963 40.2881L59.475 40.2364L59.4847 40.663ZM60.2341 41.468L60.1779 38.9859L57.8061 39.0212C57.8784 38.8615 57.9471 38.6817 58.0159 38.5019L60.9699 38.4579L60.9571 37.89L54.4818 37.9864L54.4947 38.5543L57.2 38.514C57.1613 38.6819 57.126 38.8612 57.0752 39.0321L55.2585 39.0591L55.3147 41.5412L54.2926 41.5564L54.3227 42.8853L54.999 42.8753L54.9797 42.022L57.4667 41.985L57.1259 42.2092C57.488 42.3913 57.9229 42.702 58.1581 42.909L58.5881 42.6027C58.3744 42.4098 57.9833 42.1561 57.6456 41.9823L60.5178 41.9396L60.5371 42.7929L61.2377 42.7824L61.2076 41.4535L60.2341 41.468Z" fill="black"/>
<path d="M69.9677 41.9145L71.578 41.8905L71.1034 42.235C71.3882 42.3518 71.6852 42.4743 71.98 42.6314C71.313 42.65 70.643 42.6686 69.985 42.6784L69.9677 41.9145ZM66.6783 41.4675L66.6635 40.8132L69.1593 40.776L69.1741 41.4304L66.6783 41.4675ZM66.6381 39.6919L69.1339 39.6547L69.1484 40.2975L66.6527 40.3347L66.6381 39.6919ZM72.4848 39.6048L72.4994 40.2476L69.9308 40.2859L69.9163 39.6431L72.4848 39.6048ZM72.525 41.3805L69.9565 41.4187L69.9417 40.7644L72.5102 40.7261L72.525 41.3805ZM65.2999 43.4258C67.2008 43.3773 70.1352 43.2846 72.9238 43.1825C73.1982 43.3774 73.4539 43.5524 73.6247 43.7286L74.1488 43.294C73.6136 42.8349 72.5775 42.2246 71.6598 41.8893L73.3004 41.8649L73.2377 39.0948L69.905 39.1444L69.8906 38.5102L73.9542 38.4497L73.9405 37.8444L69.8769 37.9049L69.8634 37.3082L69.0811 37.3198L69.0946 37.9165L65.1462 37.9753L65.1599 38.5806L69.1083 38.5219L69.1226 39.156L65.8839 39.2042L65.9466 41.9744L69.1853 41.9262L69.2029 42.7016C67.6898 42.7327 66.2982 42.765 65.2456 42.7691L65.2999 43.4258ZM70.9779 44.4629C70.5818 44.1199 69.8104 43.6758 69.1884 43.4054L68.7062 43.8105C69.3379 44.1096 70.0916 44.5742 70.4543 44.9177L70.9779 44.4629ZM65.7491 46.1181C66.1559 45.5958 66.4595 44.7984 66.6758 44.1694L66.0121 43.9313C65.8161 44.5196 65.479 45.3089 65.0711 45.7821L65.7491 46.1181ZM68.7986 45.6171C68.1406 45.6269 68.0244 45.5882 68.0186 45.3317L67.9872 43.9423L67.226 43.9536L67.2577 45.3516C67.2741 46.078 67.5907 46.2608 68.7703 46.2432L71.1327 46.208C72.0697 46.1941 72.3064 45.931 72.3846 44.8284C72.1745 44.7911 71.8687 44.6861 71.6904 44.5821C71.6587 45.4563 71.5673 45.5758 71.0639 45.5833L68.7986 45.6171ZM72.3158 44.0653C72.8203 44.6431 73.3505 45.4195 73.5591 45.9239L74.2542 45.6742C74.0422 45.1526 73.4942 44.3937 72.9689 43.8364L72.3158 44.0653Z" fill="black"/>
<path d="M16.6023 148.753L17.2886 148.751L17.2872 148.426L17.6842 148.425L17.6855 148.75L18.6746 148.747L18.6732 148.423L19.0769 148.422L19.0783 148.746L19.7645 148.744L19.7659 149.069L19.0796 149.071L19.082 149.644L18.3352 149.646L18.3363 149.926L19.6282 149.922L19.6321 150.858L18.3402 150.862L18.3414 151.148L19.7342 151.144L19.7355 151.469L18.3428 151.473L18.3439 151.74L19.5954 151.737L19.5967 152.061L18.3453 152.065L18.3465 152.351L19.9007 152.347L19.9021 152.691L16.4371 152.7L16.4356 152.356L17.9428 152.352L17.9416 152.066L16.7372 152.069L16.7359 151.744L17.9402 151.741L17.9391 151.474L16.5733 151.477L16.5719 151.153L17.9378 151.149L17.9366 150.863L16.712 150.866L16.7081 149.93L17.9327 149.927L17.9315 149.647L17.2923 149.649L17.2899 149.076L16.6036 149.078L16.6023 148.753ZM18.6771 149.358L18.6759 149.072L17.6869 149.075L17.6881 149.361L18.6771 149.358ZM17.074 150.54L17.9352 150.538L17.934 150.252L17.0728 150.254L17.074 150.54ZM18.3377 150.251L18.3389 150.537L19.2674 150.534L19.2662 150.248L18.3377 150.251ZM16.1972 148.429L16.6014 148.543C16.4818 148.9 16.3419 149.25 16.1819 149.594L16.1953 152.815L15.7916 152.816L15.7812 150.315C15.6608 150.493 15.5337 150.659 15.3998 150.812L15.1963 150.431C15.6512 149.798 15.9848 149.13 16.1972 148.429Z" fill="#292C75"/>
<path d="M21.91 150.43L21.9719 150.774C21.8108 150.863 21.6362 150.946 21.4482 151.023L21.4534 152.284C21.4542 152.475 21.4228 152.608 21.3609 152.685C21.3024 152.762 21.1932 152.8 21.0317 152.8C20.8837 152.801 20.7356 152.782 20.5874 152.744L20.505 152.344C20.6532 152.394 20.8081 152.419 20.9696 152.419C21.0234 152.419 21.05 152.342 21.0494 152.189L21.0452 151.196C20.8839 151.248 20.7227 151.305 20.5615 151.369L20.3983 150.969C20.6268 150.905 20.8418 150.834 21.0434 150.757L21.0385 149.579L20.4733 149.581L20.4718 149.218L21.0369 149.217L21.0336 148.415L21.4373 148.413L21.4406 149.216L21.9856 149.214L21.9871 149.577L21.4421 149.578L21.4465 150.622L21.91 150.43ZM22.2451 148.507L24.5797 148.501L24.587 150.251L22.2524 150.257L22.2451 148.507ZM22.6315 149.212L24.1992 149.208L24.1977 148.845L22.63 148.85L22.6315 149.212ZM22.6344 149.913L24.2021 149.908L24.2006 149.552L22.633 149.556L22.6344 149.913ZM22.3364 151.04L22.7 151.115C22.674 151.332 22.621 151.536 22.5411 151.727C22.7119 151.956 22.9532 152.121 23.2631 152.222L23.2577 150.923L21.912 150.927L21.9106 150.583L24.8508 150.575L24.8522 150.919L23.6412 150.922L23.6433 151.438L24.592 151.435L24.5934 151.779L23.6447 151.781L23.6469 152.297C23.8893 152.334 24.1787 152.353 24.5151 152.352L25.0197 152.351L24.9002 152.733L24.5167 152.734C23.9111 152.735 23.4534 152.681 23.1434 152.572C22.8369 152.466 22.5839 152.306 22.3811 152.09C22.2477 152.358 22.0805 152.594 21.8795 152.798L21.5756 152.532C22.0178 152.085 22.2714 151.588 22.3364 151.04Z" fill="#292C75"/>
<path d="M26.9039 149.314L27.5901 149.312L27.5865 148.433L27.9834 148.432L27.9871 149.311L28.855 149.309L28.8514 148.43L29.2551 148.429L29.2587 149.307L30.0459 149.305L30.0474 149.668L29.2602 149.67L29.2654 150.905L30.1333 150.903L30.1348 151.266L26.8111 151.275L26.8096 150.912L27.5968 150.91L27.5917 149.675L26.9054 149.677L26.9039 149.314ZM27.9938 150.909L28.8617 150.906L28.8565 149.671L27.9886 149.674L27.9938 150.909ZM29.1061 151.421C29.4437 151.726 29.7749 152.088 30.0996 152.507L29.7173 152.795C29.4466 152.401 29.1287 152.013 28.7638 151.632L29.1061 151.421ZM27.6999 151.425L28.0774 151.596C27.76 152.119 27.4151 152.521 27.0395 152.802L26.6952 152.516C27.111 152.197 27.4459 151.833 27.6999 151.425ZM26.5165 148.398L26.9207 148.512C26.8011 148.868 26.6613 149.219 26.5012 149.563L26.5147 152.784L26.111 152.785L26.1005 150.284C25.9802 150.462 25.853 150.628 25.7191 150.781L25.5157 150.4C25.9705 149.767 26.3042 149.099 26.5165 148.398Z" fill="#292C75"/>
<path d="M31.1974 149.797C31.4126 149.784 31.6009 149.758 31.7622 149.719C31.8824 149.502 32.0026 149.273 32.1227 149.031L32.5067 149.163C32.1599 149.887 31.7788 150.464 31.3634 150.898C31.6324 150.846 31.881 150.782 32.1095 150.705L31.9467 150.4L32.269 150.227C32.4315 150.481 32.574 150.761 32.6963 151.066L32.3337 151.239C32.3065 151.15 32.2792 151.074 32.252 151.01C31.8489 151.151 31.4053 151.26 30.9212 151.338L30.7987 151.014C31.0668 150.746 31.3211 150.42 31.5617 150.038C31.3331 150.089 31.0911 150.135 30.8356 150.173L30.7535 149.836C31.048 149.466 31.2882 148.982 31.4741 148.383L31.8984 148.496C31.7123 149.044 31.4786 149.478 31.1974 149.797ZM32.2937 151.315C32.4021 151.506 32.477 151.716 32.5183 151.945L32.216 152.041C32.1612 151.812 32.0863 151.602 31.9913 151.412L32.2937 151.315ZM31.8302 151.488C31.9392 151.819 31.9945 152.169 31.996 152.538L31.5925 152.578C31.5908 152.183 31.5558 151.839 31.4873 151.547L31.8302 151.488ZM30.9624 151.529L31.3261 151.624C31.2874 152.018 31.2014 152.388 31.0683 152.732L30.7245 152.58C30.8442 152.223 30.9234 151.873 30.9624 151.529ZM32.586 148.819L33.7904 148.816L33.7886 148.377L34.1519 148.376L34.1537 148.815L35.3042 148.812L35.3056 149.137L34.1551 149.14L34.1569 149.579L35.1661 149.576L35.1727 151.136L34.4258 151.138C34.6563 151.545 34.9876 151.926 35.4197 152.281L35.1384 152.606C34.7466 152.238 34.422 151.838 34.1645 151.406L34.1702 152.762L33.8069 152.763L33.8002 151.159C33.5066 151.745 33.0998 152.223 32.5816 152.594L32.3381 152.289C32.781 151.995 33.1393 151.612 33.4166 151.14L32.7774 151.142L32.7709 149.583L33.7936 149.58L33.7918 149.141L32.5874 149.144L32.586 148.819ZM33.1528 150.817L33.7987 150.815L33.7949 149.898L33.149 149.9L33.1528 150.817ZM33.5128 150.013C33.5943 150.192 33.6556 150.376 33.6968 150.567L33.4148 150.701C33.3601 150.498 33.2988 150.313 33.2308 150.148L33.5128 150.013ZM34.1582 149.897L34.1621 150.814L34.7878 150.812L34.784 149.895L34.1582 149.897ZM34.4212 150.03L34.7244 150.125C34.658 150.341 34.578 150.526 34.4845 150.679L34.2013 150.546C34.3082 150.368 34.3815 150.196 34.4212 150.03Z" fill="#292C75"/>
<path d="M36.0892 148.464L37.9662 148.459L37.9741 150.344L37.5704 150.345L37.5683 149.835C37.1655 150.037 36.7154 150.213 36.2182 150.367L36.0553 150.005C36.6332 149.843 37.137 149.665 37.5668 149.473L37.5641 148.823L36.0907 148.827L36.0892 148.464ZM38.3228 148.458L40.1998 148.453L40.2077 150.338L39.804 150.339L39.8019 149.829C39.3991 150.031 38.949 150.207 38.4518 150.361L38.2888 149.999C38.8668 149.837 39.3706 149.659 39.8004 149.467L39.7977 148.817L38.3243 148.821L38.3228 148.458ZM36.3335 148.96C36.6297 149.023 36.9329 149.124 37.243 149.263L37.103 149.569C36.8064 149.443 36.51 149.348 36.2137 149.285L36.3335 148.96ZM38.5671 148.954C38.8768 149.017 39.18 149.118 39.4766 149.257L39.3164 149.563C39.0333 149.437 38.7436 149.342 38.4473 149.279L38.5671 148.954ZM38.0953 150.362L38.533 150.476C38.4661 150.565 38.3992 150.648 38.3322 150.725L39.9671 150.72L39.9756 152.763L39.5921 152.764L39.5912 152.535L36.8934 152.543L36.8943 152.772L36.5108 152.773L36.5023 150.729L37.8949 150.726C37.9752 150.611 38.042 150.49 38.0953 150.362ZM36.8889 151.473L39.5867 151.466L39.585 151.065L36.8872 151.072L36.8889 151.473ZM36.8919 152.199L39.5897 152.192L39.5881 151.791L36.8903 151.798L36.8919 152.199Z" fill="#292C75"/>
<path d="M41.0927 149.729L42.1019 149.726L42.1009 149.497L42.4844 149.496L42.4854 149.725L43.4677 149.722L43.4691 150.06L42.4868 150.062L42.4878 150.311L43.3557 150.308L43.3611 151.588L42.4932 151.59L42.4942 151.838L43.5371 151.836L43.5385 152.179L42.4956 152.182L42.4979 152.736L42.1144 152.737L42.1121 152.183L41.0625 152.186L41.0611 151.842L42.1107 151.839L42.1097 151.591L41.2417 151.593L41.2364 150.314L42.1043 150.312L42.1033 150.063L41.0941 150.066L41.0927 149.729ZM41.6422 150.828L42.1065 150.827L42.1054 150.579L41.6412 150.58L41.6422 150.828ZM42.4889 150.578L42.49 150.826L42.9542 150.825L42.9532 150.577L42.4889 150.578ZM41.6443 151.325L42.1085 151.324L42.1075 151.075L41.6433 151.077L41.6443 151.325ZM42.491 151.074L42.492 151.323L42.9563 151.321L42.9552 151.073L42.491 151.074ZM45.023 149.998L44.0744 150.001L44.0834 152.159C44.0837 152.222 44.1175 152.267 44.1849 152.292C44.2523 152.317 44.4071 152.33 44.6493 152.329C44.9588 152.328 45.142 152.299 45.2006 152.245C45.2626 152.186 45.3072 151.996 45.3328 151.678L45.6965 151.772C45.6579 152.18 45.5849 152.435 45.4777 152.537C45.3839 152.626 45.1082 152.672 44.6507 152.673C44.2201 152.674 43.9525 152.644 43.8497 152.586C43.7502 152.53 43.701 152.427 43.7004 152.274L43.6895 149.664L45.4051 149.66C45.409 150.573 45.3709 151.116 45.2908 151.29C45.2108 151.46 45.0497 151.545 44.8075 151.546C44.6998 151.546 44.5719 151.527 44.4237 151.489L44.3617 151.146C44.5234 151.184 44.658 151.202 44.7657 151.202C44.8464 151.202 44.9017 151.157 44.9333 151.068C44.9683 150.979 44.9987 150.622 45.023 149.998ZM41.8941 148.313L42.2983 148.427L42.1781 148.637L43.3488 148.634L43.3501 148.959L42.7042 148.96C42.8123 149.062 42.9136 149.164 43.0083 149.265L42.6457 149.457C42.5374 149.292 42.4089 149.127 42.2602 148.962L41.9372 148.963C41.7766 149.167 41.5889 149.345 41.3743 149.499L41.0504 149.271C41.4528 148.977 41.7341 148.658 41.8941 148.313ZM43.9866 148.308L44.3706 148.421C44.3439 148.485 44.3106 148.555 44.2705 148.632L45.6632 148.628L45.6646 148.953L44.8572 148.955L45.1411 149.259L44.7987 149.451C44.6769 149.286 44.5417 149.121 44.393 148.956L44.0297 148.957L44.0297 148.976C43.8826 149.18 43.7151 149.346 43.5272 149.474L43.21 149.246C43.5671 148.965 43.8265 148.652 43.9866 148.308Z" fill="#292C75"/>
<path d="M47.0139 148.336L47.4181 148.45C47.3386 148.743 47.2388 149.029 47.1189 149.31L47.1331 152.722L46.7496 152.723L46.7387 150.106C46.6186 150.336 46.4916 150.54 46.3578 150.719L46.1543 150.337C46.5554 149.704 46.8419 149.037 47.0139 148.336ZM47.5195 148.564L49.3091 148.559L49.3106 148.922L48.4898 148.924C48.4505 149.166 48.3909 149.402 48.3111 149.631L49.2127 149.629C49.1636 150.772 48.6852 151.814 47.7792 152.758L47.4754 152.511C48.2609 151.694 48.693 150.852 48.7701 149.986L48.1915 149.988C48.0984 150.243 48.0251 150.421 47.9717 150.523C48.147 150.612 48.3022 150.713 48.4372 150.828L48.1964 151.153C48.0748 151.039 47.9398 150.937 47.7914 150.848C47.738 150.95 47.6711 151.052 47.5908 151.154L47.3474 150.85C47.6949 150.301 47.9412 149.661 48.0861 148.925L47.521 148.927L47.5195 148.564ZM50.3174 148.327L50.7009 148.326L50.717 152.196C50.7178 152.387 50.6864 152.521 50.6245 152.598C50.566 152.674 50.4501 152.713 50.2751 152.713C50.0598 152.714 49.8646 152.689 49.6895 152.638L49.6071 152.238C49.7957 152.301 49.9977 152.332 50.213 152.331C50.2937 152.331 50.3338 152.255 50.3331 152.102L50.3174 148.327ZM49.5121 148.826L49.8956 148.825L49.9072 151.607L49.5237 151.608L49.5121 148.826Z" fill="#292C75"/>
<path d="M52.7927 152.17L52.271 152.859L51.9684 152.86L52.3085 152.171L52.0059 152.172L52.0032 151.542L52.79 151.54L52.7927 152.17Z" fill="#292C75"/>
<path d="M57.8779 148.303C58.0267 148.494 58.1487 148.704 58.2439 148.933L57.8611 149.106C57.7659 148.864 57.6506 148.648 57.5152 148.457L57.8779 148.303ZM59.809 148.317L60.2334 148.431C60.0865 148.699 59.926 148.935 59.7519 149.139L60.9428 149.135L60.9443 149.498L59.5314 149.502L59.5424 152.15L61.1168 152.146L61.1184 152.509L56.5835 152.521L56.582 152.158L58.0555 152.154L58.0444 149.506L56.6517 149.51L56.6502 149.147L59.2876 149.14C59.4884 148.872 59.6622 148.598 59.809 148.317ZM58.4592 152.153L59.1387 152.151L59.1277 149.503L58.4481 149.505L58.4592 152.153ZM57.1786 150.018C57.4496 150.463 57.6737 150.959 57.8509 151.505L57.448 151.698C57.2978 151.163 57.0938 150.655 56.8361 150.171L57.1786 150.018ZM60.3813 150.009L60.8057 150.142C60.6065 150.766 60.3866 151.289 60.1461 151.709L59.7618 151.519C60.0423 151.009 60.2488 150.506 60.3813 150.009Z" fill="#292C75"/>
<path d="M62.6135 148.27L62.9773 148.364C62.9239 148.479 62.8638 148.587 62.797 148.689L66.0399 148.681L66.0414 149.044L65.6377 149.045L65.6414 149.917L66.2065 149.915L66.208 150.259L65.6428 150.26L65.6465 151.139L66.3327 151.137L66.3343 151.5L61.6986 151.512L61.6971 151.15L62.4035 151.148L62.3999 150.269L61.8347 150.271L61.8333 149.927L62.3984 149.925L62.3956 149.244C62.275 149.372 62.1476 149.487 62.0135 149.589L61.6895 149.342C62.1188 149.022 62.4268 148.665 62.6135 148.27ZM65.2579 149.918L65.2542 149.046L64.6689 149.047L64.6725 149.919L65.2579 149.918ZM64.289 149.92L64.2854 149.048L63.7269 149.05L63.7306 149.922L64.289 149.92ZM63.3471 149.923L63.3434 149.051L62.7783 149.052L62.7819 149.924L63.3471 149.923ZM62.787 151.147L63.3522 151.145L63.3485 150.267L62.7834 150.268L62.787 151.147ZM63.7357 151.144L64.2941 151.143L64.2905 150.264L63.732 150.266L63.7357 151.144ZM64.6776 151.142L65.263 151.14L65.2593 150.262L64.674 150.263L64.6776 151.142ZM62.2645 151.683L62.6084 151.873C62.4214 152.217 62.2342 152.491 62.0467 152.695L61.7023 152.41C61.9301 152.18 62.1175 151.938 62.2645 151.683ZM65.669 151.693C65.9122 151.934 66.1219 152.201 66.298 152.493L65.875 152.685C65.7258 152.405 65.5295 152.132 65.2862 151.866L65.669 151.693ZM63.3344 151.718C63.5103 151.947 63.6526 152.201 63.7615 152.481L63.3585 152.654C63.2496 152.361 63.114 152.107 62.9516 151.891L63.3344 151.718ZM64.4984 151.715C64.6608 151.944 64.8031 152.192 64.9253 152.459L64.5224 152.631C64.4135 152.352 64.278 152.104 64.1156 151.888L64.4984 151.715Z" fill="#292C75"/>
<path d="M69.1795 148.231C69.2607 148.333 69.3284 148.441 69.3827 148.556L71.3406 148.55L71.3441 149.41L70.9606 149.411L70.9585 148.895L67.3523 148.905L67.3544 149.42L66.9911 149.421L66.9875 148.562L68.9454 148.557C68.9047 148.48 68.8573 148.411 68.8032 148.347L69.1795 148.231ZM70.7976 149.029L70.7389 149.469L71.4251 149.467L71.4263 149.753L70.6997 149.755L70.641 150.207L67.4587 150.216L67.5577 149.764L66.8916 149.765L66.8904 149.479L67.5969 149.477L67.696 149.038L70.7976 149.029ZM68.02 149.304L67.9804 149.476L68.9694 149.473L69.009 149.301L68.02 149.304ZM69.3858 149.3L69.3462 149.472L70.315 149.47L70.3546 149.298L69.3858 149.3ZM68.91 149.76L67.9412 149.763L67.9016 149.947L68.8704 149.945L68.91 149.76ZM70.296 149.756L69.2666 149.759L69.227 149.944L70.2564 149.941L70.296 149.756ZM67.4593 150.369L70.7829 150.36L70.79 152.059L70.1441 152.061C70.5481 152.136 70.9387 152.218 71.3159 152.306L71.1558 152.65C70.6708 152.499 70.1791 152.379 69.6809 152.291L69.8212 152.062L68.4554 152.066L68.7186 152.256C68.3022 152.422 67.7981 152.557 67.2065 152.661L66.9428 152.356C67.4269 152.278 67.8706 152.182 68.2738 152.066L67.4664 152.068L67.4593 150.369ZM67.8448 150.845L70.4014 150.838L70.4006 150.647L67.844 150.654L67.8448 150.845ZM67.8468 151.322L70.4034 151.315L70.4026 151.105L67.8459 151.112L67.8468 151.322ZM67.8487 151.781L70.4053 151.774L70.4045 151.564L67.8478 151.571L67.8487 151.781Z" fill="#292C75"/>
<path d="M73.58 148.428L73.5814 148.772L73.0006 149.875C73.3118 150.268 73.4682 150.663 73.4698 151.057C73.4708 151.286 73.4244 151.458 73.3307 151.573C73.237 151.688 73.1027 151.746 72.9277 151.746C72.8604 151.746 72.7864 151.734 72.7055 151.709L72.6232 151.327C72.7445 151.365 72.8455 151.384 72.9262 151.383C72.98 151.383 73.0203 151.356 73.047 151.3C73.0736 151.241 73.0868 151.16 73.0863 151.058C73.0847 150.676 72.9149 150.295 72.5769 149.914L73.1777 148.773L72.4914 148.775L72.5076 152.645L72.1443 152.646L72.1267 148.432L73.58 148.428ZM73.9627 148.255L74.3264 148.33C74.3132 148.394 74.2933 148.464 74.2667 148.541L74.9664 148.539L74.9677 148.844C74.9682 148.959 74.8347 149.227 74.5674 149.647C74.3433 149.976 74.0452 150.273 73.6695 150.541L73.4462 150.236C74.0098 149.857 74.3813 149.393 74.564 148.845L74.1469 148.847C74.1201 148.885 74.1001 148.923 74.0868 148.961C74.1678 149.012 74.2487 149.069 74.3297 149.133L74.1288 149.362C74.0613 149.299 74.0005 149.248 73.9465 149.21L73.8262 149.401C73.8802 149.439 73.9342 149.484 73.9883 149.534L73.7874 149.758C73.7468 149.712 73.7063 149.669 73.6657 149.631L73.525 149.759L73.3019 149.517C73.5965 149.173 73.8168 148.752 73.9627 148.255ZM75.4099 148.385L75.4508 148.518L76.46 148.516L76.4613 148.821C76.3278 149.089 76.1674 149.344 75.98 149.586C76.1559 149.799 76.3988 149.986 76.709 150.151L76.5086 150.495C75.7534 150.103 75.2662 149.432 75.0469 148.481L75.4099 148.385ZM75.7566 149.262C75.8637 149.122 75.9573 148.975 76.0374 148.822L75.5328 148.824C75.6007 148.976 75.6753 149.123 75.7566 149.262ZM74.3877 150.119L75.7602 150.115L75.7616 150.44L74.389 150.444L74.3877 150.119ZM73.6907 150.789L76.4896 150.782L76.4911 151.125L75.28 151.129L75.2843 152.16C75.2851 152.338 75.2519 152.461 75.1849 152.529C75.118 152.601 74.9768 152.638 74.7615 152.639C74.6 152.639 74.4469 152.621 74.3038 152.583L74.2214 152.201C74.405 152.251 74.5851 152.276 74.76 152.276C74.8407 152.276 74.8809 152.218 74.8804 152.104L74.8763 151.13L73.6922 151.133L73.6907 150.789ZM74.1775 151.342L74.4745 151.57C74.1967 151.915 73.858 152.183 73.4551 152.375L73.252 152.07C73.6146 151.891 73.9231 151.648 74.1775 151.342ZM75.7653 151.338C76.1162 151.591 76.4335 151.832 76.717 152.061L76.4559 152.367C76.1588 152.126 75.855 151.872 75.5444 151.605L75.7653 151.338Z" fill="#292C75"/>
<path d="M78.1733 148.242L78.5775 148.355C78.471 148.649 78.3512 148.942 78.2178 149.235L78.232 152.628L77.8283 152.629L77.8171 149.955C77.6567 150.198 77.4894 150.421 77.3153 150.625L77.1119 150.244C77.6071 149.611 77.9609 148.943 78.1733 148.242ZM79.2431 148.239L79.6606 148.333C79.6077 148.537 79.5429 148.728 79.4679 148.907L81.8026 148.901L81.8041 149.263L80.0279 149.268L80.031 150.007L81.4843 150.003L81.4857 150.346L80.0324 150.35L80.0355 151.095L81.5494 151.091L81.5509 151.454L80.037 151.458L80.0419 152.623L79.6382 152.624L79.6242 149.269L79.308 149.27C79.1347 149.662 78.9006 150.016 78.6059 150.335L78.3221 150.03C78.7238 149.55 79.0308 148.953 79.2431 148.239Z" fill="#292C75"/>
<path d="M86.6373 148.447L86.6522 152.03C86.653 152.209 86.6132 152.342 86.5328 152.432C86.4524 152.521 86.3315 152.566 86.17 152.566C86.0086 152.567 85.8067 152.555 85.5643 152.53L85.482 152.148C85.7378 152.173 85.9397 152.185 86.0877 152.185C86.1954 152.184 86.2488 152.095 86.2481 151.917L86.2446 151.096L84.9327 151.099L84.938 152.379L84.541 152.38L84.5357 151.1L83.1833 151.104C83.1183 151.639 82.9522 152.142 82.685 152.614L82.3006 152.386C82.5008 152.003 82.6407 151.658 82.7201 151.347C82.7995 151.033 82.8383 150.659 82.8365 150.226L82.8292 148.457L86.6373 148.447ZM83.2376 149.602L84.5294 149.598L84.5262 148.815L83.2344 148.819L83.2376 149.602ZM84.9231 148.814L84.9264 149.597L86.2384 149.593L86.2351 148.811L84.9231 148.814ZM83.2222 150.741L84.5342 150.738L84.5309 149.955L83.2391 149.958L83.2408 150.359C83.2413 150.486 83.2351 150.614 83.2222 150.741ZM84.9279 149.953L84.9311 150.736L86.2431 150.733L86.2399 149.95L84.9279 149.953Z" fill="#292C75"/>
<path d="M88.9099 152.061L88.3882 152.75L88.0856 152.75L88.4257 152.062L88.1231 152.063L88.1204 151.433L88.9072 151.431L88.9099 152.061Z" fill="#292C75"/>
<path d="M40.3876 159.965C40.6253 160.092 40.8463 160.244 41.0489 160.422L40.7677 160.747C40.5683 160.544 40.3557 160.373 40.1263 160.233L40.3876 159.965ZM42.0768 160.056C42.347 160.31 42.6106 160.602 42.8677 160.932L42.5054 161.182C42.3023 160.889 42.0521 160.591 41.7548 160.286L42.0768 160.056ZM39.3183 160.083L39.722 160.081L39.7253 160.884C39.7255 160.934 39.761 160.973 39.8335 160.998C39.9093 161.023 40.1229 161.035 40.4728 161.034C40.9253 161.033 41.1994 161.02 41.2935 160.994C41.3876 160.968 41.448 160.93 41.4747 160.879C41.5015 160.853 41.5212 160.745 41.5339 160.554L41.9381 160.687C41.9124 160.98 41.8342 161.171 41.705 161.26C41.5792 161.35 41.169 161.395 40.4743 161.397C39.9764 161.398 39.6601 161.369 39.5253 161.311C39.3905 161.255 39.3228 161.158 39.3222 161.018L39.3183 160.083ZM38.7534 160.141L39.1175 160.331C38.9174 160.765 38.7035 161.09 38.4756 161.307L38.1516 161.041C38.4062 160.785 38.6068 160.486 38.7534 160.141ZM42.6714 157.445L42.6729 157.788L41.3609 157.792C41.4302 158.275 41.526 158.655 41.6482 158.93C41.8757 158.616 42.0493 158.312 42.1692 158.019L42.5128 158.113C42.2994 158.569 42.0722 158.961 41.8314 159.293C41.9802 159.471 42.0748 159.579 42.1153 159.617C42.1559 159.655 42.203 159.674 42.2569 159.674C42.3107 159.673 42.3508 159.616 42.3773 159.501C42.4037 159.387 42.4164 159.215 42.4155 158.986L42.7994 159.08C42.7875 159.462 42.7348 159.723 42.6412 159.864C42.5476 160.004 42.42 160.074 42.2585 160.075C42.0836 160.075 41.8676 159.917 41.6106 159.599C41.4768 159.778 41.3228 159.95 41.1485 160.116L40.8044 159.869C41.0323 159.664 41.2333 159.46 41.4073 159.256C41.1904 158.862 41.0403 158.375 40.9572 157.793L38.9252 157.798L38.929 158.69C38.931 159.186 38.805 159.626 38.5509 160.008L38.1867 159.799C38.4273 159.404 38.5466 158.974 38.5447 158.506L38.5403 157.456L40.9154 157.449C40.9148 157.309 40.9075 157.176 40.8935 157.048L41.2972 157.047C41.3112 157.187 41.3185 157.321 41.3191 157.448L41.9448 157.446C41.8637 157.358 41.7691 157.275 41.6612 157.199L41.9228 157.007C42.1118 157.147 42.2738 157.293 42.409 157.445L42.6714 157.445ZM39.088 158.103L40.9181 158.099L40.9194 158.423L39.0893 158.428L39.088 158.103ZM39.1914 158.708L40.7793 158.704L40.7836 159.735L39.1957 159.739L39.1914 158.708ZM39.5577 159.414L40.4257 159.411L40.4241 159.029L39.5561 159.032L39.5577 159.414Z" fill="#292C75"/>
<path d="M43.3374 157.594L43.9025 157.592C43.8481 157.44 43.7802 157.293 43.6988 157.154L44.0818 157.019C44.1902 157.197 44.2717 157.388 44.3264 157.591L44.8108 157.59L44.8123 157.953L43.3389 157.957L43.3374 157.594ZM43.4616 158.338L44.6726 158.335L44.674 158.672L43.463 158.676L43.4616 158.338ZM43.4646 159.058L44.6756 159.054L44.6771 159.398L43.466 159.401L43.4646 159.058ZM44.719 159.78L44.7259 161.422L44.3626 161.423L44.3615 161.175L43.8367 161.176L43.8378 161.425L43.4543 161.426L43.4474 159.783L44.719 159.78ZM43.8352 160.813L44.36 160.812L44.3571 160.125L43.8324 160.126L43.8352 160.813ZM46.5216 158.024L47.3088 158.022L47.3046 157.01L47.6679 157.009L47.6721 158.021L47.9749 158.021L47.9764 158.383L47.6736 158.384L47.6841 160.899C47.685 161.102 47.6536 161.238 47.5916 161.306C47.5331 161.378 47.4239 161.415 47.2624 161.415C47.1278 161.416 46.9999 161.397 46.8787 161.359L46.7963 160.977C46.931 161.015 47.0724 161.034 47.2204 161.034C47.2877 161.033 47.321 160.957 47.3204 160.804L47.3103 158.385L46.5231 158.387L46.5216 158.024ZM46.8076 158.839C46.9435 159.169 47.0594 159.532 47.1553 159.926L46.8329 160.061C46.7504 159.653 46.6413 159.291 46.5054 158.973L46.8076 158.839ZM45.5956 157.015L45.9727 157.09C45.9195 157.23 45.8595 157.364 45.7927 157.492L46.3781 157.49L46.3928 161.017C46.3933 161.144 46.3483 161.241 46.2595 161.31C46.174 161.382 46.0446 161.419 45.8697 161.419C45.7385 161.419 45.587 161.407 45.412 161.382L45.3299 161.058C45.5588 161.083 45.7304 161.095 45.8481 161.095C45.9962 161.094 46.0699 161.037 46.0694 160.922L46.0657 160.025C45.7881 160.407 45.4429 160.733 45.0269 161.001L44.8037 160.715C45.2063 160.46 45.5314 160.166 45.7823 159.834L44.8 159.837L44.7987 159.512L45.0207 159.512L45.0123 157.494L45.416 157.493C45.496 157.327 45.5559 157.168 45.5956 157.015ZM45.3583 158.199L46.0581 158.198L46.0564 157.797L45.3567 157.798L45.3583 158.199ZM45.3611 158.862L46.0608 158.86L46.0593 158.484L45.3595 158.486L45.3611 158.862ZM45.3638 159.511L46.0635 159.509L46.062 159.146L45.3623 159.148L45.3638 159.511Z" fill="#292C75"/>
<path d="M50.6861 159.82C50.9777 159.972 51.2459 160.155 51.489 160.371L51.2078 160.697C50.9545 160.455 50.6946 160.246 50.4247 160.069L50.6861 159.82ZM49.0718 159.958L49.4158 160.148C49.2158 160.606 49.0087 160.964 48.7945 161.219L48.4501 160.933C48.7045 160.627 48.9118 160.302 49.0718 159.958ZM49.6976 159.975L50.1013 159.974L50.1046 160.757C50.105 160.846 50.1271 160.903 50.1726 160.929C50.2215 160.954 50.3544 160.966 50.5697 160.966C50.8204 160.965 51.0743 160.958 51.3299 160.945C51.5587 160.931 51.688 160.897 51.7198 160.842C51.7548 160.783 51.7863 160.657 51.8124 160.466L52.2167 160.617C52.1375 160.974 52.0307 161.178 51.8963 161.229C51.7081 161.281 51.2659 161.308 50.5712 161.309L50.3895 161.31C50.1069 161.311 49.9201 161.279 49.8306 161.216C49.7446 161.153 49.7021 161.051 49.7015 160.911L49.6976 159.975ZM52.4764 159.967C52.7603 160.272 52.9972 160.609 53.1871 160.978L52.7842 161.17C52.6213 160.814 52.3978 160.471 52.1138 160.14L52.4764 159.967ZM50.8154 156.961L51.1724 157.056C51.1192 157.208 51.0525 157.349 50.9723 157.476L52.9706 157.471L52.972 157.795L52.5909 158.369L52.1468 158.371L52.5279 157.797L50.7987 157.801C50.7988 157.814 50.7537 157.884 50.6651 158.012C50.5798 158.139 50.4375 158.292 50.2364 158.471L49.8922 158.224C50.3212 157.854 50.629 157.433 50.8154 156.961ZM49.5842 156.983L49.9683 157.116C49.8616 157.346 49.7481 157.556 49.6278 157.747L49.6361 159.746L49.2526 159.747L49.2466 158.302C49.1261 158.465 48.9855 158.621 48.8247 158.774L48.4806 158.565C48.9631 158.097 49.331 157.57 49.5842 156.983ZM51.338 158.029L51.7215 158.028L51.7264 159.206C51.7271 159.384 51.7007 159.51 51.6472 159.581C51.5937 159.65 51.466 159.684 51.2641 159.684C51.1565 159.685 51.0555 159.672 50.9612 159.647L50.8789 159.265C51.0136 159.303 51.1415 159.322 51.2626 159.321C51.3164 159.321 51.3431 159.264 51.3426 159.149L51.338 158.029ZM50.6199 158.47L50.9368 158.635C50.7129 159.005 50.482 159.298 50.2407 159.515L49.9368 159.249C50.2184 159.006 50.4461 158.748 50.6199 158.47ZM52.2483 158.517C52.5587 158.72 52.8423 158.954 53.0991 159.221L52.8379 159.527C52.581 159.222 52.304 158.969 52.0071 158.766L52.2483 158.517Z" fill="#292C75"/>
<path d="M56.4331 157.021L56.8371 157.096C56.7708 157.338 56.6844 157.574 56.5777 157.803L58.152 157.799C58.159 159.476 58.1027 160.511 57.9833 160.906C57.8904 161.224 57.6691 161.384 57.3192 161.385C57.1443 161.385 56.9356 161.36 56.6932 161.31L56.5906 160.909C56.9272 160.959 57.1695 160.984 57.3176 160.984C57.479 160.983 57.5796 160.894 57.6192 160.716C57.6985 160.372 57.7353 159.522 57.7296 158.163L56.3774 158.166C56.217 158.431 56.0447 158.651 55.8621 158.83L55.5582 158.563C55.9551 158.147 56.2473 157.632 56.4331 157.021ZM56.6025 158.904C56.8055 159.184 56.975 159.495 57.1109 159.839L56.7282 160.012C56.5921 159.655 56.4226 159.338 56.2196 159.058L56.6025 158.904ZM55.4736 157.634L55.488 161.084L55.1247 161.085L55.124 160.932L54.1956 160.935L54.1968 161.221L53.8335 161.222L53.8185 157.639L54.2626 157.637C54.329 157.434 54.3752 157.223 54.4012 157.007L54.8254 157.082C54.7724 157.286 54.7127 157.471 54.6461 157.636L55.4736 157.634ZM55.1164 159.099L55.1118 157.998L54.1834 158.001L54.188 159.102L55.1164 159.099ZM54.1895 159.465L54.1941 160.572L55.1225 160.57L55.1179 159.462L54.1895 159.465Z" fill="#292C75"/>
<path d="M58.9173 157.623L60.9156 157.618L60.9129 156.988L61.3099 156.986L61.3125 157.617L63.3511 157.611L63.3526 157.974L61.314 157.979L61.3171 158.718L62.8915 158.714L62.8928 159.038C62.6263 159.65 62.2179 160.135 61.6677 160.493C62.1529 160.695 62.7389 160.853 63.4257 160.966L63.2659 161.386C62.485 161.274 61.8046 161.059 61.2246 160.742C60.5969 161.062 59.8611 161.274 59.0138 161.379L58.9114 161.035C59.705 160.957 60.3569 160.783 60.8671 160.514C60.3813 160.184 59.9756 159.708 59.6501 159.085L59.3271 159.086L59.3256 158.723L60.9202 158.719L60.9171 157.981L58.9189 157.986L58.9173 157.623ZM60.0739 159.084C60.4262 159.656 60.8215 160.062 61.2632 160.303C61.7866 159.983 62.1752 159.575 62.4288 159.078L60.0739 159.084Z" fill="#292C75"/>
<path d="M63.9771 157.78L64.7239 157.778L64.7206 156.976L65.1242 156.975L65.1276 157.777L65.7533 157.775L65.7548 158.138L65.1291 158.139L65.1332 159.126L65.7579 158.876L65.8401 159.22L65.1349 159.527L65.1404 160.845C65.1412 161.036 65.1081 161.17 65.0411 161.246C64.9742 161.323 64.86 161.361 64.6985 161.362C64.4832 161.362 64.2813 161.344 64.0927 161.306L64.0103 160.905C64.2124 160.956 64.421 160.98 64.6363 160.98C64.7036 160.98 64.7369 160.903 64.7363 160.75L64.7318 159.681L64.0667 159.912L63.9237 159.511C64.206 159.434 64.4748 159.351 64.7301 159.261L64.7254 158.141L63.9786 158.143L63.9771 157.78ZM66.1358 157.526L67.0777 157.523L67.0753 156.95L67.479 156.949L67.4814 157.522L68.4301 157.519L68.4315 157.863L67.4829 157.866L67.4853 158.439L68.5954 158.436L68.5969 158.792L65.9191 158.799L65.9176 158.443L67.0816 158.44L67.0792 157.867L66.1372 157.869L66.1358 157.526ZM65.9416 159.353L67.7313 159.348L67.7295 158.928L68.1332 158.927L68.135 159.347L68.6194 159.346L68.6209 159.709L68.1365 159.71L68.1413 160.856C68.142 161.034 68.1038 161.162 68.0285 161.238C67.9565 161.315 67.8069 161.353 67.5782 161.354C67.3898 161.354 67.2215 161.336 67.0733 161.298L66.9909 160.897C67.1795 160.948 67.3747 160.973 67.5766 160.972C67.6842 160.972 67.7378 160.908 67.7372 160.781L67.7328 159.711L65.9431 159.716L65.9416 159.353ZM66.5427 159.905C66.7185 160.109 66.8674 160.331 66.9895 160.573L66.6067 160.745C66.498 160.491 66.3575 160.262 66.1867 160.059L66.5427 159.905Z" fill="#292C75"/>
<path d="M19.0943 68.0669L20.5184 68.6864C20.2268 70.3229 19.8638 71.9592 19.4307 73.5953L19.3641 91.6058L18.0091 91.6013L18.0583 78.2984L17.0508 80.8528L16.3458 78.8031C17.5931 75.3975 18.5106 71.8181 19.0943 68.0669ZM21.232 68.3813L32.4964 68.4186L32.4903 70.0561L26.9302 70.0377L26.7126 70.9572L31.4888 70.973L31.4631 77.9328L32.8895 77.9375L32.8785 80.9051L31.5949 80.9009L31.6002 79.4683L22.1892 79.4372L22.1839 80.8698L20.9003 80.8655L20.9113 77.898L22.0521 77.9017L22.0779 70.9419L25.2862 70.9525L25.5038 70.033L21.226 70.0188L21.232 68.3813ZM23.352 73.5058L30.1971 73.5284L30.2009 72.5038L23.3558 72.4812L23.352 73.5058ZM23.3441 75.6537L30.1891 75.6763L30.1925 74.7561L23.3475 74.7334L23.3441 75.6537ZM23.3357 77.906L30.1808 77.9286L30.1842 77.0064L23.3391 76.9838L23.3357 77.906ZM26.6087 79.7592C27.1774 80.0343 27.6757 80.4098 28.1023 80.8894L27.4556 82.0124C26.9831 81.4663 26.485 81.0206 25.9641 80.6774L26.6087 79.7592ZM30.6002 79.9773C31.311 80.7975 31.9251 81.6856 32.4437 82.6437L31.6556 83.7663C31.1373 82.7418 30.4983 81.7834 29.7415 80.8948L30.6002 79.9773ZM23.8989 80.0558L25.1812 80.06L25.1751 81.6975C25.1743 81.9024 25.2452 82.0393 25.3877 82.108C25.5303 82.1768 25.9346 82.2123 26.5996 82.2145C27.5025 82.2175 28.0975 82.1853 28.382 82.1179C28.5726 82.0503 28.6928 81.7091 28.7427 81.0964L29.953 81.6108C29.9021 82.4987 29.7216 83.0616 29.4114 83.2978C29.1025 83.5358 28.1634 83.6523 26.5943 83.6471L25.3821 83.6431L24.952 84.4613L30.7977 84.4807L30.7916 86.1182C30.2659 87.0708 29.6204 87.8865 28.8578 88.5671C30.1394 89.1178 31.5153 89.5303 32.9883 89.8084L32.3403 91.6487C30.4398 91.1642 28.7315 90.5457 27.2127 89.7893C25.4986 90.7381 23.4523 91.4144 21.0739 91.8164L20.5114 89.8696C22.4607 89.6711 24.1252 89.2668 25.5063 88.6585C24.653 88.1092 23.9179 87.4256 23.3035 86.6038C22.6358 87.353 22.0389 87.8956 21.5155 88.2354L20.7359 86.6978C22.1659 85.7481 23.3111 84.5584 24.1717 83.1268C23.9824 82.8548 23.8898 82.5129 23.8913 82.1031L23.8989 80.0558ZM24.6604 86.0979C25.418 86.7816 26.2712 87.365 27.2199 87.8444C28.0307 87.3708 28.674 86.7923 29.1524 86.1127L24.6604 86.0979ZM22.5408 80.871L23.4641 81.7943C22.889 82.8853 22.1971 83.735 21.3871 84.3471L20.6791 83.1152C21.4418 82.4365 22.0619 81.6872 22.5408 80.871ZM43.1315 84.5214C43.8891 85.5467 44.5263 86.6398 45.0455 87.8009L43.8294 88.8215C43.3578 87.6606 42.7445 86.5656 41.9882 85.5404L43.1315 84.5214ZM48.9056 84.9485C49.8034 86.3157 50.5344 87.7526 51.1 89.2554L49.7408 90.3761C49.2242 88.8735 48.5156 87.4386 47.6178 86.0713L48.9056 84.9485ZM38.9228 85.1204L40.3492 85.1251L40.3348 89.0149C40.334 89.2198 40.4643 89.3891 40.7255 89.5266C40.9854 89.6641 41.7347 89.7348 42.9707 89.7389C44.8717 89.7452 45.9775 89.5781 46.2867 89.2395C46.5973 88.899 46.7549 88.1139 46.7595 86.8863L48.1836 87.5058C48.0816 89.346 47.7799 90.4891 47.2799 90.9296C46.7786 91.3719 45.3394 91.5892 42.9639 91.5813C41.1568 91.5754 40.0285 91.4009 39.579 91.0578C39.1281 90.7167 38.9038 90.2378 38.9061 89.623L38.9228 85.1204ZM36.9263 85.2163L38.1347 86.243C37.4146 88.288 36.6947 89.9231 35.9776 91.1484L34.8421 89.7121C35.7027 88.2823 36.3983 86.7837 36.9263 85.2163ZM35.6305 69.5541L42.2601 69.576L42.2654 68.1435L43.6918 68.1482L43.6865 69.5808L50.4602 69.6031L50.4537 71.3431L43.68 71.3207L43.6751 72.6508L49.0938 72.6687L49.0643 80.6513L48.6359 80.6498C49.487 81.812 50.1964 83.0097 50.7616 84.2393L49.4738 85.3602C49.2395 84.7447 48.9324 84.1308 48.554 83.5147C44.6551 83.98 40.3521 84.3415 35.6449 84.5992L35.4393 82.6536L42.2131 82.2661L42.2192 80.6286L36.8005 80.6107L36.8301 72.6282L42.2487 72.6461L42.2537 71.316L35.6241 71.2941L35.6305 69.5541ZM38.1019 75.8049L42.237 75.8186L42.2423 74.386L38.1072 74.3724L38.1019 75.8049ZM43.6687 74.3908L43.6634 75.8233L47.6557 75.8365L47.661 74.404L43.6687 74.3908ZM38.0906 78.875L42.2256 78.8887L42.2309 77.4561L38.0959 77.4424L38.0906 78.875ZM43.6573 77.4608L43.652 78.8934L47.6443 78.9066L47.6496 77.474L43.6573 77.4608ZM47.5619 81.8739L46.5684 80.643L43.6456 80.6333L43.6399 82.1684C45.0189 82.1046 46.3254 82.0065 47.5619 81.8739ZM53.301 72.4796L55.6541 72.4874L55.67 68.1878L57.095 68.1925L57.0791 72.4921L59.0753 72.4987L59.0681 74.4417L57.0719 74.4351L57.053 79.5525C57.6729 79.213 58.2917 78.8393 58.9119 78.4334L59.1179 80.2746C58.4509 80.8189 57.7603 81.3289 57.0447 81.8028L57.0181 88.9676C57.0144 89.9903 56.8927 90.7071 56.6546 91.1143C56.4151 91.5233 56.0099 91.7269 55.4401 91.725C54.7738 91.7228 54.1569 91.6183 53.5879 91.4115L53.3103 89.2627C53.9266 89.5361 54.5686 89.6748 55.2335 89.677C55.4715 89.6778 55.5919 89.2702 55.595 88.4505L55.6162 82.7203L53.4014 83.9406L52.9096 81.7892L55.6245 80.468L55.6469 74.4304L53.2938 74.4226L53.301 72.4796ZM68.9134 72.8367L68.8433 91.7694L67.4183 91.7646L67.4255 89.8198L60.9373 89.7983L60.9301 91.7432L59.6465 91.739L59.7166 72.8063L63.5661 72.819L63.5832 68.2139L65.0096 68.2187L64.9925 72.8237L68.9134 72.8367ZM60.9722 80.3832L63.5381 80.3917L63.5589 74.7639L60.993 74.7554L60.9722 80.3832ZM64.9853 74.7686L64.9645 80.3964L67.4603 80.4047L67.4811 74.7769L64.9853 74.7686ZM60.9442 87.9559L63.5101 87.9644L63.5313 82.2341L60.9654 82.2256L60.9442 87.9559ZM64.9577 82.2388L64.9365 87.9691L67.4323 87.9774L67.4535 82.2471L64.9577 82.2388ZM82.3362 67.9704L83.5465 68.4849C83.4032 68.621 83.2598 68.7913 83.1163 68.9957L86.6102 69.0073L86.6057 70.2349C85.4069 73.0278 82.7842 75.1348 78.739 76.5541L77.9608 75.0164C81.5769 73.8007 83.9121 72.2051 84.9651 70.2295L81.8281 70.2191C82.1595 70.6984 82.4669 71.2098 82.7491 71.7572L81.5343 72.4705C81.347 71.9917 81.087 71.5127 80.7556 71.0353L79.9695 71.6456C80.2535 72.0564 80.4885 72.5012 80.6771 72.978L79.5336 73.6915C79.2976 73.1443 79.0628 72.6653 78.8263 72.2566C78.6357 72.3243 78.445 72.4261 78.2541 72.5621L77.5476 70.9222C79.7853 69.9733 81.3819 68.99 82.3362 67.9704ZM72.2786 69.0624L73.6336 69.0669L73.6211 72.4443L75.8314 72.4516L75.8469 68.2545L77.1305 68.2587L77.0767 82.7912L75.7931 82.787L75.8109 77.977L74.3131 77.972L74.3094 78.9947C74.3028 80.7688 73.6562 82.2334 72.3683 83.3885L71.5908 81.6479C72.5441 80.8996 73.0219 80.0151 73.0257 78.9905L73.0295 77.9678L71.3189 77.9621L71.3257 76.1197L75.8177 76.1345L75.8249 74.1897L72.2596 74.1779L72.2786 69.0624ZM77.6681 76.9604L83.8707 76.9809L83.8798 74.5237L85.1634 74.5279L85.1543 76.9851L87.5787 76.9931L87.573 78.5282L85.1486 78.5201L85.1425 80.1576C85.139 81.112 85.0176 81.7757 84.7782 82.1507C84.5402 82.5256 84.0398 82.7118 83.2797 82.7092C82.8514 82.7078 82.4709 82.6383 82.1396 82.5006L81.8613 80.5547C82.2888 80.7611 82.6916 80.8649 83.0724 80.8661C83.3579 80.8671 83.5591 80.7994 83.6786 80.6632C83.798 80.527 83.8587 80.2217 83.8604 79.7435L83.865 78.5159L77.6624 78.4954L77.6681 76.9604ZM80.2995 78.9121C80.7247 79.3916 81.1037 79.871 81.4337 80.3484L80.5021 81.6773C80.1726 81.0615 79.7701 80.5137 79.2959 80.0358L80.2995 78.9121ZM79.4874 86.1767L79.1318 86.1755C78.1226 89.1739 75.715 91.0407 71.9089 91.7795L71.275 89.8325C74.5099 89.0937 76.5582 87.8709 77.4198 86.1698L71.36 86.1498L71.3668 84.3074L78.0691 84.3295C78.2604 83.7154 78.4058 83.0005 78.5041 82.1811L80.0011 82.391C79.9034 83.0738 79.782 83.7204 79.637 84.3347L84.9842 84.3524C84.8427 84.0104 84.6773 83.7024 84.4893 83.4286L85.6339 82.4096C86.011 83.0257 86.318 83.6737 86.5534 84.3576L87.5515 84.3609L87.5446 86.2033L81.1279 86.1821C82.3574 87.9584 84.562 89.1269 87.7446 89.682L87.1669 91.8299C83.5563 91.2032 80.9973 89.3201 79.4874 86.1767Z" stroke="#FF5757" stroke-width="0.7"/>
</svg>
