<svg xmlns="http://www.w3.org/2000/svg" xmlns:xlink="http://www.w3.org/1999/xlink" width="147" zoomAndPan="magnify" viewBox="0 0 110.25 185.999995" height="248" preserveAspectRatio="none" version="1.0"><defs><g/><clipPath id="5548b605be"><path d="M 0.109375 1.453125 L 109.503906 1.453125 L 109.503906 184.707031 L 0.109375 184.707031 Z M 0.109375 1.453125 " clip-rule="nonzero"/></clipPath><clipPath id="8735351c12"><path d="M 19.914062 136.976562 L 28.105469 136.976562 L 28.105469 145.167969 L 19.914062 145.167969 Z M 19.914062 136.976562 " clip-rule="nonzero"/></clipPath><clipPath id="1a5c2f421f"><path d="M 19.914062 39.464844 L 28.105469 39.464844 L 28.105469 47.660156 L 19.914062 47.660156 Z M 19.914062 39.464844 " clip-rule="nonzero"/></clipPath><clipPath id="e166e20a09"><path d="M 84.179688 138.839844 L 92.371094 138.839844 L 92.371094 147.035156 L 84.179688 147.035156 Z M 84.179688 138.839844 " clip-rule="nonzero"/></clipPath><clipPath id="7436834c54"><path d="M 84.1875 39.464844 L 92.378906 39.464844 L 92.378906 47.660156 L 84.1875 47.660156 Z M 84.1875 39.464844 " clip-rule="nonzero"/></clipPath></defs><g clip-path="url(#5548b605be)"><path fill="#f0d9d0" d="M 6.894531 1.546875 L 9.351562 5.792969 L 11.808594 1.546875 L 13.902344 1.546875 L 16.359375 5.792969 L 18.816406 1.546875 L 20.90625 1.546875 L 23.367188 5.792969 L 25.824219 1.546875 L 27.914062 1.546875 L 30.371094 5.792969 L 32.832031 1.546875 L 34.921875 1.546875 L 37.378906 5.792969 L 39.835938 1.546875 L 41.929688 1.546875 L 44.386719 5.792969 L 46.84375 1.546875 L 48.933594 1.546875 L 51.394531 5.792969 L 53.851562 1.546875 L 55.941406 1.546875 L 58.398438 5.792969 L 61.003906 1.546875 L 63.097656 1.546875 L 65.554688 5.792969 L 68.011719 1.546875 L 70.101562 1.546875 L 72.5625 5.792969 L 75.019531 1.546875 L 77.109375 1.546875 L 79.566406 5.792969 L 82.023438 1.546875 L 84.117188 1.546875 L 86.574219 5.792969 L 89.03125 1.546875 L 91.125 1.546875 L 93.582031 5.792969 L 96.039062 1.546875 L 98.128906 1.546875 L 100.589844 5.792969 L 103.191406 1.546875 L 105.285156 1.546875 L 107.742188 5.792969 L 109.613281 2.535156 L 109.613281 51.523438 C 109.539062 51.523438 109.503906 51.523438 109.464844 51.523438 C 104.402344 51.523438 100.292969 55.625 100.292969 60.679688 C 100.292969 65.730469 104.402344 69.832031 109.464844 69.832031 C 109.539062 69.832031 109.574219 69.832031 109.613281 69.832031 L 109.613281 184.175781 L 107.742188 180.917969 L 105.613281 184.617188 L 102.863281 184.617188 L 100.734375 180.917969 L 98.570312 184.617188 L 95.820312 184.617188 L 93.691406 180.917969 L 91.5625 184.617188 L 88.8125 184.617188 L 86.683594 180.917969 L 84.519531 184.617188 L 81.769531 184.617188 L 79.640625 180.917969 L 77.511719 184.617188 L 74.761719 184.617188 L 72.632812 180.917969 L 70.46875 184.617188 L 67.71875 184.617188 L 65.589844 180.917969 L 63.425781 184.617188 L 60.675781 184.617188 L 58.546875 180.917969 L 56.417969 184.617188 L 53.667969 184.617188 L 51.539062 180.917969 L 49.375 184.617188 L 46.625 184.617188 L 44.496094 180.917969 L 42.367188 184.617188 L 39.617188 184.617188 L 37.488281 180.917969 L 35.324219 184.617188 L 32.574219 184.617188 L 30.445312 180.917969 L 28.28125 184.617188 L 25.53125 184.617188 L 23.402344 180.917969 L 21.273438 184.617188 L 18.523438 184.617188 L 16.394531 180.917969 L 14.230469 184.617188 L 11.480469 184.617188 L 9.351562 180.917969 L 7.222656 184.617188 L 4.472656 184.617188 L 2.308594 180.917969 L 0.179688 184.617188 L 0.109375 184.617188 L 0.109375 69.867188 C 0.179688 69.867188 0.21875 69.867188 0.289062 69.867188 C 5.351562 69.867188 9.460938 65.769531 9.460938 60.714844 C 9.460938 55.664062 5.351562 51.5625 0.289062 51.5625 C 0.21875 51.5625 0.179688 51.5625 0.109375 51.5625 L 0.109375 1.988281 L 2.308594 5.792969 L 4.765625 1.546875 Z M 6.894531 1.546875 " fill-opacity="1" fill-rule="nonzero"/></g><path stroke-linecap="round" transform="matrix(0.000000000000000046, -0.745366, 0.744932, 0.000000000000000046, 15.504531, 173.033669)" fill="none" stroke-linejoin="miter" d="M 0.501114 0.502562 L 214.379963 0.502562 " stroke="#000000" stroke-width="1" stroke-opacity="1" stroke-miterlimit="4"/><path stroke-linecap="round" transform="matrix(0.000000000000000046, -0.745366, 0.744932, 0.000000000000000046, 93.360318, 173.033669)" fill="none" stroke-linejoin="miter" d="M 0.501114 0.502135 L 214.379963 0.502135 " stroke="#000000" stroke-width="1" stroke-opacity="1" stroke-miterlimit="4"/><path stroke-linecap="round" transform="matrix(0.743384, 0, 0, 0.744932, 15.612425, 172.396634)" fill="none" stroke-linejoin="miter" d="M 0.500348 0.500579 L 104.727103 0.500579 " stroke="#000000" stroke-width="1" stroke-opacity="1" stroke-miterlimit="4"/><path stroke-linecap="round" transform="matrix(0.743384, 0, 0, 0.744932, 15.745634, 12.858426)" fill="none" stroke-linejoin="miter" d="M 0.499814 0.499432 L 104.726569 0.499432 " stroke="#000000" stroke-width="1" stroke-opacity="1" stroke-miterlimit="4"/><path stroke-linecap="round" transform="matrix(0.743384, 0, 0, 0.744932, 15.878843, 148.842105)" fill="none" stroke-linejoin="miter" d="M 0.49928 0.500366 L 104.73129 0.500366 " stroke="#000000" stroke-width="1" stroke-opacity="1" stroke-miterlimit="4"/><path stroke-linecap="round" transform="matrix(0.743384, 0, 0, 0.744932, 15.612425, 36.413001)" fill="none" stroke-linejoin="miter" d="M 0.500348 0.499583 L 104.727103 0.499583 " stroke="#000000" stroke-width="1" stroke-opacity="1" stroke-miterlimit="4"/><g clip-path="url(#8735351c12)"><path fill="#000000" d="M 19.914062 141.074219 C 23.285156 141.472656 23.609375 141.796875 24.011719 145.167969 C 24.011719 145.164062 24.011719 145.15625 24.011719 145.148438 C 24.410156 141.792969 24.738281 141.472656 28.105469 141.074219 C 24.734375 140.671875 24.410156 140.347656 24.011719 136.976562 C 23.609375 140.347656 23.285156 140.671875 19.914062 141.074219 Z M 19.914062 141.074219 " fill-opacity="1" fill-rule="nonzero"/></g><g clip-path="url(#1a5c2f421f)"><path fill="#000000" d="M 19.914062 43.5625 C 23.285156 43.960938 23.609375 44.285156 24.011719 47.660156 C 24.011719 47.652344 24.011719 47.644531 24.011719 47.640625 C 24.410156 44.285156 24.738281 43.960938 28.105469 43.5625 C 24.734375 43.164062 24.410156 42.839844 24.011719 39.464844 C 23.609375 42.839844 23.285156 43.164062 19.914062 43.5625 Z M 19.914062 43.5625 " fill-opacity="1" fill-rule="nonzero"/></g><g clip-path="url(#e166e20a09)"><path fill="#000000" d="M 84.179688 142.9375 C 87.550781 143.335938 87.875 143.660156 88.277344 147.035156 C 88.277344 147.027344 88.277344 147.019531 88.277344 147.015625 L 88.277344 147.011719 C 88.675781 143.660156 89.003906 143.335938 92.371094 142.9375 C 89 142.539062 88.675781 142.214844 88.277344 138.839844 C 87.875 142.214844 87.550781 142.539062 84.179688 142.9375 Z M 84.179688 142.9375 " fill-opacity="1" fill-rule="nonzero"/></g><g clip-path="url(#7436834c54)"><path fill="#000000" d="M 84.1875 43.5625 C 87.558594 43.960938 87.882812 44.285156 88.285156 47.660156 C 88.285156 47.652344 88.285156 47.644531 88.285156 47.640625 C 88.683594 44.285156 89.011719 43.960938 92.378906 43.5625 C 89.007812 43.164062 88.683594 42.839844 88.285156 39.464844 C 87.882812 42.839844 87.558594 43.164062 84.1875 43.5625 Z M 84.1875 43.5625 " fill-opacity="1" fill-rule="nonzero"/></g><g fill="#000000" fill-opacity="1"><g transform="translate(33.855848, 165.383885)"><g><path d="M 4.765625 -0.3125 C 4.765625 -0.28125 4.757812 -0.25 4.75 -0.21875 C 4.738281 -0.195312 4.722656 -0.171875 4.703125 -0.140625 C 4.679688 -0.0859375 4.65625 -0.046875 4.625 -0.015625 C 4.601562 0.015625 4.582031 0.0351562 4.5625 0.046875 C 4.539062 0.0546875 4.515625 0.0625 4.484375 0.0625 C 4.453125 0.0703125 4.421875 0.078125 4.390625 0.078125 L 4.25 0.078125 C 4.226562 0.0859375 4.207031 0.09375 4.1875 0.09375 C 4.15625 0.09375 4.132812 0.0820312 4.125 0.0625 C 4.125 0.0390625 4.125 0.0195312 4.125 0 C 4.125 -0.0195312 4.125 -0.0351562 4.125 -0.046875 C 4.125 -0.0546875 4.125 -0.0664062 4.125 -0.078125 C 4.125 -0.0976562 4.117188 -0.113281 4.109375 -0.125 C 4.109375 -0.144531 4.097656 -0.15625 4.078125 -0.15625 C 4.035156 -0.15625 4 -0.140625 3.96875 -0.109375 C 3.945312 -0.0859375 3.925781 -0.0625 3.90625 -0.03125 C 3.894531 -0.0078125 3.875 0.0078125 3.84375 0.03125 C 3.820312 0.0507812 3.785156 0.0625 3.734375 0.0625 C 3.679688 0.0625 3.628906 0.0507812 3.578125 0.03125 C 3.523438 0.0195312 3.472656 0.015625 3.421875 0.015625 C 3.304688 0.00390625 3.191406 0 3.078125 0 C 2.972656 -0.0078125 2.863281 -0.015625 2.75 -0.015625 C 2.644531 -0.0234375 2.535156 -0.0351562 2.421875 -0.046875 C 2.316406 -0.0546875 2.207031 -0.0703125 2.09375 -0.09375 C 2.070312 -0.101562 2.046875 -0.109375 2.015625 -0.109375 C 1.992188 -0.109375 1.972656 -0.109375 1.953125 -0.109375 C 1.847656 -0.109375 1.738281 -0.0976562 1.625 -0.078125 C 1.519531 -0.0546875 1.398438 -0.046875 1.265625 -0.046875 C 1.179688 -0.046875 1.09375 -0.0351562 1 -0.015625 C 0.90625 0.00390625 0.816406 0.015625 0.734375 0.015625 C 0.691406 0.015625 0.640625 0.0078125 0.578125 0 C 0.523438 -0.0195312 0.472656 -0.046875 0.421875 -0.078125 C 0.367188 -0.109375 0.320312 -0.144531 0.28125 -0.1875 C 0.25 -0.226562 0.234375 -0.273438 0.234375 -0.328125 C 0.234375 -0.359375 0.25 -0.394531 0.28125 -0.4375 C 0.3125 -0.476562 0.347656 -0.515625 0.390625 -0.546875 C 0.441406 -0.585938 0.488281 -0.625 0.53125 -0.65625 C 0.582031 -0.6875 0.625 -0.710938 0.65625 -0.734375 C 0.820312 -0.710938 0.984375 -0.6875 1.140625 -0.65625 C 1.304688 -0.632812 1.472656 -0.625 1.640625 -0.625 C 1.742188 -0.625 1.828125 -0.632812 1.890625 -0.65625 C 1.953125 -0.6875 2 -0.722656 2.03125 -0.765625 C 2.0625 -0.804688 2.082031 -0.859375 2.09375 -0.921875 C 2.101562 -0.984375 2.109375 -1.050781 2.109375 -1.125 C 2.109375 -1.15625 2.109375 -1.191406 2.109375 -1.234375 C 2.109375 -1.273438 2.109375 -1.320312 2.109375 -1.375 C 2.109375 -1.789062 2.117188 -2.207031 2.140625 -2.625 C 2.160156 -3.050781 2.171875 -3.472656 2.171875 -3.890625 C 2.171875 -4.097656 2.164062 -4.304688 2.15625 -4.515625 C 2.144531 -4.722656 2.125 -4.929688 2.09375 -5.140625 C 2.0625 -5.140625 2.023438 -5.144531 1.984375 -5.15625 C 1.953125 -5.164062 1.914062 -5.171875 1.875 -5.171875 C 1.851562 -5.171875 1.84375 -5.171875 1.84375 -5.171875 C 1.832031 -5.179688 1.820312 -5.1875 1.8125 -5.1875 C 1.800781 -5.1875 1.785156 -5.1875 1.765625 -5.1875 C 1.703125 -5.1875 1.640625 -5.175781 1.578125 -5.15625 C 1.523438 -5.144531 1.472656 -5.140625 1.421875 -5.140625 C 1.398438 -5.140625 1.382812 -5.140625 1.375 -5.140625 C 1.363281 -5.148438 1.351562 -5.15625 1.34375 -5.15625 C 1.332031 -5.164062 1.320312 -5.171875 1.3125 -5.171875 C 1.300781 -5.179688 1.285156 -5.1875 1.265625 -5.1875 C 1.179688 -5.1875 1.09375 -5.175781 1 -5.15625 C 0.90625 -5.144531 0.816406 -5.140625 0.734375 -5.140625 C 0.660156 -5.140625 0.59375 -5.144531 0.53125 -5.15625 C 0.46875 -5.175781 0.410156 -5.207031 0.359375 -5.25 C 0.378906 -5.289062 0.390625 -5.34375 0.390625 -5.40625 C 0.390625 -5.445312 0.382812 -5.488281 0.375 -5.53125 C 0.363281 -5.570312 0.359375 -5.613281 0.359375 -5.65625 C 0.378906 -5.644531 0.398438 -5.640625 0.421875 -5.640625 C 0.460938 -5.640625 0.5 -5.648438 0.53125 -5.671875 C 0.570312 -5.691406 0.609375 -5.710938 0.640625 -5.734375 C 0.679688 -5.765625 0.71875 -5.789062 0.75 -5.8125 C 0.789062 -5.832031 0.832031 -5.84375 0.875 -5.84375 C 0.957031 -5.84375 1.035156 -5.828125 1.109375 -5.796875 C 1.191406 -5.773438 1.273438 -5.765625 1.359375 -5.765625 C 1.398438 -5.765625 1.4375 -5.773438 1.46875 -5.796875 C 1.507812 -5.816406 1.539062 -5.828125 1.5625 -5.828125 C 1.59375 -5.828125 1.613281 -5.816406 1.625 -5.796875 C 1.632812 -5.785156 1.65625 -5.78125 1.6875 -5.78125 C 1.726562 -5.78125 1.769531 -5.785156 1.8125 -5.796875 C 1.863281 -5.816406 1.910156 -5.832031 1.953125 -5.84375 C 1.992188 -5.863281 2.035156 -5.878906 2.078125 -5.890625 C 2.128906 -5.910156 2.179688 -5.921875 2.234375 -5.921875 C 2.296875 -5.921875 2.359375 -5.910156 2.421875 -5.890625 C 2.492188 -5.878906 2.5625 -5.875 2.625 -5.875 C 2.664062 -5.875 2.703125 -5.878906 2.734375 -5.890625 C 2.734375 -5.878906 2.734375 -5.859375 2.734375 -5.828125 C 2.734375 -5.785156 2.738281 -5.75 2.75 -5.71875 C 2.757812 -5.6875 2.769531 -5.65625 2.78125 -5.625 C 2.800781 -5.59375 2.816406 -5.550781 2.828125 -5.5 C 2.835938 -5.457031 2.84375 -5.398438 2.84375 -5.328125 C 2.84375 -5.210938 2.84375 -5.09375 2.84375 -4.96875 C 2.851562 -4.851562 2.859375 -4.734375 2.859375 -4.609375 C 2.859375 -4.546875 2.851562 -4.484375 2.84375 -4.421875 C 2.832031 -4.367188 2.816406 -4.316406 2.796875 -4.265625 C 2.816406 -4.242188 2.828125 -4.21875 2.828125 -4.1875 C 2.835938 -4.15625 2.84375 -4.125 2.84375 -4.09375 L 2.84375 -4.03125 C 2.84375 -4 2.847656 -3.96875 2.859375 -3.9375 C 2.867188 -3.90625 2.882812 -3.878906 2.90625 -3.859375 L 2.921875 -3.8125 C 2.921875 -3.78125 2.910156 -3.75 2.890625 -3.71875 C 2.878906 -3.695312 2.867188 -3.671875 2.859375 -3.640625 C 2.847656 -3.617188 2.832031 -3.59375 2.8125 -3.5625 C 2.800781 -3.539062 2.796875 -3.515625 2.796875 -3.484375 C 2.796875 -3.421875 2.804688 -3.359375 2.828125 -3.296875 C 2.847656 -3.234375 2.859375 -3.164062 2.859375 -3.09375 C 2.859375 -3.007812 2.851562 -2.925781 2.84375 -2.84375 C 2.832031 -2.757812 2.816406 -2.671875 2.796875 -2.578125 C 2.785156 -2.492188 2.773438 -2.410156 2.765625 -2.328125 C 2.753906 -2.242188 2.75 -2.15625 2.75 -2.0625 C 2.75 -2.039062 2.742188 -2.023438 2.734375 -2.015625 C 2.734375 -2.003906 2.722656 -2 2.703125 -2 C 2.703125 -2 2.695312 -2 2.6875 -2 C 2.6875 -1.9375 2.691406 -1.867188 2.703125 -1.796875 C 2.710938 -1.722656 2.722656 -1.648438 2.734375 -1.578125 C 2.742188 -1.515625 2.753906 -1.445312 2.765625 -1.375 C 2.773438 -1.300781 2.78125 -1.226562 2.78125 -1.15625 L 2.78125 -1.046875 C 2.78125 -0.898438 2.828125 -0.789062 2.921875 -0.71875 C 3.015625 -0.65625 3.128906 -0.625 3.265625 -0.625 C 3.359375 -0.625 3.425781 -0.628906 3.46875 -0.640625 C 3.519531 -0.660156 3.554688 -0.679688 3.578125 -0.703125 C 3.609375 -0.734375 3.628906 -0.753906 3.640625 -0.765625 C 3.648438 -0.785156 3.671875 -0.796875 3.703125 -0.796875 C 3.773438 -0.796875 3.851562 -0.785156 3.9375 -0.765625 C 4.019531 -0.753906 4.101562 -0.742188 4.1875 -0.734375 C 4.226562 -0.722656 4.269531 -0.71875 4.3125 -0.71875 C 4.351562 -0.71875 4.390625 -0.710938 4.421875 -0.703125 C 4.460938 -0.703125 4.5 -0.691406 4.53125 -0.671875 C 4.5625 -0.660156 4.59375 -0.632812 4.625 -0.59375 C 4.644531 -0.550781 4.671875 -0.503906 4.703125 -0.453125 C 4.742188 -0.410156 4.765625 -0.363281 4.765625 -0.3125 Z M 4.765625 -0.3125 "/></g></g></g><g fill="#000000" fill-opacity="1"><g transform="translate(39.872653, 165.383885)"><g><path d="M 4.65625 -2.453125 C 4.65625 -2.421875 4.644531 -2.394531 4.625 -2.375 C 4.613281 -2.363281 4.597656 -2.359375 4.578125 -2.359375 C 4.546875 -2.359375 4.515625 -2.363281 4.484375 -2.375 C 4.460938 -2.382812 4.441406 -2.390625 4.421875 -2.390625 C 4.410156 -2.378906 4.398438 -2.367188 4.390625 -2.359375 C 4.390625 -2.359375 4.390625 -2.351562 4.390625 -2.34375 C 4.390625 -2.320312 4.394531 -2.3125 4.40625 -2.3125 C 4.425781 -2.3125 4.441406 -2.304688 4.453125 -2.296875 C 4.472656 -2.296875 4.488281 -2.289062 4.5 -2.28125 C 4.519531 -2.28125 4.53125 -2.265625 4.53125 -2.234375 C 4.53125 -2.203125 4.523438 -2.15625 4.515625 -2.09375 C 4.515625 -2.03125 4.503906 -1.960938 4.484375 -1.890625 C 4.472656 -1.828125 4.457031 -1.765625 4.4375 -1.703125 C 4.414062 -1.648438 4.398438 -1.613281 4.390625 -1.59375 C 4.359375 -1.570312 4.335938 -1.546875 4.328125 -1.515625 C 4.316406 -1.492188 4.3125 -1.46875 4.3125 -1.4375 L 4.3125 -1.328125 C 4.3125 -1.285156 4.304688 -1.25 4.296875 -1.21875 C 4.285156 -1.195312 4.269531 -1.175781 4.25 -1.15625 C 4.226562 -1.132812 4.210938 -1.113281 4.203125 -1.09375 C 4.191406 -1.070312 4.1875 -1.050781 4.1875 -1.03125 C 4.1875 -1.019531 4.1875 -1.007812 4.1875 -1 C 4.144531 -1.007812 4.109375 -1.019531 4.078125 -1.03125 C 4.046875 -1.039062 4.007812 -1.046875 3.96875 -1.046875 C 3.925781 -1.046875 3.890625 -1.035156 3.859375 -1.015625 C 3.828125 -1.003906 3.800781 -0.976562 3.78125 -0.9375 C 3.78125 -0.925781 3.78125 -0.910156 3.78125 -0.890625 C 3.789062 -0.878906 3.804688 -0.875 3.828125 -0.875 C 3.847656 -0.875 3.867188 -0.882812 3.890625 -0.90625 C 3.910156 -0.925781 3.9375 -0.9375 3.96875 -0.9375 C 3.988281 -0.9375 4 -0.925781 4 -0.90625 C 4.007812 -0.894531 4.015625 -0.878906 4.015625 -0.859375 C 4.015625 -0.828125 4.007812 -0.796875 4 -0.765625 C 3.988281 -0.742188 3.960938 -0.734375 3.921875 -0.734375 C 3.898438 -0.734375 3.875 -0.734375 3.84375 -0.734375 C 3.820312 -0.742188 3.800781 -0.75 3.78125 -0.75 L 3.75 -0.734375 C 3.757812 -0.679688 3.789062 -0.65625 3.84375 -0.65625 C 3.769531 -0.582031 3.691406 -0.503906 3.609375 -0.421875 C 3.523438 -0.347656 3.429688 -0.28125 3.328125 -0.21875 C 3.234375 -0.15625 3.132812 -0.101562 3.03125 -0.0625 C 2.925781 -0.03125 2.820312 -0.015625 2.71875 -0.015625 C 2.65625 -0.015625 2.566406 -0.0195312 2.453125 -0.03125 C 2.347656 -0.0507812 2.234375 -0.078125 2.109375 -0.109375 C 1.992188 -0.140625 1.878906 -0.171875 1.765625 -0.203125 C 1.660156 -0.242188 1.582031 -0.28125 1.53125 -0.3125 C 1.488281 -0.34375 1.46875 -0.363281 1.46875 -0.375 C 1.46875 -0.394531 1.460938 -0.410156 1.453125 -0.421875 C 1.453125 -0.429688 1.445312 -0.441406 1.4375 -0.453125 C 1.425781 -0.460938 1.394531 -0.476562 1.34375 -0.5 C 1.226562 -0.53125 1.144531 -0.566406 1.09375 -0.609375 C 1.039062 -0.660156 1.003906 -0.707031 0.984375 -0.75 C 0.960938 -0.800781 0.945312 -0.847656 0.9375 -0.890625 C 0.9375 -0.941406 0.921875 -0.988281 0.890625 -1.03125 C 0.867188 -1.0625 0.84375 -1.09375 0.8125 -1.125 C 0.789062 -1.15625 0.765625 -1.191406 0.734375 -1.234375 C 0.710938 -1.273438 0.691406 -1.3125 0.671875 -1.34375 C 0.660156 -1.382812 0.65625 -1.425781 0.65625 -1.46875 C 0.65625 -1.507812 0.664062 -1.535156 0.6875 -1.546875 C 0.71875 -1.566406 0.734375 -1.59375 0.734375 -1.625 C 0.734375 -1.632812 0.726562 -1.640625 0.71875 -1.640625 C 0.71875 -1.648438 0.710938 -1.660156 0.703125 -1.671875 C 0.671875 -1.703125 0.644531 -1.726562 0.625 -1.75 C 0.613281 -1.78125 0.601562 -1.804688 0.59375 -1.828125 C 0.582031 -1.859375 0.570312 -1.890625 0.5625 -1.921875 C 0.550781 -1.953125 0.546875 -1.988281 0.546875 -2.03125 C 0.535156 -2.113281 0.515625 -2.195312 0.484375 -2.28125 C 0.460938 -2.375 0.453125 -2.460938 0.453125 -2.546875 C 0.453125 -2.609375 0.453125 -2.671875 0.453125 -2.734375 C 0.460938 -2.804688 0.46875 -2.878906 0.46875 -2.953125 C 0.46875 -3.015625 0.472656 -3.078125 0.484375 -3.140625 C 0.503906 -3.203125 0.515625 -3.257812 0.515625 -3.3125 C 0.515625 -3.363281 0.507812 -3.40625 0.5 -3.4375 C 0.488281 -3.476562 0.484375 -3.523438 0.484375 -3.578125 C 0.484375 -3.671875 0.5 -3.765625 0.53125 -3.859375 C 0.5625 -3.960938 0.59375 -4.0625 0.625 -4.15625 C 0.65625 -4.25 0.6875 -4.34375 0.71875 -4.4375 C 0.75 -4.539062 0.765625 -4.644531 0.765625 -4.75 C 0.765625 -4.769531 0.757812 -4.796875 0.75 -4.828125 C 0.75 -4.859375 0.75 -4.882812 0.75 -4.90625 C 0.75 -4.957031 0.757812 -4.988281 0.78125 -5 C 0.800781 -5.019531 0.820312 -5.03125 0.84375 -5.03125 C 0.863281 -5.039062 0.882812 -5.046875 0.90625 -5.046875 C 0.925781 -5.054688 0.9375 -5.078125 0.9375 -5.109375 C 0.9375 -5.128906 0.9375 -5.148438 0.9375 -5.171875 C 0.9375 -5.191406 0.9375 -5.207031 0.9375 -5.21875 C 0.9375 -5.25 0.945312 -5.273438 0.96875 -5.296875 C 1 -5.316406 1.03125 -5.34375 1.0625 -5.375 C 1.101562 -5.40625 1.140625 -5.4375 1.171875 -5.46875 C 1.210938 -5.5 1.238281 -5.535156 1.25 -5.578125 C 1.257812 -5.609375 1.28125 -5.628906 1.3125 -5.640625 C 1.34375 -5.648438 1.375 -5.65625 1.40625 -5.65625 C 1.4375 -5.664062 1.460938 -5.675781 1.484375 -5.6875 C 1.515625 -5.695312 1.53125 -5.71875 1.53125 -5.75 C 1.53125 -5.769531 1.523438 -5.789062 1.515625 -5.8125 C 1.554688 -5.789062 1.597656 -5.773438 1.640625 -5.765625 C 1.691406 -5.765625 1.738281 -5.765625 1.78125 -5.765625 C 1.84375 -5.765625 1.890625 -5.769531 1.921875 -5.78125 C 1.960938 -5.800781 2 -5.820312 2.03125 -5.84375 C 2.070312 -5.863281 2.109375 -5.878906 2.140625 -5.890625 C 2.179688 -5.910156 2.226562 -5.921875 2.28125 -5.921875 C 2.351562 -5.921875 2.421875 -5.929688 2.484375 -5.953125 C 2.546875 -5.984375 2.613281 -6 2.6875 -6 C 2.71875 -6 2.773438 -5.988281 2.859375 -5.96875 C 2.953125 -5.945312 3.039062 -5.921875 3.125 -5.890625 C 3.21875 -5.859375 3.300781 -5.820312 3.375 -5.78125 C 3.445312 -5.75 3.484375 -5.71875 3.484375 -5.6875 C 3.503906 -5.695312 3.519531 -5.703125 3.53125 -5.703125 C 3.550781 -5.703125 3.570312 -5.703125 3.59375 -5.703125 C 3.632812 -5.703125 3.671875 -5.695312 3.703125 -5.6875 C 3.742188 -5.675781 3.78125 -5.660156 3.8125 -5.640625 C 3.84375 -5.628906 3.875 -5.613281 3.90625 -5.59375 C 3.9375 -5.570312 3.972656 -5.546875 4.015625 -5.515625 L 4.015625 -5.484375 C 4.015625 -5.441406 4.003906 -5.40625 3.984375 -5.375 C 3.972656 -5.34375 3.960938 -5.3125 3.953125 -5.28125 C 3.960938 -5.257812 3.976562 -5.242188 4 -5.234375 C 4.019531 -5.222656 4.039062 -5.210938 4.0625 -5.203125 C 4.082031 -5.191406 4.101562 -5.175781 4.125 -5.15625 C 4.144531 -5.144531 4.15625 -5.125 4.15625 -5.09375 C 4.15625 -5.0625 4.160156 -5.035156 4.171875 -5.015625 C 4.179688 -5.003906 4.207031 -5 4.25 -5 L 4.234375 -4.90625 L 4.234375 -4.875 C 4.234375 -4.78125 4.25 -4.695312 4.28125 -4.625 C 4.3125 -4.5625 4.347656 -4.5 4.390625 -4.4375 C 4.429688 -4.382812 4.46875 -4.332031 4.5 -4.28125 C 4.53125 -4.238281 4.546875 -4.1875 4.546875 -4.125 C 4.546875 -4.070312 4.53125 -4.019531 4.5 -3.96875 C 4.476562 -3.925781 4.46875 -3.882812 4.46875 -3.84375 C 4.46875 -3.820312 4.476562 -3.796875 4.5 -3.765625 C 4.519531 -3.742188 4.539062 -3.710938 4.5625 -3.671875 C 4.582031 -3.628906 4.597656 -3.585938 4.609375 -3.546875 C 4.628906 -3.503906 4.640625 -3.457031 4.640625 -3.40625 C 4.640625 -3.3125 4.601562 -3.242188 4.53125 -3.203125 C 4.53125 -3.179688 4.53125 -3.164062 4.53125 -3.15625 C 4.53125 -3.132812 4.535156 -3.113281 4.546875 -3.09375 C 4.554688 -3.082031 4.566406 -3.070312 4.578125 -3.0625 C 4.597656 -3.050781 4.613281 -3.035156 4.625 -3.015625 C 4.644531 -3.003906 4.65625 -2.984375 4.65625 -2.953125 C 4.65625 -2.921875 4.644531 -2.890625 4.625 -2.859375 C 4.613281 -2.835938 4.601562 -2.816406 4.59375 -2.796875 C 4.582031 -2.773438 4.566406 -2.753906 4.546875 -2.734375 C 4.535156 -2.722656 4.53125 -2.707031 4.53125 -2.6875 C 4.53125 -2.664062 4.535156 -2.644531 4.546875 -2.625 C 4.566406 -2.601562 4.582031 -2.582031 4.59375 -2.5625 C 4.613281 -2.550781 4.628906 -2.535156 4.640625 -2.515625 C 4.648438 -2.492188 4.65625 -2.472656 4.65625 -2.453125 Z M 4.546875 -3.34375 C 4.546875 -3.375 4.53125 -3.394531 4.5 -3.40625 C 4.476562 -3.414062 4.457031 -3.421875 4.4375 -3.421875 C 4.382812 -3.421875 4.359375 -3.394531 4.359375 -3.34375 C 4.359375 -3.320312 4.367188 -3.304688 4.390625 -3.296875 C 4.410156 -3.285156 4.429688 -3.28125 4.453125 -3.28125 C 4.472656 -3.28125 4.492188 -3.285156 4.515625 -3.296875 C 4.535156 -3.304688 4.546875 -3.320312 4.546875 -3.34375 Z M 4.09375 -2.96875 C 4.09375 -3.019531 4.082031 -3.066406 4.0625 -3.109375 C 4.039062 -3.160156 4.03125 -3.21875 4.03125 -3.28125 C 4.03125 -3.332031 4.03125 -3.390625 4.03125 -3.453125 C 4.039062 -3.515625 4.046875 -3.578125 4.046875 -3.640625 C 4.046875 -3.679688 4.050781 -3.71875 4.0625 -3.75 C 4.070312 -3.789062 4.078125 -3.832031 4.078125 -3.875 C 4.078125 -3.914062 4.0625 -3.972656 4.03125 -4.046875 C 4.007812 -4.117188 3.984375 -4.191406 3.953125 -4.265625 C 3.921875 -4.347656 3.882812 -4.425781 3.84375 -4.5 C 3.8125 -4.570312 3.785156 -4.632812 3.765625 -4.6875 C 3.753906 -4.6875 3.742188 -4.691406 3.734375 -4.703125 C 3.734375 -4.722656 3.726562 -4.738281 3.71875 -4.75 C 3.71875 -4.769531 3.710938 -4.785156 3.703125 -4.796875 C 3.703125 -4.804688 3.695312 -4.8125 3.6875 -4.8125 C 3.6875 -4.8125 3.679688 -4.8125 3.671875 -4.8125 C 3.660156 -4.8125 3.628906 -4.828125 3.578125 -4.859375 C 3.535156 -4.890625 3.488281 -4.929688 3.4375 -4.984375 C 3.394531 -5.046875 3.351562 -5.101562 3.3125 -5.15625 C 3.269531 -5.21875 3.25 -5.269531 3.25 -5.3125 C 3.25 -5.332031 3.25 -5.34375 3.25 -5.34375 C 3.21875 -5.34375 3.175781 -5.347656 3.125 -5.359375 C 3.070312 -5.367188 3.019531 -5.382812 2.96875 -5.40625 C 2.914062 -5.425781 2.863281 -5.445312 2.8125 -5.46875 C 2.769531 -5.5 2.742188 -5.535156 2.734375 -5.578125 C 2.671875 -5.566406 2.601562 -5.550781 2.53125 -5.53125 C 2.46875 -5.507812 2.40625 -5.488281 2.34375 -5.46875 C 2.28125 -5.445312 2.21875 -5.425781 2.15625 -5.40625 C 2.09375 -5.394531 2.023438 -5.390625 1.953125 -5.390625 C 1.941406 -5.390625 1.925781 -5.390625 1.90625 -5.390625 C 1.894531 -5.398438 1.878906 -5.40625 1.859375 -5.40625 C 1.867188 -5.382812 1.875 -5.363281 1.875 -5.34375 C 1.875 -5.320312 1.863281 -5.304688 1.84375 -5.296875 C 1.820312 -5.285156 1.796875 -5.28125 1.765625 -5.28125 C 1.742188 -5.28125 1.722656 -5.28125 1.703125 -5.28125 C 1.691406 -5.289062 1.675781 -5.296875 1.65625 -5.296875 L 1.640625 -5.28125 L 1.640625 -5.234375 C 1.640625 -5.203125 1.628906 -5.175781 1.609375 -5.15625 C 1.585938 -5.132812 1.566406 -5.113281 1.546875 -5.09375 C 1.523438 -5.082031 1.5 -5.066406 1.46875 -5.046875 C 1.445312 -5.035156 1.425781 -5.019531 1.40625 -5 C 1.4375 -4.988281 1.453125 -4.96875 1.453125 -4.9375 C 1.453125 -4.894531 1.429688 -4.835938 1.390625 -4.765625 C 1.359375 -4.703125 1.320312 -4.625 1.28125 -4.53125 C 1.238281 -4.445312 1.195312 -4.351562 1.15625 -4.25 C 1.125 -4.15625 1.109375 -4.054688 1.109375 -3.953125 C 1.109375 -3.941406 1.097656 -3.929688 1.078125 -3.921875 C 1.066406 -3.910156 1.050781 -3.90625 1.03125 -3.90625 C 1.007812 -3.90625 0.988281 -3.910156 0.96875 -3.921875 C 0.945312 -3.929688 0.925781 -3.9375 0.90625 -3.9375 C 0.875 -3.9375 0.859375 -3.925781 0.859375 -3.90625 C 0.859375 -3.882812 0.867188 -3.859375 0.890625 -3.828125 C 0.910156 -3.804688 0.929688 -3.785156 0.953125 -3.765625 C 0.972656 -3.742188 0.992188 -3.71875 1.015625 -3.6875 C 1.035156 -3.65625 1.046875 -3.625 1.046875 -3.59375 C 1.046875 -3.5 1.035156 -3.429688 1.015625 -3.390625 C 0.992188 -3.359375 0.972656 -3.332031 0.953125 -3.3125 C 0.929688 -3.289062 0.910156 -3.269531 0.890625 -3.25 C 0.878906 -3.226562 0.875 -3.179688 0.875 -3.109375 C 0.875 -3.097656 0.875 -3.082031 0.875 -3.0625 C 0.875 -3.050781 0.875 -3.039062 0.875 -3.03125 C 0.84375 -2.976562 0.804688 -2.9375 0.765625 -2.90625 C 0.804688 -2.894531 0.835938 -2.875 0.859375 -2.84375 C 0.890625 -2.8125 0.910156 -2.78125 0.921875 -2.75 C 0.941406 -2.71875 0.957031 -2.679688 0.96875 -2.640625 C 0.976562 -2.609375 0.984375 -2.582031 0.984375 -2.5625 C 0.984375 -2.476562 0.988281 -2.394531 1 -2.3125 C 1.019531 -2.238281 1.03125 -2.160156 1.03125 -2.078125 C 1.03125 -2.003906 1.019531 -1.953125 1 -1.921875 C 0.988281 -1.890625 0.972656 -1.867188 0.953125 -1.859375 C 0.941406 -1.859375 0.929688 -1.859375 0.921875 -1.859375 C 0.910156 -1.859375 0.90625 -1.851562 0.90625 -1.84375 C 0.90625 -1.820312 0.910156 -1.8125 0.921875 -1.8125 C 0.941406 -1.8125 0.960938 -1.816406 0.984375 -1.828125 C 1.015625 -1.835938 1.039062 -1.847656 1.0625 -1.859375 C 1.0625 -1.835938 1.0625 -1.804688 1.0625 -1.765625 C 1.0625 -1.734375 1.0625 -1.695312 1.0625 -1.65625 C 1.0625 -1.613281 1.066406 -1.578125 1.078125 -1.546875 C 1.085938 -1.515625 1.109375 -1.492188 1.140625 -1.484375 C 1.179688 -1.472656 1.207031 -1.457031 1.21875 -1.4375 C 1.238281 -1.425781 1.253906 -1.40625 1.265625 -1.375 C 1.273438 -1.351562 1.285156 -1.328125 1.296875 -1.296875 C 1.304688 -1.273438 1.328125 -1.253906 1.359375 -1.234375 C 1.398438 -1.210938 1.4375 -1.179688 1.46875 -1.140625 C 1.507812 -1.109375 1.550781 -1.078125 1.59375 -1.046875 C 1.632812 -1.015625 1.675781 -0.984375 1.71875 -0.953125 C 1.769531 -0.929688 1.820312 -0.921875 1.875 -0.921875 C 1.96875 -0.910156 2.0625 -0.894531 2.15625 -0.875 C 2.257812 -0.863281 2.359375 -0.847656 2.453125 -0.828125 C 2.484375 -0.816406 2.519531 -0.8125 2.5625 -0.8125 C 2.625 -0.8125 2.679688 -0.816406 2.734375 -0.828125 C 2.785156 -0.847656 2.835938 -0.863281 2.890625 -0.875 C 2.941406 -0.894531 2.992188 -0.910156 3.046875 -0.921875 C 3.097656 -0.941406 3.15625 -0.953125 3.21875 -0.953125 C 3.25 -0.953125 3.28125 -0.945312 3.3125 -0.9375 C 3.3125 -0.945312 3.3125 -0.957031 3.3125 -0.96875 C 3.3125 -1 3.328125 -1.035156 3.359375 -1.078125 C 3.390625 -1.128906 3.425781 -1.175781 3.46875 -1.21875 C 3.507812 -1.269531 3.550781 -1.3125 3.59375 -1.34375 C 3.644531 -1.375 3.6875 -1.394531 3.71875 -1.40625 C 3.707031 -1.414062 3.703125 -1.425781 3.703125 -1.4375 C 3.703125 -1.457031 3.703125 -1.476562 3.703125 -1.5 C 3.703125 -1.539062 3.707031 -1.582031 3.71875 -1.625 C 3.738281 -1.675781 3.769531 -1.710938 3.8125 -1.734375 C 3.820312 -1.742188 3.832031 -1.757812 3.84375 -1.78125 C 3.863281 -1.8125 3.875 -1.84375 3.875 -1.875 C 3.882812 -1.914062 3.890625 -1.957031 3.890625 -2 C 3.898438 -2.039062 3.90625 -2.082031 3.90625 -2.125 C 3.90625 -2.164062 3.898438 -2.207031 3.890625 -2.25 C 3.890625 -2.289062 3.890625 -2.320312 3.890625 -2.34375 L 3.890625 -2.390625 C 3.929688 -2.421875 3.957031 -2.460938 3.96875 -2.515625 C 3.988281 -2.566406 4.003906 -2.617188 4.015625 -2.671875 C 4.023438 -2.722656 4.03125 -2.765625 4.03125 -2.796875 C 4.03125 -2.835938 4.035156 -2.863281 4.046875 -2.875 C 4.078125 -2.90625 4.09375 -2.9375 4.09375 -2.96875 Z M 3.390625 -0.65625 L 3.359375 -0.65625 C 3.304688 -0.65625 3.265625 -0.632812 3.234375 -0.59375 C 3.203125 -0.5625 3.171875 -0.519531 3.140625 -0.46875 C 3.148438 -0.5 3.171875 -0.515625 3.203125 -0.515625 C 3.203125 -0.503906 3.191406 -0.492188 3.171875 -0.484375 C 3.160156 -0.472656 3.148438 -0.46875 3.140625 -0.46875 C 3.171875 -0.46875 3.203125 -0.46875 3.234375 -0.46875 C 3.273438 -0.46875 3.3125 -0.46875 3.34375 -0.46875 C 3.363281 -0.46875 3.378906 -0.472656 3.390625 -0.484375 C 3.410156 -0.492188 3.421875 -0.507812 3.421875 -0.53125 C 3.429688 -0.550781 3.4375 -0.570312 3.4375 -0.59375 C 3.4375 -0.613281 3.4375 -0.632812 3.4375 -0.65625 Z M 3.390625 -0.65625 "/></g></g></g><g fill="#000000" fill-opacity="1"><g transform="translate(46.231346, 165.383885)"><g><path d="M 5.34375 -6.859375 C 5.34375 -6.804688 5.332031 -6.765625 5.3125 -6.734375 C 5.289062 -6.703125 5.28125 -6.664062 5.28125 -6.625 C 5.28125 -6.601562 5.28125 -6.585938 5.28125 -6.578125 C 5.25 -6.523438 5.210938 -6.472656 5.171875 -6.421875 C 5.128906 -6.378906 5.085938 -6.332031 5.046875 -6.28125 C 5.003906 -6.226562 4.960938 -6.175781 4.921875 -6.125 C 4.890625 -6.070312 4.859375 -6.015625 4.828125 -5.953125 C 4.796875 -5.921875 4.765625 -5.882812 4.734375 -5.84375 C 4.703125 -5.8125 4.671875 -5.773438 4.640625 -5.734375 C 4.617188 -5.703125 4.59375 -5.664062 4.5625 -5.625 C 4.539062 -5.59375 4.507812 -5.5625 4.46875 -5.53125 C 4.457031 -5.46875 4.445312 -5.410156 4.4375 -5.359375 C 4.425781 -5.316406 4.410156 -5.273438 4.390625 -5.234375 C 4.367188 -5.203125 4.34375 -5.164062 4.3125 -5.125 C 4.289062 -5.082031 4.257812 -5.039062 4.21875 -5 C 4.144531 -4.925781 4.085938 -4.847656 4.046875 -4.765625 C 4.003906 -4.679688 3.960938 -4.59375 3.921875 -4.5 C 3.890625 -4.414062 3.847656 -4.332031 3.796875 -4.25 C 3.753906 -4.164062 3.695312 -4.085938 3.625 -4.015625 C 3.570312 -3.972656 3.53125 -3.925781 3.5 -3.875 C 3.476562 -3.832031 3.457031 -3.789062 3.4375 -3.75 C 3.425781 -3.707031 3.414062 -3.671875 3.40625 -3.640625 C 3.394531 -3.609375 3.367188 -3.582031 3.328125 -3.5625 C 3.316406 -3.5 3.296875 -3.4375 3.265625 -3.375 C 3.234375 -3.320312 3.195312 -3.269531 3.15625 -3.21875 C 3.164062 -3.207031 3.171875 -3.191406 3.171875 -3.171875 C 3.171875 -3.140625 3.164062 -3.109375 3.15625 -3.078125 C 3.144531 -3.054688 3.132812 -3.035156 3.125 -3.015625 C 3.113281 -2.992188 3.101562 -2.96875 3.09375 -2.9375 C 3.082031 -2.914062 3.078125 -2.890625 3.078125 -2.859375 C 3.078125 -2.835938 3.078125 -2.816406 3.078125 -2.796875 C 3.085938 -2.773438 3.09375 -2.753906 3.09375 -2.734375 C 3.09375 -2.660156 3.0625 -2.597656 3 -2.546875 C 2.945312 -2.492188 2.894531 -2.445312 2.84375 -2.40625 C 2.769531 -2.351562 2.710938 -2.300781 2.671875 -2.25 C 2.640625 -2.195312 2.609375 -2.144531 2.578125 -2.09375 C 2.554688 -2.039062 2.535156 -1.984375 2.515625 -1.921875 C 2.492188 -1.867188 2.460938 -1.8125 2.421875 -1.75 C 2.398438 -1.71875 2.378906 -1.6875 2.359375 -1.65625 C 2.335938 -1.632812 2.320312 -1.609375 2.3125 -1.578125 C 2.269531 -1.503906 2.234375 -1.429688 2.203125 -1.359375 C 2.179688 -1.285156 2.144531 -1.21875 2.09375 -1.15625 L 2.09375 -1.125 C 2.09375 -1.101562 2.085938 -1.082031 2.078125 -1.0625 C 2.066406 -1.039062 2.054688 -1.023438 2.046875 -1.015625 C 2.035156 -1.003906 2.023438 -0.988281 2.015625 -0.96875 C 2.003906 -0.957031 2 -0.941406 2 -0.921875 L 2 -0.875 C 1.988281 -0.84375 1.976562 -0.816406 1.96875 -0.796875 C 1.96875 -0.785156 1.960938 -0.773438 1.953125 -0.765625 C 1.953125 -0.753906 1.945312 -0.742188 1.9375 -0.734375 C 1.925781 -0.722656 1.914062 -0.703125 1.90625 -0.671875 C 1.875 -0.640625 1.851562 -0.601562 1.84375 -0.5625 C 1.832031 -0.53125 1.820312 -0.5 1.8125 -0.46875 C 1.78125 -0.40625 1.742188 -0.351562 1.703125 -0.3125 C 1.671875 -0.269531 1.640625 -0.226562 1.609375 -0.1875 C 1.578125 -0.15625 1.550781 -0.113281 1.53125 -0.0625 C 1.519531 -0.0195312 1.515625 0.0390625 1.515625 0.125 L 1.515625 0.15625 C 1.492188 0.175781 1.460938 0.210938 1.421875 0.265625 C 1.390625 0.328125 1.359375 0.390625 1.328125 0.453125 C 1.296875 0.523438 1.257812 0.601562 1.21875 0.6875 C 1.1875 0.769531 1.15625 0.847656 1.125 0.921875 C 1.101562 1.003906 1.082031 1.078125 1.0625 1.140625 C 1.039062 1.203125 1.03125 1.253906 1.03125 1.296875 C 0.96875 1.347656 0.90625 1.398438 0.84375 1.453125 C 0.789062 1.515625 0.722656 1.546875 0.640625 1.546875 C 0.609375 1.546875 0.582031 1.539062 0.5625 1.53125 C 0.539062 1.53125 0.515625 1.53125 0.484375 1.53125 C 0.472656 1.507812 0.453125 1.484375 0.421875 1.453125 C 0.398438 1.429688 0.375 1.40625 0.34375 1.375 C 0.320312 1.351562 0.300781 1.328125 0.28125 1.296875 C 0.269531 1.273438 0.265625 1.242188 0.265625 1.203125 C 0.265625 1.179688 0.269531 1.160156 0.28125 1.140625 C 0.289062 1.117188 0.296875 1.097656 0.296875 1.078125 C 0.304688 1.066406 0.316406 1.050781 0.328125 1.03125 C 0.335938 1.019531 0.34375 1.003906 0.34375 0.984375 L 0.34375 0.953125 C 0.363281 0.910156 0.390625 0.863281 0.421875 0.8125 C 0.460938 0.769531 0.5 0.722656 0.53125 0.671875 C 0.5625 0.628906 0.585938 0.582031 0.609375 0.53125 C 0.640625 0.476562 0.65625 0.421875 0.65625 0.359375 C 0.695312 0.328125 0.738281 0.285156 0.78125 0.234375 C 0.820312 0.179688 0.863281 0.140625 0.90625 0.109375 C 0.914062 0.0546875 0.929688 0.015625 0.953125 -0.015625 C 0.984375 -0.0546875 1.015625 -0.0976562 1.046875 -0.140625 C 1.097656 -0.210938 1.140625 -0.289062 1.171875 -0.375 C 1.203125 -0.46875 1.234375 -0.554688 1.265625 -0.640625 C 1.296875 -0.722656 1.328125 -0.804688 1.359375 -0.890625 C 1.398438 -0.984375 1.453125 -1.070312 1.515625 -1.15625 C 1.535156 -1.1875 1.546875 -1.210938 1.546875 -1.234375 C 1.554688 -1.253906 1.5625 -1.269531 1.5625 -1.28125 C 1.570312 -1.300781 1.585938 -1.320312 1.609375 -1.34375 C 1.628906 -1.363281 1.660156 -1.390625 1.703125 -1.421875 C 1.710938 -1.484375 1.726562 -1.539062 1.75 -1.59375 C 1.78125 -1.644531 1.8125 -1.695312 1.84375 -1.75 C 1.882812 -1.800781 1.921875 -1.847656 1.953125 -1.890625 C 1.992188 -1.941406 2.023438 -1.992188 2.046875 -2.046875 C 2.078125 -2.117188 2.101562 -2.195312 2.125 -2.28125 C 2.15625 -2.375 2.195312 -2.445312 2.25 -2.5 C 2.269531 -2.53125 2.285156 -2.550781 2.296875 -2.5625 C 2.316406 -2.582031 2.332031 -2.597656 2.34375 -2.609375 C 2.363281 -2.628906 2.375 -2.648438 2.375 -2.671875 C 2.382812 -2.703125 2.394531 -2.734375 2.40625 -2.765625 C 2.414062 -2.816406 2.425781 -2.859375 2.4375 -2.890625 C 2.445312 -2.921875 2.457031 -2.953125 2.46875 -2.984375 C 2.488281 -3.015625 2.507812 -3.039062 2.53125 -3.0625 C 2.550781 -3.082031 2.578125 -3.109375 2.609375 -3.140625 C 2.671875 -3.203125 2.710938 -3.25 2.734375 -3.28125 C 2.753906 -3.320312 2.769531 -3.359375 2.78125 -3.390625 C 2.789062 -3.421875 2.804688 -3.457031 2.828125 -3.5 C 2.847656 -3.539062 2.894531 -3.59375 2.96875 -3.65625 C 2.988281 -3.6875 3.003906 -3.710938 3.015625 -3.734375 C 3.035156 -3.765625 3.046875 -3.796875 3.046875 -3.828125 C 3.054688 -3.859375 3.066406 -3.890625 3.078125 -3.921875 C 3.085938 -3.960938 3.097656 -3.992188 3.109375 -4.015625 C 3.140625 -4.078125 3.175781 -4.144531 3.21875 -4.21875 C 3.257812 -4.300781 3.300781 -4.378906 3.34375 -4.453125 C 3.382812 -4.535156 3.421875 -4.601562 3.453125 -4.65625 C 3.484375 -4.71875 3.5 -4.753906 3.5 -4.765625 C 3.5 -4.785156 3.5 -4.800781 3.5 -4.8125 C 3.539062 -4.875 3.582031 -4.929688 3.625 -4.984375 C 3.675781 -5.035156 3.71875 -5.09375 3.75 -5.15625 L 3.75 -5.203125 C 3.75 -5.253906 3.757812 -5.296875 3.78125 -5.328125 C 3.8125 -5.367188 3.835938 -5.398438 3.859375 -5.421875 C 3.890625 -5.453125 3.914062 -5.484375 3.9375 -5.515625 C 3.957031 -5.546875 3.96875 -5.585938 3.96875 -5.640625 C 3.863281 -5.617188 3.765625 -5.582031 3.671875 -5.53125 C 3.585938 -5.488281 3.503906 -5.4375 3.421875 -5.375 C 3.304688 -5.3125 3.1875 -5.265625 3.0625 -5.234375 C 2.9375 -5.203125 2.8125 -5.164062 2.6875 -5.125 C 2.675781 -5.101562 2.671875 -5.078125 2.671875 -5.046875 C 2.671875 -4.992188 2.679688 -4.941406 2.703125 -4.890625 C 2.734375 -4.835938 2.753906 -4.785156 2.765625 -4.734375 C 2.734375 -4.679688 2.710938 -4.628906 2.703125 -4.578125 C 2.703125 -4.523438 2.703125 -4.46875 2.703125 -4.40625 L 2.703125 -4.28125 C 2.703125 -4.21875 2.691406 -4.15625 2.671875 -4.09375 C 2.660156 -4.03125 2.632812 -3.972656 2.59375 -3.921875 L 2.59375 -3.890625 C 2.59375 -3.847656 2.582031 -3.8125 2.5625 -3.78125 C 2.550781 -3.757812 2.535156 -3.738281 2.515625 -3.71875 C 2.503906 -3.695312 2.484375 -3.675781 2.453125 -3.65625 C 2.429688 -3.644531 2.40625 -3.628906 2.375 -3.609375 C 2.3125 -3.554688 2.253906 -3.5 2.203125 -3.4375 C 2.160156 -3.375 2.113281 -3.316406 2.0625 -3.265625 C 2.007812 -3.222656 1.945312 -3.1875 1.875 -3.15625 C 1.8125 -3.125 1.738281 -3.109375 1.65625 -3.109375 C 1.5625 -3.109375 1.472656 -3.09375 1.390625 -3.0625 C 1.304688 -3.039062 1.222656 -3.03125 1.140625 -3.03125 C 1.078125 -3.03125 1.03125 -3.035156 1 -3.046875 C 0.976562 -3.066406 0.945312 -3.09375 0.90625 -3.125 C 0.863281 -3.164062 0.820312 -3.195312 0.78125 -3.21875 C 0.738281 -3.238281 0.703125 -3.269531 0.671875 -3.3125 C 0.640625 -3.332031 0.609375 -3.375 0.578125 -3.4375 C 0.554688 -3.5 0.535156 -3.5625 0.515625 -3.625 C 0.503906 -3.695312 0.492188 -3.765625 0.484375 -3.828125 C 0.472656 -3.890625 0.46875 -3.941406 0.46875 -3.984375 C 0.46875 -4.109375 0.472656 -4.203125 0.484375 -4.265625 C 0.492188 -4.335938 0.507812 -4.398438 0.53125 -4.453125 C 0.550781 -4.515625 0.578125 -4.578125 0.609375 -4.640625 C 0.640625 -4.703125 0.675781 -4.78125 0.71875 -4.875 C 0.738281 -4.9375 0.753906 -4.992188 0.765625 -5.046875 C 0.785156 -5.109375 0.8125 -5.164062 0.84375 -5.21875 C 0.882812 -5.257812 0.9375 -5.300781 1 -5.34375 C 1.070312 -5.394531 1.144531 -5.4375 1.21875 -5.46875 C 1.300781 -5.507812 1.378906 -5.539062 1.453125 -5.5625 C 1.535156 -5.59375 1.609375 -5.609375 1.671875 -5.609375 C 1.710938 -5.609375 1.75 -5.601562 1.78125 -5.59375 C 1.820312 -5.582031 1.859375 -5.570312 1.890625 -5.5625 C 1.929688 -5.550781 1.972656 -5.539062 2.015625 -5.53125 C 2.054688 -5.519531 2.097656 -5.515625 2.140625 -5.515625 C 2.171875 -5.515625 2.203125 -5.523438 2.234375 -5.546875 C 2.273438 -5.578125 2.3125 -5.597656 2.34375 -5.609375 L 2.40625 -5.609375 C 2.4375 -5.609375 2.488281 -5.617188 2.5625 -5.640625 C 2.632812 -5.671875 2.710938 -5.703125 2.796875 -5.734375 C 2.890625 -5.773438 2.984375 -5.816406 3.078125 -5.859375 C 3.179688 -5.910156 3.273438 -5.960938 3.359375 -6.015625 C 3.441406 -6.066406 3.507812 -6.113281 3.5625 -6.15625 C 3.625 -6.207031 3.664062 -6.25 3.6875 -6.28125 C 3.75 -6.332031 3.800781 -6.394531 3.84375 -6.46875 C 3.882812 -6.539062 3.929688 -6.601562 3.984375 -6.65625 C 4.023438 -6.695312 4.070312 -6.726562 4.125 -6.75 C 4.175781 -6.769531 4.226562 -6.785156 4.28125 -6.796875 C 4.332031 -6.804688 4.378906 -6.820312 4.421875 -6.84375 C 4.460938 -6.875 4.492188 -6.914062 4.515625 -6.96875 C 4.546875 -7.019531 4.566406 -7.0625 4.578125 -7.09375 C 4.597656 -7.132812 4.625 -7.164062 4.65625 -7.1875 C 4.6875 -7.207031 4.722656 -7.222656 4.765625 -7.234375 C 4.804688 -7.242188 4.859375 -7.25 4.921875 -7.25 C 4.960938 -7.25 5.003906 -7.234375 5.046875 -7.203125 C 5.097656 -7.179688 5.144531 -7.148438 5.1875 -7.109375 C 5.226562 -7.078125 5.265625 -7.035156 5.296875 -6.984375 C 5.328125 -6.941406 5.34375 -6.898438 5.34375 -6.859375 Z M 4.90625 -1.65625 C 4.90625 -1.601562 4.90625 -1.546875 4.90625 -1.484375 C 4.90625 -1.429688 4.90625 -1.375 4.90625 -1.3125 C 4.875 -1.28125 4.847656 -1.242188 4.828125 -1.203125 C 4.816406 -1.171875 4.800781 -1.132812 4.78125 -1.09375 C 4.769531 -1.0625 4.753906 -1.023438 4.734375 -0.984375 C 4.710938 -0.953125 4.679688 -0.921875 4.640625 -0.890625 C 4.628906 -0.835938 4.609375 -0.785156 4.578125 -0.734375 C 4.554688 -0.691406 4.523438 -0.648438 4.484375 -0.609375 C 4.453125 -0.566406 4.410156 -0.53125 4.359375 -0.5 C 4.316406 -0.46875 4.273438 -0.4375 4.234375 -0.40625 L 4.21875 -0.40625 C 4.164062 -0.40625 4.113281 -0.394531 4.0625 -0.375 C 4.019531 -0.351562 3.972656 -0.332031 3.921875 -0.3125 C 3.878906 -0.289062 3.832031 -0.269531 3.78125 -0.25 C 3.738281 -0.238281 3.6875 -0.234375 3.625 -0.234375 C 3.539062 -0.234375 3.457031 -0.25 3.375 -0.28125 C 3.289062 -0.3125 3.210938 -0.351562 3.140625 -0.40625 C 3.078125 -0.457031 3.015625 -0.515625 2.953125 -0.578125 C 2.898438 -0.640625 2.851562 -0.707031 2.8125 -0.78125 C 2.8125 -0.8125 2.8125 -0.835938 2.8125 -0.859375 C 2.8125 -0.890625 2.8125 -0.914062 2.8125 -0.9375 C 2.8125 -1 2.800781 -1.0625 2.78125 -1.125 C 2.757812 -1.1875 2.75 -1.25 2.75 -1.3125 C 2.75 -1.351562 2.753906 -1.390625 2.765625 -1.421875 C 2.785156 -1.453125 2.800781 -1.484375 2.8125 -1.515625 C 2.820312 -1.554688 2.832031 -1.59375 2.84375 -1.625 C 2.851562 -1.664062 2.859375 -1.707031 2.859375 -1.75 C 2.859375 -1.78125 2.863281 -1.804688 2.875 -1.828125 C 2.882812 -1.847656 2.894531 -1.863281 2.90625 -1.875 C 2.914062 -1.894531 2.925781 -1.910156 2.9375 -1.921875 C 2.957031 -1.941406 2.972656 -1.960938 2.984375 -1.984375 C 3.035156 -2.078125 3.09375 -2.171875 3.15625 -2.265625 C 3.21875 -2.359375 3.285156 -2.441406 3.359375 -2.515625 C 3.441406 -2.585938 3.53125 -2.648438 3.625 -2.703125 C 3.71875 -2.753906 3.820312 -2.78125 3.9375 -2.78125 C 4.007812 -2.78125 4.078125 -2.769531 4.140625 -2.75 C 4.210938 -2.738281 4.28125 -2.734375 4.34375 -2.734375 C 4.375 -2.734375 4.394531 -2.734375 4.40625 -2.734375 C 4.5 -2.671875 4.578125 -2.597656 4.640625 -2.515625 C 4.703125 -2.441406 4.75 -2.359375 4.78125 -2.265625 C 4.820312 -2.171875 4.851562 -2.070312 4.875 -1.96875 C 4.894531 -1.875 4.90625 -1.769531 4.90625 -1.65625 Z M 2.21875 -4.484375 C 2.21875 -4.566406 2.207031 -4.644531 2.1875 -4.71875 C 2.164062 -4.789062 2.140625 -4.859375 2.109375 -4.921875 C 2.078125 -4.941406 2.039062 -4.953125 2 -4.953125 C 1.96875 -4.960938 1.9375 -4.96875 1.90625 -4.96875 C 1.800781 -4.96875 1.695312 -4.941406 1.59375 -4.890625 C 1.488281 -4.847656 1.40625 -4.789062 1.34375 -4.71875 C 1.332031 -4.644531 1.3125 -4.582031 1.28125 -4.53125 C 1.25 -4.476562 1.21875 -4.421875 1.1875 -4.359375 C 1.15625 -4.304688 1.125 -4.242188 1.09375 -4.171875 C 1.070312 -4.109375 1.0625 -4.019531 1.0625 -3.90625 C 1.0625 -3.851562 1.066406 -3.800781 1.078125 -3.75 C 1.097656 -3.695312 1.125 -3.648438 1.15625 -3.609375 C 1.1875 -3.578125 1.222656 -3.546875 1.265625 -3.515625 C 1.304688 -3.492188 1.359375 -3.484375 1.421875 -3.484375 C 1.453125 -3.484375 1.484375 -3.492188 1.515625 -3.515625 C 1.554688 -3.535156 1.597656 -3.554688 1.640625 -3.578125 C 1.679688 -3.597656 1.71875 -3.617188 1.75 -3.640625 C 1.789062 -3.660156 1.832031 -3.671875 1.875 -3.671875 C 1.894531 -3.703125 1.914062 -3.726562 1.9375 -3.75 C 1.957031 -3.78125 1.976562 -3.8125 2 -3.84375 C 2 -3.882812 2.003906 -3.921875 2.015625 -3.953125 C 2.085938 -4.023438 2.140625 -4.109375 2.171875 -4.203125 C 2.203125 -4.296875 2.21875 -4.390625 2.21875 -4.484375 Z M 4.484375 -1.8125 C 4.484375 -1.882812 4.460938 -1.953125 4.421875 -2.015625 C 4.390625 -2.085938 4.351562 -2.15625 4.3125 -2.21875 C 4.257812 -2.238281 4.210938 -2.265625 4.171875 -2.296875 C 4.128906 -2.328125 4.082031 -2.34375 4.03125 -2.34375 C 4 -2.34375 3.96875 -2.332031 3.9375 -2.3125 C 3.90625 -2.300781 3.875 -2.285156 3.84375 -2.265625 C 3.820312 -2.253906 3.796875 -2.238281 3.765625 -2.21875 C 3.734375 -2.195312 3.703125 -2.179688 3.671875 -2.171875 C 3.640625 -2.117188 3.59375 -2.078125 3.53125 -2.046875 C 3.507812 -1.972656 3.484375 -1.910156 3.453125 -1.859375 C 3.421875 -1.816406 3.382812 -1.769531 3.34375 -1.71875 C 3.3125 -1.664062 3.28125 -1.597656 3.25 -1.515625 C 3.226562 -1.441406 3.21875 -1.34375 3.21875 -1.21875 C 3.21875 -1.164062 3.226562 -1.113281 3.25 -1.0625 C 3.269531 -1.019531 3.289062 -0.972656 3.3125 -0.921875 C 3.34375 -0.878906 3.378906 -0.84375 3.421875 -0.8125 C 3.472656 -0.789062 3.523438 -0.78125 3.578125 -0.78125 C 3.640625 -0.78125 3.691406 -0.785156 3.734375 -0.796875 C 3.785156 -0.804688 3.832031 -0.816406 3.875 -0.828125 C 3.914062 -0.847656 3.957031 -0.867188 4 -0.890625 C 4.050781 -0.921875 4.101562 -0.957031 4.15625 -1 C 4.175781 -1.070312 4.207031 -1.132812 4.25 -1.1875 C 4.300781 -1.25 4.351562 -1.304688 4.40625 -1.359375 C 4.394531 -1.359375 4.390625 -1.367188 4.390625 -1.390625 C 4.390625 -1.429688 4.394531 -1.46875 4.40625 -1.5 C 4.414062 -1.53125 4.425781 -1.5625 4.4375 -1.59375 C 4.445312 -1.625 4.457031 -1.65625 4.46875 -1.6875 C 4.476562 -1.726562 4.484375 -1.769531 4.484375 -1.8125 Z M 4.484375 -1.8125 "/></g></g></g><g fill="#000000" fill-opacity="1"><g transform="translate(53.055842, 165.383885)"><g/></g></g><g fill="#000000" fill-opacity="1"><g transform="translate(56.764903, 165.383885)"><g/></g></g><g fill="#000000" fill-opacity="1"><g transform="translate(60.468841, 165.383885)"><g><path d="M 4.515625 -1.78125 C 4.515625 -1.738281 4.507812 -1.703125 4.5 -1.671875 C 4.488281 -1.640625 4.472656 -1.609375 4.453125 -1.578125 C 4.441406 -1.554688 4.429688 -1.535156 4.421875 -1.515625 C 4.410156 -1.503906 4.40625 -1.5 4.40625 -1.5 C 4.40625 -1.46875 4.410156 -1.4375 4.421875 -1.40625 C 4.441406 -1.375 4.453125 -1.34375 4.453125 -1.3125 C 4.453125 -1.300781 4.445312 -1.289062 4.4375 -1.28125 C 4.425781 -1.269531 4.414062 -1.265625 4.40625 -1.265625 C 4.375 -1.265625 4.351562 -1.269531 4.34375 -1.28125 C 4.34375 -1.226562 4.34375 -1.175781 4.34375 -1.125 C 4.351562 -1.082031 4.359375 -1.035156 4.359375 -0.984375 C 4.359375 -0.898438 4.347656 -0.847656 4.328125 -0.828125 C 4.316406 -0.804688 4.300781 -0.789062 4.28125 -0.78125 C 4.269531 -0.78125 4.253906 -0.773438 4.234375 -0.765625 C 4.222656 -0.753906 4.21875 -0.726562 4.21875 -0.6875 C 4.21875 -0.664062 4.203125 -0.632812 4.171875 -0.59375 C 4.140625 -0.5625 4.097656 -0.523438 4.046875 -0.484375 C 4.003906 -0.441406 3.957031 -0.40625 3.90625 -0.375 C 3.851562 -0.351562 3.8125 -0.34375 3.78125 -0.34375 C 3.78125 -0.34375 3.769531 -0.347656 3.75 -0.359375 C 3.75 -0.335938 3.75 -0.3125 3.75 -0.28125 C 3.757812 -0.257812 3.765625 -0.238281 3.765625 -0.21875 C 3.765625 -0.175781 3.753906 -0.148438 3.734375 -0.140625 C 3.710938 -0.128906 3.6875 -0.117188 3.65625 -0.109375 C 3.613281 -0.0859375 3.570312 -0.0546875 3.53125 -0.015625 C 3.488281 0.015625 3.441406 0.046875 3.390625 0.078125 C 3.347656 0.117188 3.300781 0.15625 3.25 0.1875 C 3.207031 0.21875 3.160156 0.234375 3.109375 0.234375 C 3.066406 0.234375 3.023438 0.21875 2.984375 0.1875 C 2.953125 0.164062 2.910156 0.15625 2.859375 0.15625 C 2.816406 0.15625 2.78125 0.160156 2.75 0.171875 C 2.71875 0.191406 2.6875 0.207031 2.65625 0.21875 C 2.632812 0.238281 2.609375 0.253906 2.578125 0.265625 C 2.554688 0.273438 2.53125 0.28125 2.5 0.28125 C 2.425781 0.28125 2.351562 0.257812 2.28125 0.21875 C 2.207031 0.1875 2.140625 0.160156 2.078125 0.140625 C 2.046875 0.128906 2.003906 0.117188 1.953125 0.109375 C 1.910156 0.0976562 1.867188 0.0859375 1.828125 0.078125 C 1.785156 0.078125 1.742188 0.0664062 1.703125 0.046875 C 1.671875 0.0234375 1.644531 0 1.625 -0.03125 C 1.5625 -0.101562 1.492188 -0.160156 1.421875 -0.203125 C 1.347656 -0.242188 1.269531 -0.285156 1.1875 -0.328125 C 1.113281 -0.367188 1.039062 -0.410156 0.96875 -0.453125 C 0.894531 -0.503906 0.828125 -0.566406 0.765625 -0.640625 C 0.734375 -0.691406 0.691406 -0.75 0.640625 -0.8125 C 0.585938 -0.882812 0.535156 -0.957031 0.484375 -1.03125 C 0.441406 -1.101562 0.40625 -1.175781 0.375 -1.25 C 0.34375 -1.332031 0.328125 -1.410156 0.328125 -1.484375 C 0.328125 -1.535156 0.332031 -1.585938 0.34375 -1.640625 C 0.351562 -1.691406 0.363281 -1.742188 0.375 -1.796875 C 0.394531 -1.847656 0.410156 -1.898438 0.421875 -1.953125 C 0.429688 -2.003906 0.4375 -2.054688 0.4375 -2.109375 L 0.4375 -2.15625 C 0.4375 -2.164062 0.429688 -2.175781 0.421875 -2.1875 C 0.410156 -2.207031 0.398438 -2.222656 0.390625 -2.234375 C 0.378906 -2.242188 0.367188 -2.253906 0.359375 -2.265625 C 0.359375 -2.273438 0.351562 -2.28125 0.34375 -2.28125 C 0.34375 -2.28125 0.34375 -2.273438 0.34375 -2.265625 C 0.34375 -2.296875 0.347656 -2.332031 0.359375 -2.375 C 0.367188 -2.425781 0.382812 -2.476562 0.40625 -2.53125 C 0.425781 -2.59375 0.441406 -2.644531 0.453125 -2.6875 C 0.472656 -2.726562 0.488281 -2.753906 0.5 -2.765625 C 0.519531 -2.785156 0.535156 -2.800781 0.546875 -2.8125 C 0.554688 -2.832031 0.5625 -2.851562 0.5625 -2.875 C 0.5625 -2.894531 0.5625 -2.914062 0.5625 -2.9375 C 0.5625 -2.96875 0.5625 -2.992188 0.5625 -3.015625 C 0.5625 -3.046875 0.5625 -3.066406 0.5625 -3.078125 C 0.570312 -3.085938 0.582031 -3.09375 0.59375 -3.09375 C 0.613281 -3.09375 0.628906 -3.09375 0.640625 -3.09375 C 0.660156 -3.09375 0.675781 -3.109375 0.6875 -3.140625 C 0.707031 -3.179688 0.726562 -3.222656 0.75 -3.265625 C 0.78125 -3.304688 0.804688 -3.34375 0.828125 -3.375 C 0.859375 -3.414062 0.890625 -3.453125 0.921875 -3.484375 C 0.960938 -3.515625 1.007812 -3.546875 1.0625 -3.578125 C 1.101562 -3.597656 1.144531 -3.625 1.1875 -3.65625 C 1.226562 -3.695312 1.269531 -3.734375 1.3125 -3.765625 C 1.351562 -3.796875 1.394531 -3.820312 1.4375 -3.84375 C 1.488281 -3.875 1.539062 -3.890625 1.59375 -3.890625 C 1.664062 -3.890625 1.734375 -3.898438 1.796875 -3.921875 C 1.867188 -3.953125 1.941406 -3.972656 2.015625 -3.984375 C 2.117188 -4.003906 2.226562 -4.019531 2.34375 -4.03125 C 2.457031 -4.050781 2.570312 -4.0625 2.6875 -4.0625 C 2.738281 -4.0625 2.8125 -4.050781 2.90625 -4.03125 C 3 -4.007812 3.09375 -3.984375 3.1875 -3.953125 C 3.28125 -3.921875 3.367188 -3.882812 3.453125 -3.84375 C 3.535156 -3.800781 3.597656 -3.757812 3.640625 -3.71875 L 3.640625 -3.703125 C 3.640625 -3.660156 3.632812 -3.617188 3.625 -3.578125 C 3.613281 -3.546875 3.609375 -3.507812 3.609375 -3.46875 C 3.609375 -3.46875 3.609375 -3.460938 3.609375 -3.453125 C 3.660156 -3.453125 3.707031 -3.457031 3.75 -3.46875 C 3.789062 -3.476562 3.832031 -3.484375 3.875 -3.484375 C 3.882812 -3.441406 3.90625 -3.410156 3.9375 -3.390625 C 3.96875 -3.367188 4.003906 -3.351562 4.046875 -3.34375 C 4.078125 -3.332031 4.101562 -3.304688 4.125 -3.265625 C 4.15625 -3.222656 4.179688 -3.171875 4.203125 -3.109375 C 4.234375 -3.054688 4.257812 -3.003906 4.28125 -2.953125 C 4.300781 -2.910156 4.320312 -2.867188 4.34375 -2.828125 C 4.375 -2.796875 4.394531 -2.757812 4.40625 -2.71875 C 4.425781 -2.675781 4.441406 -2.628906 4.453125 -2.578125 C 4.460938 -2.523438 4.46875 -2.472656 4.46875 -2.421875 C 4.476562 -2.378906 4.484375 -2.335938 4.484375 -2.296875 C 4.484375 -2.242188 4.472656 -2.195312 4.453125 -2.15625 C 4.429688 -2.125 4.410156 -2.09375 4.390625 -2.0625 C 4.367188 -2.039062 4.347656 -2.015625 4.328125 -1.984375 C 4.304688 -1.960938 4.296875 -1.9375 4.296875 -1.90625 C 4.296875 -1.882812 4.296875 -1.863281 4.296875 -1.84375 C 4.304688 -1.832031 4.320312 -1.816406 4.34375 -1.796875 C 4.34375 -1.804688 4.351562 -1.8125 4.375 -1.8125 C 4.394531 -1.8125 4.40625 -1.816406 4.40625 -1.828125 L 4.40625 -1.84375 C 4.40625 -1.863281 4.394531 -1.878906 4.375 -1.890625 C 4.351562 -1.910156 4.34375 -1.9375 4.34375 -1.96875 C 4.34375 -1.96875 4.34375 -1.972656 4.34375 -1.984375 C 4.351562 -2.003906 4.363281 -2.015625 4.375 -2.015625 C 4.394531 -2.015625 4.410156 -2.003906 4.421875 -1.984375 C 4.441406 -1.960938 4.457031 -1.9375 4.46875 -1.90625 C 4.488281 -1.882812 4.5 -1.863281 4.5 -1.84375 C 4.507812 -1.832031 4.515625 -1.832031 4.515625 -1.84375 C 4.515625 -1.832031 4.515625 -1.820312 4.515625 -1.8125 C 4.515625 -1.800781 4.515625 -1.789062 4.515625 -1.78125 Z M 4.109375 -1.75 C 4.109375 -1.789062 4.09375 -1.816406 4.0625 -1.828125 C 4.03125 -1.835938 3.992188 -1.84375 3.953125 -1.84375 C 3.910156 -1.84375 3.867188 -1.84375 3.828125 -1.84375 C 3.796875 -1.851562 3.769531 -1.878906 3.75 -1.921875 L 3.75 -1.953125 C 3.75 -2.015625 3.742188 -2.085938 3.734375 -2.171875 C 3.722656 -2.253906 3.703125 -2.332031 3.671875 -2.40625 C 3.648438 -2.488281 3.628906 -2.570312 3.609375 -2.65625 C 3.585938 -2.738281 3.566406 -2.8125 3.546875 -2.875 C 3.523438 -2.9375 3.503906 -2.984375 3.484375 -3.015625 C 3.472656 -3.054688 3.46875 -3.078125 3.46875 -3.078125 C 3.445312 -3.066406 3.429688 -3.0625 3.421875 -3.0625 C 3.367188 -3.0625 3.328125 -3.070312 3.296875 -3.09375 C 3.265625 -3.113281 3.226562 -3.132812 3.1875 -3.15625 C 3.144531 -3.175781 3.09375 -3.195312 3.03125 -3.21875 C 2.96875 -3.238281 2.882812 -3.25 2.78125 -3.25 C 2.675781 -3.25 2.566406 -3.253906 2.453125 -3.265625 C 2.347656 -3.285156 2.238281 -3.296875 2.125 -3.296875 C 1.976562 -3.296875 1.835938 -3.257812 1.703125 -3.1875 C 1.566406 -3.125 1.445312 -3.035156 1.34375 -2.921875 C 1.25 -2.804688 1.171875 -2.675781 1.109375 -2.53125 C 1.054688 -2.394531 1.03125 -2.253906 1.03125 -2.109375 C 1.03125 -2.046875 1.03125 -1.972656 1.03125 -1.890625 C 1.03125 -1.816406 1.035156 -1.738281 1.046875 -1.65625 C 1.054688 -1.582031 1.070312 -1.507812 1.09375 -1.4375 C 1.125 -1.363281 1.160156 -1.3125 1.203125 -1.28125 L 1.203125 -1.171875 C 1.210938 -1.160156 1.226562 -1.148438 1.25 -1.140625 C 1.269531 -1.140625 1.285156 -1.140625 1.296875 -1.140625 C 1.316406 -1.140625 1.332031 -1.140625 1.34375 -1.140625 C 1.363281 -1.140625 1.375 -1.128906 1.375 -1.109375 C 1.414062 -1.003906 1.460938 -0.925781 1.515625 -0.875 C 1.578125 -0.820312 1.640625 -0.773438 1.703125 -0.734375 C 1.765625 -0.703125 1.828125 -0.664062 1.890625 -0.625 C 1.960938 -0.59375 2.023438 -0.539062 2.078125 -0.46875 C 2.097656 -0.46875 2.117188 -0.46875 2.140625 -0.46875 C 2.171875 -0.476562 2.195312 -0.484375 2.21875 -0.484375 C 2.300781 -0.484375 2.382812 -0.472656 2.46875 -0.453125 C 2.550781 -0.441406 2.632812 -0.4375 2.71875 -0.4375 C 2.8125 -0.4375 2.890625 -0.457031 2.953125 -0.5 C 3.023438 -0.550781 3.085938 -0.613281 3.140625 -0.6875 C 3.179688 -0.726562 3.210938 -0.765625 3.234375 -0.796875 C 3.265625 -0.835938 3.289062 -0.867188 3.3125 -0.890625 C 3.34375 -0.921875 3.375 -0.945312 3.40625 -0.96875 C 3.445312 -1 3.488281 -1.03125 3.53125 -1.0625 C 3.550781 -1.070312 3.570312 -1.082031 3.59375 -1.09375 C 3.613281 -1.113281 3.632812 -1.132812 3.65625 -1.15625 C 3.6875 -1.175781 3.707031 -1.195312 3.71875 -1.21875 C 3.738281 -1.238281 3.75 -1.257812 3.75 -1.28125 C 3.75 -1.300781 3.742188 -1.320312 3.734375 -1.34375 C 3.722656 -1.375 3.71875 -1.398438 3.71875 -1.421875 C 3.71875 -1.453125 3.722656 -1.484375 3.734375 -1.515625 C 3.742188 -1.554688 3.753906 -1.59375 3.765625 -1.625 C 3.785156 -1.664062 3.804688 -1.695312 3.828125 -1.71875 C 3.859375 -1.738281 3.894531 -1.75 3.9375 -1.75 C 3.96875 -1.75 4 -1.742188 4.03125 -1.734375 C 4.0625 -1.722656 4.085938 -1.707031 4.109375 -1.6875 C 4.109375 -1.71875 4.109375 -1.738281 4.109375 -1.75 Z M 4.109375 -1.75 "/></g></g></g><g fill="#000000" fill-opacity="1"><g transform="translate(66.599609, 165.383885)"><g><path d="M 4.625 -4.515625 L 4.609375 -4.515625 C 4.578125 -4.515625 4.550781 -4.523438 4.53125 -4.546875 C 4.507812 -4.566406 4.484375 -4.578125 4.453125 -4.578125 L 4.453125 -4.5625 C 4.453125 -4.539062 4.457031 -4.519531 4.46875 -4.5 C 4.488281 -4.476562 4.503906 -4.457031 4.515625 -4.4375 C 4.535156 -4.425781 4.550781 -4.410156 4.5625 -4.390625 C 4.582031 -4.378906 4.59375 -4.363281 4.59375 -4.34375 C 4.59375 -4.320312 4.578125 -4.304688 4.546875 -4.296875 C 4.515625 -4.296875 4.488281 -4.296875 4.46875 -4.296875 C 4.4375 -4.285156 4.410156 -4.265625 4.390625 -4.234375 C 4.367188 -4.203125 4.34375 -4.164062 4.3125 -4.125 C 4.289062 -4.09375 4.257812 -4.0625 4.21875 -4.03125 C 4.175781 -4.007812 4.117188 -4 4.046875 -4 C 3.953125 -4 3.859375 -4.019531 3.765625 -4.0625 C 3.648438 -4.113281 3.566406 -4.175781 3.515625 -4.25 C 3.472656 -4.320312 3.441406 -4.398438 3.421875 -4.484375 C 3.410156 -4.566406 3.398438 -4.644531 3.390625 -4.71875 C 3.390625 -4.800781 3.378906 -4.875 3.359375 -4.9375 C 3.347656 -5 3.316406 -5.050781 3.265625 -5.09375 C 3.222656 -5.132812 3.148438 -5.15625 3.046875 -5.15625 C 2.953125 -5.15625 2.847656 -5.144531 2.734375 -5.125 C 2.628906 -5.101562 2.53125 -5.0625 2.4375 -5 C 2.351562 -4.945312 2.28125 -4.878906 2.21875 -4.796875 C 2.15625 -4.722656 2.125 -4.625 2.125 -4.5 C 2.125 -4.375 2.128906 -4.273438 2.140625 -4.203125 C 2.148438 -4.140625 2.171875 -4.09375 2.203125 -4.0625 C 2.242188 -4.03125 2.296875 -4.007812 2.359375 -4 C 2.429688 -4 2.523438 -4 2.640625 -4 C 2.660156 -4 2.691406 -3.984375 2.734375 -3.953125 C 2.773438 -3.921875 2.8125 -3.882812 2.84375 -3.84375 C 2.882812 -3.800781 2.921875 -3.757812 2.953125 -3.71875 C 2.984375 -3.675781 3 -3.640625 3 -3.609375 C 3 -3.546875 2.96875 -3.5 2.90625 -3.46875 C 2.851562 -3.4375 2.789062 -3.410156 2.71875 -3.390625 C 2.644531 -3.367188 2.570312 -3.359375 2.5 -3.359375 C 2.425781 -3.359375 2.367188 -3.359375 2.328125 -3.359375 C 2.273438 -3.359375 2.234375 -3.347656 2.203125 -3.328125 C 2.179688 -3.304688 2.160156 -3.28125 2.140625 -3.25 C 2.128906 -3.226562 2.117188 -3.195312 2.109375 -3.15625 C 2.109375 -3.113281 2.109375 -3.078125 2.109375 -3.046875 C 2.109375 -2.859375 2.117188 -2.675781 2.140625 -2.5 C 2.160156 -2.320312 2.171875 -2.140625 2.171875 -1.953125 C 2.171875 -1.847656 2.15625 -1.757812 2.125 -1.6875 C 2.101562 -1.625 2.09375 -1.570312 2.09375 -1.53125 C 2.09375 -1.5 2.097656 -1.46875 2.109375 -1.4375 C 2.117188 -1.40625 2.125 -1.375 2.125 -1.34375 C 2.125 -1.28125 2.113281 -1.222656 2.09375 -1.171875 C 2.082031 -1.117188 2.078125 -1.0625 2.078125 -1 C 2.078125 -0.945312 2.082031 -0.90625 2.09375 -0.875 C 2.113281 -0.84375 2.132812 -0.8125 2.15625 -0.78125 C 2.175781 -0.75 2.195312 -0.71875 2.21875 -0.6875 C 2.238281 -0.65625 2.25 -0.617188 2.25 -0.578125 C 2.320312 -0.585938 2.394531 -0.601562 2.46875 -0.625 C 2.539062 -0.644531 2.617188 -0.65625 2.703125 -0.65625 C 2.742188 -0.65625 2.804688 -0.648438 2.890625 -0.640625 C 2.984375 -0.640625 3.070312 -0.628906 3.15625 -0.609375 C 3.238281 -0.585938 3.304688 -0.554688 3.359375 -0.515625 C 3.421875 -0.472656 3.453125 -0.421875 3.453125 -0.359375 C 3.453125 -0.296875 3.441406 -0.238281 3.421875 -0.1875 C 3.410156 -0.144531 3.390625 -0.0976562 3.359375 -0.046875 C 3.335938 -0.00390625 3.300781 0.0234375 3.25 0.046875 C 3.207031 0.078125 3.160156 0.0976562 3.109375 0.109375 C 3.035156 0.117188 2.960938 0.140625 2.890625 0.171875 C 2.816406 0.203125 2.742188 0.21875 2.671875 0.21875 C 2.628906 0.21875 2.585938 0.207031 2.546875 0.1875 C 2.503906 0.175781 2.457031 0.160156 2.40625 0.140625 C 2.363281 0.117188 2.316406 0.0976562 2.265625 0.078125 C 2.222656 0.0664062 2.175781 0.0625 2.125 0.0625 C 2.007812 0.0625 1.890625 0.0625 1.765625 0.0625 C 1.648438 0.0625 1.53125 0.0664062 1.40625 0.078125 C 1.34375 0.0859375 1.273438 0.0976562 1.203125 0.109375 C 1.140625 0.128906 1.078125 0.148438 1.015625 0.171875 C 0.953125 0.191406 0.882812 0.207031 0.8125 0.21875 C 0.75 0.226562 0.679688 0.234375 0.609375 0.234375 C 0.578125 0.234375 0.539062 0.226562 0.5 0.21875 C 0.457031 0.207031 0.414062 0.191406 0.375 0.171875 C 0.332031 0.160156 0.289062 0.144531 0.25 0.125 C 0.21875 0.101562 0.191406 0.0820312 0.171875 0.0625 L 0.171875 -0.125 C 0.171875 -0.21875 0.1875 -0.285156 0.21875 -0.328125 C 0.257812 -0.378906 0.3125 -0.414062 0.375 -0.4375 C 0.4375 -0.457031 0.503906 -0.46875 0.578125 -0.46875 C 0.660156 -0.476562 0.742188 -0.484375 0.828125 -0.484375 C 0.910156 -0.492188 0.988281 -0.5 1.0625 -0.5 C 1.144531 -0.507812 1.210938 -0.53125 1.265625 -0.5625 C 1.328125 -0.59375 1.378906 -0.632812 1.421875 -0.6875 C 1.460938 -0.738281 1.484375 -0.816406 1.484375 -0.921875 C 1.484375 -0.953125 1.476562 -0.988281 1.46875 -1.03125 C 1.457031 -1.070312 1.445312 -1.113281 1.4375 -1.15625 L 1.453125 -1.15625 C 1.460938 -1.1875 1.472656 -1.222656 1.484375 -1.265625 C 1.492188 -1.316406 1.5 -1.367188 1.5 -1.421875 C 1.507812 -1.472656 1.515625 -1.523438 1.515625 -1.578125 C 1.515625 -1.628906 1.515625 -1.671875 1.515625 -1.703125 C 1.515625 -1.773438 1.507812 -1.851562 1.5 -1.9375 C 1.5 -2.03125 1.488281 -2.109375 1.46875 -2.171875 C 1.46875 -2.191406 1.460938 -2.210938 1.453125 -2.234375 C 1.441406 -2.253906 1.4375 -2.273438 1.4375 -2.296875 C 1.4375 -2.359375 1.445312 -2.414062 1.46875 -2.46875 C 1.5 -2.53125 1.515625 -2.59375 1.515625 -2.65625 C 1.515625 -2.6875 1.507812 -2.707031 1.5 -2.71875 C 1.5 -2.726562 1.492188 -2.738281 1.484375 -2.75 C 1.472656 -2.757812 1.460938 -2.769531 1.453125 -2.78125 C 1.453125 -2.789062 1.453125 -2.800781 1.453125 -2.8125 C 1.472656 -2.84375 1.488281 -2.875 1.5 -2.90625 C 1.507812 -2.945312 1.515625 -2.984375 1.515625 -3.015625 C 1.515625 -3.046875 1.507812 -3.070312 1.5 -3.09375 C 1.488281 -3.125 1.472656 -3.148438 1.453125 -3.171875 C 1.441406 -3.191406 1.425781 -3.210938 1.40625 -3.234375 C 1.394531 -3.253906 1.390625 -3.273438 1.390625 -3.296875 C 1.347656 -3.296875 1.296875 -3.296875 1.234375 -3.296875 C 1.179688 -3.304688 1.117188 -3.3125 1.046875 -3.3125 C 0.972656 -3.320312 0.898438 -3.332031 0.828125 -3.34375 C 0.765625 -3.351562 0.703125 -3.367188 0.640625 -3.390625 C 0.585938 -3.421875 0.539062 -3.453125 0.5 -3.484375 C 0.46875 -3.523438 0.453125 -3.570312 0.453125 -3.625 C 0.453125 -3.664062 0.46875 -3.703125 0.5 -3.734375 C 0.53125 -3.765625 0.566406 -3.789062 0.609375 -3.8125 C 0.648438 -3.84375 0.695312 -3.863281 0.75 -3.875 C 0.800781 -3.882812 0.84375 -3.890625 0.875 -3.890625 C 0.914062 -3.890625 0.953125 -3.890625 0.984375 -3.890625 C 1.023438 -3.890625 1.066406 -3.890625 1.109375 -3.890625 C 1.148438 -3.890625 1.195312 -3.890625 1.25 -3.890625 C 1.3125 -3.898438 1.359375 -3.914062 1.390625 -3.9375 C 1.398438 -3.945312 1.410156 -3.96875 1.421875 -4 C 1.429688 -4.03125 1.441406 -4.066406 1.453125 -4.109375 C 1.460938 -4.160156 1.46875 -4.203125 1.46875 -4.234375 C 1.476562 -4.273438 1.484375 -4.300781 1.484375 -4.3125 C 1.484375 -4.375 1.476562 -4.429688 1.46875 -4.484375 C 1.457031 -4.546875 1.453125 -4.609375 1.453125 -4.671875 C 1.453125 -4.765625 1.460938 -4.847656 1.484375 -4.921875 C 1.503906 -4.992188 1.546875 -5.066406 1.609375 -5.140625 C 1.691406 -5.210938 1.765625 -5.285156 1.828125 -5.359375 C 1.898438 -5.429688 1.972656 -5.492188 2.046875 -5.546875 C 2.117188 -5.609375 2.195312 -5.660156 2.28125 -5.703125 C 2.375 -5.742188 2.476562 -5.769531 2.59375 -5.78125 C 2.675781 -5.789062 2.757812 -5.800781 2.84375 -5.8125 C 2.925781 -5.832031 3.007812 -5.84375 3.09375 -5.84375 C 3.132812 -5.84375 3.191406 -5.832031 3.265625 -5.8125 C 3.347656 -5.800781 3.429688 -5.785156 3.515625 -5.765625 C 3.609375 -5.742188 3.695312 -5.71875 3.78125 -5.6875 C 3.875 -5.65625 3.957031 -5.617188 4.03125 -5.578125 C 4.101562 -5.535156 4.160156 -5.488281 4.203125 -5.4375 C 4.253906 -5.382812 4.28125 -5.332031 4.28125 -5.28125 C 4.363281 -5.269531 4.425781 -5.238281 4.46875 -5.1875 C 4.507812 -5.132812 4.535156 -5.066406 4.546875 -4.984375 C 4.566406 -4.910156 4.578125 -4.832031 4.578125 -4.75 C 4.585938 -4.664062 4.601562 -4.597656 4.625 -4.546875 Z M 4.625 -4.515625 "/></g></g></g><g fill="#000000" fill-opacity="1"><g transform="translate(71.810536, 165.383885)"><g><path d="M 4.625 -4.515625 L 4.609375 -4.515625 C 4.578125 -4.515625 4.550781 -4.523438 4.53125 -4.546875 C 4.507812 -4.566406 4.484375 -4.578125 4.453125 -4.578125 L 4.453125 -4.5625 C 4.453125 -4.539062 4.457031 -4.519531 4.46875 -4.5 C 4.488281 -4.476562 4.503906 -4.457031 4.515625 -4.4375 C 4.535156 -4.425781 4.550781 -4.410156 4.5625 -4.390625 C 4.582031 -4.378906 4.59375 -4.363281 4.59375 -4.34375 C 4.59375 -4.320312 4.578125 -4.304688 4.546875 -4.296875 C 4.515625 -4.296875 4.488281 -4.296875 4.46875 -4.296875 C 4.4375 -4.285156 4.410156 -4.265625 4.390625 -4.234375 C 4.367188 -4.203125 4.34375 -4.164062 4.3125 -4.125 C 4.289062 -4.09375 4.257812 -4.0625 4.21875 -4.03125 C 4.175781 -4.007812 4.117188 -4 4.046875 -4 C 3.953125 -4 3.859375 -4.019531 3.765625 -4.0625 C 3.648438 -4.113281 3.566406 -4.175781 3.515625 -4.25 C 3.472656 -4.320312 3.441406 -4.398438 3.421875 -4.484375 C 3.410156 -4.566406 3.398438 -4.644531 3.390625 -4.71875 C 3.390625 -4.800781 3.378906 -4.875 3.359375 -4.9375 C 3.347656 -5 3.316406 -5.050781 3.265625 -5.09375 C 3.222656 -5.132812 3.148438 -5.15625 3.046875 -5.15625 C 2.953125 -5.15625 2.847656 -5.144531 2.734375 -5.125 C 2.628906 -5.101562 2.53125 -5.0625 2.4375 -5 C 2.351562 -4.945312 2.28125 -4.878906 2.21875 -4.796875 C 2.15625 -4.722656 2.125 -4.625 2.125 -4.5 C 2.125 -4.375 2.128906 -4.273438 2.140625 -4.203125 C 2.148438 -4.140625 2.171875 -4.09375 2.203125 -4.0625 C 2.242188 -4.03125 2.296875 -4.007812 2.359375 -4 C 2.429688 -4 2.523438 -4 2.640625 -4 C 2.660156 -4 2.691406 -3.984375 2.734375 -3.953125 C 2.773438 -3.921875 2.8125 -3.882812 2.84375 -3.84375 C 2.882812 -3.800781 2.921875 -3.757812 2.953125 -3.71875 C 2.984375 -3.675781 3 -3.640625 3 -3.609375 C 3 -3.546875 2.96875 -3.5 2.90625 -3.46875 C 2.851562 -3.4375 2.789062 -3.410156 2.71875 -3.390625 C 2.644531 -3.367188 2.570312 -3.359375 2.5 -3.359375 C 2.425781 -3.359375 2.367188 -3.359375 2.328125 -3.359375 C 2.273438 -3.359375 2.234375 -3.347656 2.203125 -3.328125 C 2.179688 -3.304688 2.160156 -3.28125 2.140625 -3.25 C 2.128906 -3.226562 2.117188 -3.195312 2.109375 -3.15625 C 2.109375 -3.113281 2.109375 -3.078125 2.109375 -3.046875 C 2.109375 -2.859375 2.117188 -2.675781 2.140625 -2.5 C 2.160156 -2.320312 2.171875 -2.140625 2.171875 -1.953125 C 2.171875 -1.847656 2.15625 -1.757812 2.125 -1.6875 C 2.101562 -1.625 2.09375 -1.570312 2.09375 -1.53125 C 2.09375 -1.5 2.097656 -1.46875 2.109375 -1.4375 C 2.117188 -1.40625 2.125 -1.375 2.125 -1.34375 C 2.125 -1.28125 2.113281 -1.222656 2.09375 -1.171875 C 2.082031 -1.117188 2.078125 -1.0625 2.078125 -1 C 2.078125 -0.945312 2.082031 -0.90625 2.09375 -0.875 C 2.113281 -0.84375 2.132812 -0.8125 2.15625 -0.78125 C 2.175781 -0.75 2.195312 -0.71875 2.21875 -0.6875 C 2.238281 -0.65625 2.25 -0.617188 2.25 -0.578125 C 2.320312 -0.585938 2.394531 -0.601562 2.46875 -0.625 C 2.539062 -0.644531 2.617188 -0.65625 2.703125 -0.65625 C 2.742188 -0.65625 2.804688 -0.648438 2.890625 -0.640625 C 2.984375 -0.640625 3.070312 -0.628906 3.15625 -0.609375 C 3.238281 -0.585938 3.304688 -0.554688 3.359375 -0.515625 C 3.421875 -0.472656 3.453125 -0.421875 3.453125 -0.359375 C 3.453125 -0.296875 3.441406 -0.238281 3.421875 -0.1875 C 3.410156 -0.144531 3.390625 -0.0976562 3.359375 -0.046875 C 3.335938 -0.00390625 3.300781 0.0234375 3.25 0.046875 C 3.207031 0.078125 3.160156 0.0976562 3.109375 0.109375 C 3.035156 0.117188 2.960938 0.140625 2.890625 0.171875 C 2.816406 0.203125 2.742188 0.21875 2.671875 0.21875 C 2.628906 0.21875 2.585938 0.207031 2.546875 0.1875 C 2.503906 0.175781 2.457031 0.160156 2.40625 0.140625 C 2.363281 0.117188 2.316406 0.0976562 2.265625 0.078125 C 2.222656 0.0664062 2.175781 0.0625 2.125 0.0625 C 2.007812 0.0625 1.890625 0.0625 1.765625 0.0625 C 1.648438 0.0625 1.53125 0.0664062 1.40625 0.078125 C 1.34375 0.0859375 1.273438 0.0976562 1.203125 0.109375 C 1.140625 0.128906 1.078125 0.148438 1.015625 0.171875 C 0.953125 0.191406 0.882812 0.207031 0.8125 0.21875 C 0.75 0.226562 0.679688 0.234375 0.609375 0.234375 C 0.578125 0.234375 0.539062 0.226562 0.5 0.21875 C 0.457031 0.207031 0.414062 0.191406 0.375 0.171875 C 0.332031 0.160156 0.289062 0.144531 0.25 0.125 C 0.21875 0.101562 0.191406 0.0820312 0.171875 0.0625 L 0.171875 -0.125 C 0.171875 -0.21875 0.1875 -0.285156 0.21875 -0.328125 C 0.257812 -0.378906 0.3125 -0.414062 0.375 -0.4375 C 0.4375 -0.457031 0.503906 -0.46875 0.578125 -0.46875 C 0.660156 -0.476562 0.742188 -0.484375 0.828125 -0.484375 C 0.910156 -0.492188 0.988281 -0.5 1.0625 -0.5 C 1.144531 -0.507812 1.210938 -0.53125 1.265625 -0.5625 C 1.328125 -0.59375 1.378906 -0.632812 1.421875 -0.6875 C 1.460938 -0.738281 1.484375 -0.816406 1.484375 -0.921875 C 1.484375 -0.953125 1.476562 -0.988281 1.46875 -1.03125 C 1.457031 -1.070312 1.445312 -1.113281 1.4375 -1.15625 L 1.453125 -1.15625 C 1.460938 -1.1875 1.472656 -1.222656 1.484375 -1.265625 C 1.492188 -1.316406 1.5 -1.367188 1.5 -1.421875 C 1.507812 -1.472656 1.515625 -1.523438 1.515625 -1.578125 C 1.515625 -1.628906 1.515625 -1.671875 1.515625 -1.703125 C 1.515625 -1.773438 1.507812 -1.851562 1.5 -1.9375 C 1.5 -2.03125 1.488281 -2.109375 1.46875 -2.171875 C 1.46875 -2.191406 1.460938 -2.210938 1.453125 -2.234375 C 1.441406 -2.253906 1.4375 -2.273438 1.4375 -2.296875 C 1.4375 -2.359375 1.445312 -2.414062 1.46875 -2.46875 C 1.5 -2.53125 1.515625 -2.59375 1.515625 -2.65625 C 1.515625 -2.6875 1.507812 -2.707031 1.5 -2.71875 C 1.5 -2.726562 1.492188 -2.738281 1.484375 -2.75 C 1.472656 -2.757812 1.460938 -2.769531 1.453125 -2.78125 C 1.453125 -2.789062 1.453125 -2.800781 1.453125 -2.8125 C 1.472656 -2.84375 1.488281 -2.875 1.5 -2.90625 C 1.507812 -2.945312 1.515625 -2.984375 1.515625 -3.015625 C 1.515625 -3.046875 1.507812 -3.070312 1.5 -3.09375 C 1.488281 -3.125 1.472656 -3.148438 1.453125 -3.171875 C 1.441406 -3.191406 1.425781 -3.210938 1.40625 -3.234375 C 1.394531 -3.253906 1.390625 -3.273438 1.390625 -3.296875 C 1.347656 -3.296875 1.296875 -3.296875 1.234375 -3.296875 C 1.179688 -3.304688 1.117188 -3.3125 1.046875 -3.3125 C 0.972656 -3.320312 0.898438 -3.332031 0.828125 -3.34375 C 0.765625 -3.351562 0.703125 -3.367188 0.640625 -3.390625 C 0.585938 -3.421875 0.539062 -3.453125 0.5 -3.484375 C 0.46875 -3.523438 0.453125 -3.570312 0.453125 -3.625 C 0.453125 -3.664062 0.46875 -3.703125 0.5 -3.734375 C 0.53125 -3.765625 0.566406 -3.789062 0.609375 -3.8125 C 0.648438 -3.84375 0.695312 -3.863281 0.75 -3.875 C 0.800781 -3.882812 0.84375 -3.890625 0.875 -3.890625 C 0.914062 -3.890625 0.953125 -3.890625 0.984375 -3.890625 C 1.023438 -3.890625 1.066406 -3.890625 1.109375 -3.890625 C 1.148438 -3.890625 1.195312 -3.890625 1.25 -3.890625 C 1.3125 -3.898438 1.359375 -3.914062 1.390625 -3.9375 C 1.398438 -3.945312 1.410156 -3.96875 1.421875 -4 C 1.429688 -4.03125 1.441406 -4.066406 1.453125 -4.109375 C 1.460938 -4.160156 1.46875 -4.203125 1.46875 -4.234375 C 1.476562 -4.273438 1.484375 -4.300781 1.484375 -4.3125 C 1.484375 -4.375 1.476562 -4.429688 1.46875 -4.484375 C 1.457031 -4.546875 1.453125 -4.609375 1.453125 -4.671875 C 1.453125 -4.765625 1.460938 -4.847656 1.484375 -4.921875 C 1.503906 -4.992188 1.546875 -5.066406 1.609375 -5.140625 C 1.691406 -5.210938 1.765625 -5.285156 1.828125 -5.359375 C 1.898438 -5.429688 1.972656 -5.492188 2.046875 -5.546875 C 2.117188 -5.609375 2.195312 -5.660156 2.28125 -5.703125 C 2.375 -5.742188 2.476562 -5.769531 2.59375 -5.78125 C 2.675781 -5.789062 2.757812 -5.800781 2.84375 -5.8125 C 2.925781 -5.832031 3.007812 -5.84375 3.09375 -5.84375 C 3.132812 -5.84375 3.191406 -5.832031 3.265625 -5.8125 C 3.347656 -5.800781 3.429688 -5.785156 3.515625 -5.765625 C 3.609375 -5.742188 3.695312 -5.71875 3.78125 -5.6875 C 3.875 -5.65625 3.957031 -5.617188 4.03125 -5.578125 C 4.101562 -5.535156 4.160156 -5.488281 4.203125 -5.4375 C 4.253906 -5.382812 4.28125 -5.332031 4.28125 -5.28125 C 4.363281 -5.269531 4.425781 -5.238281 4.46875 -5.1875 C 4.507812 -5.132812 4.535156 -5.066406 4.546875 -4.984375 C 4.566406 -4.910156 4.578125 -4.832031 4.578125 -4.75 C 4.585938 -4.664062 4.601562 -4.597656 4.625 -4.546875 Z M 4.625 -4.515625 "/></g></g></g><g fill="#9b9add" fill-opacity="0.302"><g transform="translate(28.346417, 30.732131)"><g><path d="M 8.292969 -3.707031 L 1.722656 -3.707031 L 1.722656 -2.925781 L 7.617188 -2.925781 C 6.84375 -1.933594 5.765625 -0.582031 4.839844 0.464844 L 5.640625 0.835938 C 6.769531 -0.527344 8.15625 -2.269531 9.03125 -3.464844 L 8.429688 -3.761719 Z M 3.515625 -5.515625 L 3.515625 -4.773438 L 7.160156 -4.773438 L 7.160156 -5.515625 Z M 5.230469 -8.90625 C 4.171875 -7.320312 2.292969 -5.851562 0.402344 -4.996094 C 0.632812 -4.804688 0.867188 -4.519531 1.003906 -4.308594 C 2.597656 -5.113281 4.171875 -6.304688 5.3125 -7.679688 C 6.464844 -6.371094 8.15625 -5.082031 9.539062 -4.375 C 9.6875 -4.585938 9.941406 -4.910156 10.152344 -5.082031 C 8.660156 -5.734375 6.824219 -7.023438 5.765625 -8.261719 C 5.832031 -8.355469 5.90625 -8.449219 5.96875 -8.546875 Z M 5.230469 -8.90625 "/></g></g></g><g fill="#9b9add" fill-opacity="0.302"><g transform="translate(38.903483, 30.732131)"><g><path d="M 2.695312 -0.769531 L 2.695312 -3.71875 L 7.933594 -3.71875 L 7.933594 -0.769531 Z M 7.933594 -7.339844 L 7.933594 -4.488281 L 2.695312 -4.488281 L 2.695312 -7.339844 Z M 1.902344 -8.113281 L 1.902344 0.6875 L 2.695312 0.6875 L 2.695312 0 L 7.933594 0 L 7.933594 0.644531 L 8.757812 0.644531 L 8.757812 -8.113281 Z M 1.902344 -8.113281 "/></g></g></g><g fill="#9b9add" fill-opacity="0.302"><g transform="translate(49.460549, 30.732131)"><g><path d="M 9.917969 -5.015625 L 9.917969 -5.820312 L 5.554688 -5.820312 C 5.703125 -6.929688 5.714844 -7.976562 5.726562 -8.820312 L 4.878906 -8.820312 C 4.871094 -7.984375 4.878906 -6.929688 4.722656 -5.820312 L 0.695312 -5.820312 L 0.695312 -5.015625 L 4.59375 -5.015625 C 4.160156 -3.019531 3.105469 -0.992188 0.484375 0.148438 C 0.707031 0.304688 0.960938 0.582031 1.078125 0.792969 C 3.644531 -0.378906 4.785156 -2.410156 5.292969 -4.4375 C 6.125 -2.039062 7.46875 -0.167969 9.496094 0.792969 C 9.632812 0.558594 9.898438 0.230469 10.085938 0.0546875 C 8.050781 -0.78125 6.675781 -2.695312 5.9375 -5.015625 Z M 9.917969 -5.015625 "/></g></g></g><g fill="#9b9add" fill-opacity="0.302"><g transform="translate(60.017615, 30.732131)"><g><path d="M 2.449219 -8.777344 C 1.984375 -7.160156 1.203125 -5.546875 0.347656 -4.488281 C 0.476562 -4.300781 0.6875 -3.875 0.761719 -3.695312 C 1.078125 -4.089844 1.382812 -4.550781 1.667969 -5.058594 L 1.667969 0.8125 L 2.417969 0.8125 L 2.417969 -6.550781 C 2.703125 -7.203125 2.957031 -7.890625 3.167969 -8.578125 Z M 5.230469 -1.4375 L 7.996094 -1.4375 C 7.625 -1.121094 7.121094 -0.8125 6.484375 -0.570312 C 5.945312 -0.769531 5.472656 -1.023438 5.082031 -1.308594 Z M 8.640625 -1.996094 L 8.503906 -1.964844 L 5.839844 -1.964844 C 6 -2.113281 6.136719 -2.261719 6.265625 -2.417969 L 7.53125 -2.417969 C 8.082031 -2.417969 8.261719 -2.578125 8.324219 -3.179688 C 8.15625 -3.210938 7.910156 -3.273438 7.785156 -3.359375 C 7.753906 -2.945312 7.699219 -2.894531 7.457031 -2.894531 L 6.148438 -2.894531 C 5.800781 -2.894531 5.734375 -2.925781 5.734375 -3.125 L 5.734375 -3.738281 L 5.082031 -3.738281 L 5.082031 -3.125 C 5.082031 -2.726562 5.175781 -2.546875 5.480469 -2.472656 C 5.25 -2.207031 4.945312 -1.953125 4.59375 -1.699219 C 4.480469 -1.816406 4.363281 -1.933594 4.277344 -2.058594 L 3.664062 -1.828125 C 3.792969 -1.667969 3.917969 -1.511719 4.066406 -1.363281 C 3.75 -1.171875 3.378906 -0.992188 2.988281 -0.824219 C 3.148438 -0.730469 3.347656 -0.519531 3.453125 -0.359375 C 3.84375 -0.550781 4.214844 -0.738281 4.542969 -0.949219 C 4.859375 -0.695312 5.21875 -0.476562 5.609375 -0.273438 C 4.828125 -0.0546875 3.898438 0.125 2.851562 0.242188 C 3 0.402344 3.167969 0.65625 3.253906 0.835938 C 4.488281 0.664062 5.578125 0.421875 6.484375 0.09375 C 7.425781 0.445312 8.503906 0.6875 9.632812 0.824219 C 9.730469 0.625 9.910156 0.359375 10.046875 0.199219 C 9.09375 0.117188 8.175781 -0.0429688 7.363281 -0.273438 C 8.144531 -0.664062 8.746094 -1.152344 9.125 -1.710938 Z M 4.542969 -3.738281 C 4.308594 -3.371094 3.898438 -2.914062 3.464844 -2.671875 L 3.929688 -2.304688 C 4.394531 -2.597656 4.773438 -3.074219 5.039062 -3.476562 Z M 9.738281 -2.578125 C 9.484375 -2.914062 8.96875 -3.421875 8.523438 -3.769531 L 8.082031 -3.507812 C 8.523438 -3.136719 9.042969 -2.621094 9.273438 -2.261719 Z M 4.859375 -5.027344 L 8.375 -5.027344 L 8.375 -4.574219 L 4.859375 -4.574219 Z M 8.375 -6.761719 L 8.375 -6.304688 L 4.859375 -6.304688 L 4.859375 -6.761719 Z M 8.375 -5.441406 L 4.859375 -5.441406 L 4.859375 -5.894531 L 8.375 -5.894531 Z M 9.117188 -4.574219 L 9.117188 -7.214844 L 6.71875 -7.214844 C 6.792969 -7.382812 6.867188 -7.574219 6.941406 -7.765625 L 9.929688 -7.765625 L 9.929688 -8.367188 L 3.378906 -8.367188 L 3.378906 -7.765625 L 6.117188 -7.765625 C 6.074219 -7.585938 6.03125 -7.394531 5.980469 -7.214844 L 4.140625 -7.214844 L 4.140625 -4.574219 L 3.105469 -4.574219 L 3.105469 -3.160156 L 3.792969 -3.160156 L 3.792969 -4.066406 L 6.304688 -4.066406 L 5.957031 -3.835938 C 6.316406 -3.632812 6.75 -3.296875 6.980469 -3.074219 L 7.425781 -3.390625 C 7.214844 -3.601562 6.824219 -3.875 6.484375 -4.066406 L 9.390625 -4.066406 L 9.390625 -3.160156 L 10.097656 -3.160156 L 10.097656 -4.574219 Z M 9.117188 -4.574219 "/></g></g></g><g fill="#9b9add" fill-opacity="0.302"><g transform="translate(70.574681, 30.732131)"><g><path d="M 5.621094 -3.917969 L 7.246094 -3.917969 L 6.761719 -3.558594 C 7.046875 -3.433594 7.339844 -3.296875 7.636719 -3.125 C 6.960938 -3.117188 6.285156 -3.105469 5.621094 -3.105469 Z M 2.304688 -4.445312 L 2.304688 -5.144531 L 4.828125 -5.144531 L 4.828125 -4.445312 Z M 2.304688 -6.335938 L 4.828125 -6.335938 L 4.828125 -5.652344 L 2.304688 -5.652344 Z M 8.21875 -6.335938 L 8.21875 -5.652344 L 5.621094 -5.652344 L 5.621094 -6.335938 Z M 8.21875 -4.445312 L 5.621094 -4.445312 L 5.621094 -5.144531 L 8.21875 -5.144531 Z M 0.867188 -2.386719 C 2.789062 -2.410156 5.757812 -2.460938 8.578125 -2.523438 C 8.851562 -2.3125 9.105469 -2.125 9.273438 -1.933594 L 9.8125 -2.386719 C 9.285156 -2.882812 8.25 -3.550781 7.332031 -3.917969 L 8.988281 -3.917969 L 8.988281 -6.867188 L 5.621094 -6.867188 L 5.621094 -7.542969 L 9.730469 -7.542969 L 9.730469 -8.1875 L 5.621094 -8.1875 L 5.621094 -8.820312 L 4.828125 -8.820312 L 4.828125 -8.1875 L 0.835938 -8.1875 L 0.835938 -7.542969 L 4.828125 -7.542969 L 4.828125 -6.867188 L 1.554688 -6.867188 L 1.554688 -3.917969 L 4.828125 -3.917969 L 4.828125 -3.09375 C 3.296875 -3.085938 1.890625 -3.074219 0.824219 -3.085938 Z M 6.582031 -1.195312 C 6.191406 -1.5625 5.417969 -2.050781 4.796875 -2.34375 L 4.300781 -1.921875 C 4.933594 -1.59375 5.683594 -1.089844 6.042969 -0.71875 Z M 1.257812 0.484375 C 1.679688 -0.0625 2.007812 -0.910156 2.238281 -1.574219 L 1.574219 -1.839844 C 1.363281 -1.214844 1.003906 -0.378906 0.582031 0.117188 Z M 4.351562 0 C 3.6875 0 3.570312 -0.0429688 3.570312 -0.316406 L 3.570312 -1.796875 L 2.800781 -1.796875 L 2.800781 -0.304688 C 2.800781 0.464844 3.117188 0.664062 4.308594 0.664062 L 6.695312 0.664062 C 7.648438 0.664062 7.890625 0.390625 7.996094 -0.78125 C 7.785156 -0.824219 7.480469 -0.941406 7.300781 -1.054688 C 7.246094 -0.125 7.152344 0 6.644531 0 Z M 7.945312 -1.59375 C 8.441406 -0.972656 8.957031 -0.136719 9.160156 0.402344 L 9.867188 0.148438 C 9.664062 -0.410156 9.125 -1.226562 8.609375 -1.828125 Z M 7.945312 -1.59375 "/></g></g></g><g fill="#9b9add" fill-opacity="0.502"><g transform="translate(27.954512, 30.104953)"><g><path d="M 8.292969 -3.707031 L 1.722656 -3.707031 L 1.722656 -2.925781 L 7.617188 -2.925781 C 6.84375 -1.933594 5.765625 -0.582031 4.839844 0.464844 L 5.640625 0.835938 C 6.769531 -0.527344 8.15625 -2.269531 9.03125 -3.464844 L 8.429688 -3.761719 Z M 3.515625 -5.515625 L 3.515625 -4.773438 L 7.160156 -4.773438 L 7.160156 -5.515625 Z M 5.230469 -8.90625 C 4.171875 -7.320312 2.292969 -5.851562 0.402344 -4.996094 C 0.632812 -4.804688 0.867188 -4.519531 1.003906 -4.308594 C 2.597656 -5.113281 4.171875 -6.304688 5.3125 -7.679688 C 6.464844 -6.371094 8.15625 -5.082031 9.539062 -4.375 C 9.6875 -4.585938 9.941406 -4.910156 10.152344 -5.082031 C 8.660156 -5.734375 6.824219 -7.023438 5.765625 -8.261719 C 5.832031 -8.355469 5.90625 -8.449219 5.96875 -8.546875 Z M 5.230469 -8.90625 "/></g></g></g><g fill="#9b9add" fill-opacity="0.502"><g transform="translate(38.511579, 30.104953)"><g><path d="M 2.695312 -0.769531 L 2.695312 -3.71875 L 7.933594 -3.71875 L 7.933594 -0.769531 Z M 7.933594 -7.339844 L 7.933594 -4.488281 L 2.695312 -4.488281 L 2.695312 -7.339844 Z M 1.902344 -8.113281 L 1.902344 0.6875 L 2.695312 0.6875 L 2.695312 0 L 7.933594 0 L 7.933594 0.644531 L 8.757812 0.644531 L 8.757812 -8.113281 Z M 1.902344 -8.113281 "/></g></g></g><g fill="#9b9add" fill-opacity="0.502"><g transform="translate(49.068645, 30.104953)"><g><path d="M 9.917969 -5.015625 L 9.917969 -5.820312 L 5.554688 -5.820312 C 5.703125 -6.929688 5.714844 -7.976562 5.726562 -8.820312 L 4.878906 -8.820312 C 4.871094 -7.984375 4.878906 -6.929688 4.722656 -5.820312 L 0.695312 -5.820312 L 0.695312 -5.015625 L 4.59375 -5.015625 C 4.160156 -3.019531 3.105469 -0.992188 0.484375 0.148438 C 0.707031 0.304688 0.960938 0.582031 1.078125 0.792969 C 3.644531 -0.378906 4.785156 -2.410156 5.292969 -4.4375 C 6.125 -2.039062 7.46875 -0.167969 9.496094 0.792969 C 9.632812 0.558594 9.898438 0.230469 10.085938 0.0546875 C 8.050781 -0.78125 6.675781 -2.695312 5.9375 -5.015625 Z M 9.917969 -5.015625 "/></g></g></g><g fill="#9b9add" fill-opacity="0.502"><g transform="translate(59.625711, 30.104953)"><g><path d="M 2.449219 -8.777344 C 1.984375 -7.160156 1.203125 -5.546875 0.347656 -4.488281 C 0.476562 -4.300781 0.6875 -3.875 0.761719 -3.695312 C 1.078125 -4.089844 1.382812 -4.550781 1.667969 -5.058594 L 1.667969 0.8125 L 2.417969 0.8125 L 2.417969 -6.550781 C 2.703125 -7.203125 2.957031 -7.890625 3.167969 -8.578125 Z M 5.230469 -1.4375 L 7.996094 -1.4375 C 7.625 -1.121094 7.121094 -0.8125 6.484375 -0.570312 C 5.945312 -0.769531 5.472656 -1.023438 5.082031 -1.308594 Z M 8.640625 -1.996094 L 8.503906 -1.964844 L 5.839844 -1.964844 C 6 -2.113281 6.136719 -2.261719 6.265625 -2.417969 L 7.53125 -2.417969 C 8.082031 -2.417969 8.261719 -2.578125 8.324219 -3.179688 C 8.15625 -3.210938 7.910156 -3.273438 7.785156 -3.359375 C 7.753906 -2.945312 7.699219 -2.894531 7.457031 -2.894531 L 6.148438 -2.894531 C 5.800781 -2.894531 5.734375 -2.925781 5.734375 -3.125 L 5.734375 -3.738281 L 5.082031 -3.738281 L 5.082031 -3.125 C 5.082031 -2.726562 5.175781 -2.546875 5.480469 -2.472656 C 5.25 -2.207031 4.945312 -1.953125 4.59375 -1.699219 C 4.480469 -1.816406 4.363281 -1.933594 4.277344 -2.058594 L 3.664062 -1.828125 C 3.792969 -1.667969 3.917969 -1.511719 4.066406 -1.363281 C 3.75 -1.171875 3.378906 -0.992188 2.988281 -0.824219 C 3.148438 -0.730469 3.347656 -0.519531 3.453125 -0.359375 C 3.84375 -0.550781 4.214844 -0.738281 4.542969 -0.949219 C 4.859375 -0.695312 5.21875 -0.476562 5.609375 -0.273438 C 4.828125 -0.0546875 3.898438 0.125 2.851562 0.242188 C 3 0.402344 3.167969 0.65625 3.253906 0.835938 C 4.488281 0.664062 5.578125 0.421875 6.484375 0.09375 C 7.425781 0.445312 8.503906 0.6875 9.632812 0.824219 C 9.730469 0.625 9.910156 0.359375 10.046875 0.199219 C 9.09375 0.117188 8.175781 -0.0429688 7.363281 -0.273438 C 8.144531 -0.664062 8.746094 -1.152344 9.125 -1.710938 Z M 4.542969 -3.738281 C 4.308594 -3.371094 3.898438 -2.914062 3.464844 -2.671875 L 3.929688 -2.304688 C 4.394531 -2.597656 4.773438 -3.074219 5.039062 -3.476562 Z M 9.738281 -2.578125 C 9.484375 -2.914062 8.96875 -3.421875 8.523438 -3.769531 L 8.082031 -3.507812 C 8.523438 -3.136719 9.042969 -2.621094 9.273438 -2.261719 Z M 4.859375 -5.027344 L 8.375 -5.027344 L 8.375 -4.574219 L 4.859375 -4.574219 Z M 8.375 -6.761719 L 8.375 -6.304688 L 4.859375 -6.304688 L 4.859375 -6.761719 Z M 8.375 -5.441406 L 4.859375 -5.441406 L 4.859375 -5.894531 L 8.375 -5.894531 Z M 9.117188 -4.574219 L 9.117188 -7.214844 L 6.71875 -7.214844 C 6.792969 -7.382812 6.867188 -7.574219 6.941406 -7.765625 L 9.929688 -7.765625 L 9.929688 -8.367188 L 3.378906 -8.367188 L 3.378906 -7.765625 L 6.117188 -7.765625 C 6.074219 -7.585938 6.03125 -7.394531 5.980469 -7.214844 L 4.140625 -7.214844 L 4.140625 -4.574219 L 3.105469 -4.574219 L 3.105469 -3.160156 L 3.792969 -3.160156 L 3.792969 -4.066406 L 6.304688 -4.066406 L 5.957031 -3.835938 C 6.316406 -3.632812 6.75 -3.296875 6.980469 -3.074219 L 7.425781 -3.390625 C 7.214844 -3.601562 6.824219 -3.875 6.484375 -4.066406 L 9.390625 -4.066406 L 9.390625 -3.160156 L 10.097656 -3.160156 L 10.097656 -4.574219 Z M 9.117188 -4.574219 "/></g></g></g><g fill="#9b9add" fill-opacity="0.502"><g transform="translate(70.182777, 30.104953)"><g><path d="M 5.621094 -3.917969 L 7.246094 -3.917969 L 6.761719 -3.558594 C 7.046875 -3.433594 7.339844 -3.296875 7.636719 -3.125 C 6.960938 -3.117188 6.285156 -3.105469 5.621094 -3.105469 Z M 2.304688 -4.445312 L 2.304688 -5.144531 L 4.828125 -5.144531 L 4.828125 -4.445312 Z M 2.304688 -6.335938 L 4.828125 -6.335938 L 4.828125 -5.652344 L 2.304688 -5.652344 Z M 8.21875 -6.335938 L 8.21875 -5.652344 L 5.621094 -5.652344 L 5.621094 -6.335938 Z M 8.21875 -4.445312 L 5.621094 -4.445312 L 5.621094 -5.144531 L 8.21875 -5.144531 Z M 0.867188 -2.386719 C 2.789062 -2.410156 5.757812 -2.460938 8.578125 -2.523438 C 8.851562 -2.3125 9.105469 -2.125 9.273438 -1.933594 L 9.8125 -2.386719 C 9.285156 -2.882812 8.25 -3.550781 7.332031 -3.917969 L 8.988281 -3.917969 L 8.988281 -6.867188 L 5.621094 -6.867188 L 5.621094 -7.542969 L 9.730469 -7.542969 L 9.730469 -8.1875 L 5.621094 -8.1875 L 5.621094 -8.820312 L 4.828125 -8.820312 L 4.828125 -8.1875 L 0.835938 -8.1875 L 0.835938 -7.542969 L 4.828125 -7.542969 L 4.828125 -6.867188 L 1.554688 -6.867188 L 1.554688 -3.917969 L 4.828125 -3.917969 L 4.828125 -3.09375 C 3.296875 -3.085938 1.890625 -3.074219 0.824219 -3.085938 Z M 6.582031 -1.195312 C 6.191406 -1.5625 5.417969 -2.050781 4.796875 -2.34375 L 4.300781 -1.921875 C 4.933594 -1.59375 5.683594 -1.089844 6.042969 -0.71875 Z M 1.257812 0.484375 C 1.679688 -0.0625 2.007812 -0.910156 2.238281 -1.574219 L 1.574219 -1.839844 C 1.363281 -1.214844 1.003906 -0.378906 0.582031 0.117188 Z M 4.351562 0 C 3.6875 0 3.570312 -0.0429688 3.570312 -0.316406 L 3.570312 -1.796875 L 2.800781 -1.796875 L 2.800781 -0.304688 C 2.800781 0.464844 3.117188 0.664062 4.308594 0.664062 L 6.695312 0.664062 C 7.648438 0.664062 7.890625 0.390625 7.996094 -0.78125 C 7.785156 -0.824219 7.480469 -0.941406 7.300781 -1.054688 C 7.246094 -0.125 7.152344 0 6.644531 0 Z M 7.945312 -1.59375 C 8.441406 -0.972656 8.957031 -0.136719 9.160156 0.402344 L 9.867188 0.148438 C 9.664062 -0.410156 9.125 -1.226562 8.609375 -1.828125 Z M 7.945312 -1.59375 "/></g></g></g><g fill="#545454" fill-opacity="1"><g transform="translate(27.562608, 29.477775)"><g><path d="M 8.292969 -3.707031 L 1.722656 -3.707031 L 1.722656 -2.925781 L 7.617188 -2.925781 C 6.84375 -1.933594 5.765625 -0.582031 4.839844 0.464844 L 5.640625 0.835938 C 6.769531 -0.527344 8.15625 -2.269531 9.03125 -3.464844 L 8.429688 -3.761719 Z M 3.515625 -5.515625 L 3.515625 -4.773438 L 7.160156 -4.773438 L 7.160156 -5.515625 Z M 5.230469 -8.90625 C 4.171875 -7.320312 2.292969 -5.851562 0.402344 -4.996094 C 0.632812 -4.804688 0.867188 -4.519531 1.003906 -4.308594 C 2.597656 -5.113281 4.171875 -6.304688 5.3125 -7.679688 C 6.464844 -6.371094 8.15625 -5.082031 9.539062 -4.375 C 9.6875 -4.585938 9.941406 -4.910156 10.152344 -5.082031 C 8.660156 -5.734375 6.824219 -7.023438 5.765625 -8.261719 C 5.832031 -8.355469 5.90625 -8.449219 5.96875 -8.546875 Z M 5.230469 -8.90625 "/></g></g></g><g fill="#545454" fill-opacity="1"><g transform="translate(38.119674, 29.477775)"><g><path d="M 2.695312 -0.769531 L 2.695312 -3.71875 L 7.933594 -3.71875 L 7.933594 -0.769531 Z M 7.933594 -7.339844 L 7.933594 -4.488281 L 2.695312 -4.488281 L 2.695312 -7.339844 Z M 1.902344 -8.113281 L 1.902344 0.6875 L 2.695312 0.6875 L 2.695312 0 L 7.933594 0 L 7.933594 0.644531 L 8.757812 0.644531 L 8.757812 -8.113281 Z M 1.902344 -8.113281 "/></g></g></g><g fill="#545454" fill-opacity="1"><g transform="translate(48.67674, 29.477775)"><g><path d="M 9.917969 -5.015625 L 9.917969 -5.820312 L 5.554688 -5.820312 C 5.703125 -6.929688 5.714844 -7.976562 5.726562 -8.820312 L 4.878906 -8.820312 C 4.871094 -7.984375 4.878906 -6.929688 4.722656 -5.820312 L 0.695312 -5.820312 L 0.695312 -5.015625 L 4.59375 -5.015625 C 4.160156 -3.019531 3.105469 -0.992188 0.484375 0.148438 C 0.707031 0.304688 0.960938 0.582031 1.078125 0.792969 C 3.644531 -0.378906 4.785156 -2.410156 5.292969 -4.4375 C 6.125 -2.039062 7.46875 -0.167969 9.496094 0.792969 C 9.632812 0.558594 9.898438 0.230469 10.085938 0.0546875 C 8.050781 -0.78125 6.675781 -2.695312 5.9375 -5.015625 Z M 9.917969 -5.015625 "/></g></g></g><g fill="#545454" fill-opacity="1"><g transform="translate(59.233807, 29.477775)"><g><path d="M 2.449219 -8.777344 C 1.984375 -7.160156 1.203125 -5.546875 0.347656 -4.488281 C 0.476562 -4.300781 0.6875 -3.875 0.761719 -3.695312 C 1.078125 -4.089844 1.382812 -4.550781 1.667969 -5.058594 L 1.667969 0.8125 L 2.417969 0.8125 L 2.417969 -6.550781 C 2.703125 -7.203125 2.957031 -7.890625 3.167969 -8.578125 Z M 5.230469 -1.4375 L 7.996094 -1.4375 C 7.625 -1.121094 7.121094 -0.8125 6.484375 -0.570312 C 5.945312 -0.769531 5.472656 -1.023438 5.082031 -1.308594 Z M 8.640625 -1.996094 L 8.503906 -1.964844 L 5.839844 -1.964844 C 6 -2.113281 6.136719 -2.261719 6.265625 -2.417969 L 7.53125 -2.417969 C 8.082031 -2.417969 8.261719 -2.578125 8.324219 -3.179688 C 8.15625 -3.210938 7.910156 -3.273438 7.785156 -3.359375 C 7.753906 -2.945312 7.699219 -2.894531 7.457031 -2.894531 L 6.148438 -2.894531 C 5.800781 -2.894531 5.734375 -2.925781 5.734375 -3.125 L 5.734375 -3.738281 L 5.082031 -3.738281 L 5.082031 -3.125 C 5.082031 -2.726562 5.175781 -2.546875 5.480469 -2.472656 C 5.25 -2.207031 4.945312 -1.953125 4.59375 -1.699219 C 4.480469 -1.816406 4.363281 -1.933594 4.277344 -2.058594 L 3.664062 -1.828125 C 3.792969 -1.667969 3.917969 -1.511719 4.066406 -1.363281 C 3.75 -1.171875 3.378906 -0.992188 2.988281 -0.824219 C 3.148438 -0.730469 3.347656 -0.519531 3.453125 -0.359375 C 3.84375 -0.550781 4.214844 -0.738281 4.542969 -0.949219 C 4.859375 -0.695312 5.21875 -0.476562 5.609375 -0.273438 C 4.828125 -0.0546875 3.898438 0.125 2.851562 0.242188 C 3 0.402344 3.167969 0.65625 3.253906 0.835938 C 4.488281 0.664062 5.578125 0.421875 6.484375 0.09375 C 7.425781 0.445312 8.503906 0.6875 9.632812 0.824219 C 9.730469 0.625 9.910156 0.359375 10.046875 0.199219 C 9.09375 0.117188 8.175781 -0.0429688 7.363281 -0.273438 C 8.144531 -0.664062 8.746094 -1.152344 9.125 -1.710938 Z M 4.542969 -3.738281 C 4.308594 -3.371094 3.898438 -2.914062 3.464844 -2.671875 L 3.929688 -2.304688 C 4.394531 -2.597656 4.773438 -3.074219 5.039062 -3.476562 Z M 9.738281 -2.578125 C 9.484375 -2.914062 8.96875 -3.421875 8.523438 -3.769531 L 8.082031 -3.507812 C 8.523438 -3.136719 9.042969 -2.621094 9.273438 -2.261719 Z M 4.859375 -5.027344 L 8.375 -5.027344 L 8.375 -4.574219 L 4.859375 -4.574219 Z M 8.375 -6.761719 L 8.375 -6.304688 L 4.859375 -6.304688 L 4.859375 -6.761719 Z M 8.375 -5.441406 L 4.859375 -5.441406 L 4.859375 -5.894531 L 8.375 -5.894531 Z M 9.117188 -4.574219 L 9.117188 -7.214844 L 6.71875 -7.214844 C 6.792969 -7.382812 6.867188 -7.574219 6.941406 -7.765625 L 9.929688 -7.765625 L 9.929688 -8.367188 L 3.378906 -8.367188 L 3.378906 -7.765625 L 6.117188 -7.765625 C 6.074219 -7.585938 6.03125 -7.394531 5.980469 -7.214844 L 4.140625 -7.214844 L 4.140625 -4.574219 L 3.105469 -4.574219 L 3.105469 -3.160156 L 3.792969 -3.160156 L 3.792969 -4.066406 L 6.304688 -4.066406 L 5.957031 -3.835938 C 6.316406 -3.632812 6.75 -3.296875 6.980469 -3.074219 L 7.425781 -3.390625 C 7.214844 -3.601562 6.824219 -3.875 6.484375 -4.066406 L 9.390625 -4.066406 L 9.390625 -3.160156 L 10.097656 -3.160156 L 10.097656 -4.574219 Z M 9.117188 -4.574219 "/></g></g></g><g fill="#545454" fill-opacity="1"><g transform="translate(69.790873, 29.477775)"><g><path d="M 5.621094 -3.917969 L 7.246094 -3.917969 L 6.761719 -3.558594 C 7.046875 -3.433594 7.339844 -3.296875 7.636719 -3.125 C 6.960938 -3.117188 6.285156 -3.105469 5.621094 -3.105469 Z M 2.304688 -4.445312 L 2.304688 -5.144531 L 4.828125 -5.144531 L 4.828125 -4.445312 Z M 2.304688 -6.335938 L 4.828125 -6.335938 L 4.828125 -5.652344 L 2.304688 -5.652344 Z M 8.21875 -6.335938 L 8.21875 -5.652344 L 5.621094 -5.652344 L 5.621094 -6.335938 Z M 8.21875 -4.445312 L 5.621094 -4.445312 L 5.621094 -5.144531 L 8.21875 -5.144531 Z M 0.867188 -2.386719 C 2.789062 -2.410156 5.757812 -2.460938 8.578125 -2.523438 C 8.851562 -2.3125 9.105469 -2.125 9.273438 -1.933594 L 9.8125 -2.386719 C 9.285156 -2.882812 8.25 -3.550781 7.332031 -3.917969 L 8.988281 -3.917969 L 8.988281 -6.867188 L 5.621094 -6.867188 L 5.621094 -7.542969 L 9.730469 -7.542969 L 9.730469 -8.1875 L 5.621094 -8.1875 L 5.621094 -8.820312 L 4.828125 -8.820312 L 4.828125 -8.1875 L 0.835938 -8.1875 L 0.835938 -7.542969 L 4.828125 -7.542969 L 4.828125 -6.867188 L 1.554688 -6.867188 L 1.554688 -3.917969 L 4.828125 -3.917969 L 4.828125 -3.09375 C 3.296875 -3.085938 1.890625 -3.074219 0.824219 -3.085938 Z M 6.582031 -1.195312 C 6.191406 -1.5625 5.417969 -2.050781 4.796875 -2.34375 L 4.300781 -1.921875 C 4.933594 -1.59375 5.683594 -1.089844 6.042969 -0.71875 Z M 1.257812 0.484375 C 1.679688 -0.0625 2.007812 -0.910156 2.238281 -1.574219 L 1.574219 -1.839844 C 1.363281 -1.214844 1.003906 -0.378906 0.582031 0.117188 Z M 4.351562 0 C 3.6875 0 3.570312 -0.0429688 3.570312 -0.316406 L 3.570312 -1.796875 L 2.800781 -1.796875 L 2.800781 -0.304688 C 2.800781 0.464844 3.117188 0.664062 4.308594 0.664062 L 6.695312 0.664062 C 7.648438 0.664062 7.890625 0.390625 7.996094 -0.78125 C 7.785156 -0.824219 7.480469 -0.941406 7.300781 -1.054688 C 7.246094 -0.125 7.152344 0 6.644531 0 Z M 7.945312 -1.59375 C 8.441406 -0.972656 8.957031 -0.136719 9.160156 0.402344 L 9.867188 0.148438 C 9.664062 -0.410156 9.125 -1.226562 8.609375 -1.828125 Z M 7.945312 -1.59375 "/></g></g></g></svg>