<svg preserveAspectRatio="none" width="800" height="150" viewBox="0 0 800 150" fill="none" xmlns="http://www.w3.org/2000/svg">
<path fill-rule="evenodd" clip-rule="evenodd" d="M38.741 0C20.1009 0 4.43879 12.7501 5.96046e-08 30.0047C24.5493 30.3568 44.3417 50.367 44.3417 75C44.3417 99.633 24.5493 119.643 0 119.995C4.43878 137.25 20.1009 150 38.741 150H760.975C779.624 150 795.292 137.238 799.722 119.971C775.619 119.119 756.342 99.3107 756.342 75C756.342 50.6893 775.619 30.8811 799.722 30.0286C795.292 12.7618 779.624 0 760.975 0H38.741Z" fill="#2FBFBB"/>
<path d="M406 148V136.618H400V148M406 132.824V121.441H400V132.824M406 117.647V106.255H400V117.647M406 102.461V91.0784H400V102.461M406 87.2843V75.902H400V87.2843M406 72.098V60.7157H400V72.098M406 56.9216V45.5392H400V56.9216M406 41.7451V30.3529H400V41.7451M406 26.5588V15.1764H400V26.5588M406 11.3823V0H400V11.3823" fill="white"/>
</svg>
