<svg preserveAspectRatio="none" width="1362" height="150" viewBox="0 0 1362 150" fill="none" xmlns="http://www.w3.org/2000/svg">
<path fill-rule="evenodd" clip-rule="evenodd" d="M40.9143 0C19.1572 0 1.4572 17.3707 0.926514 39.0001L0.999918 39C24.1959 39 42.9999 55.3416 42.9999 75.5C42.9999 95.6584 24.1959 112 0.999918 112L0.963389 112C2.00545 133.162 19.4935 150 40.9142 150H1322C1343.75 150 1361.45 132.629 1361.98 111C1338.79 110.992 1320 94.6535 1320 74.5C1320 54.3572 1338.78 38.0253 1361.95 38C1360.9 16.8378 1343.42 0 1322 0H40.9143Z" fill="#B5E2E0"/>
<mask id="mask0_227_1453" style="mask-type:luminance" maskUnits="userSpaceOnUse" x="678" y="0" width="3" height="150">
<path d="M681 0H678V150H681V0Z" fill="white"/>
</mask>
<g mask="url(#mask0_227_1453)">
<path d="M680.918 149.285V137.872H678.668V149.285M680.918 134.067V122.654H678.668V134.067M680.918 118.85V107.427H678.668V118.85M680.918 103.622V92.2091H678.668V103.622M680.918 88.4047V76.9916H678.668V88.4047M680.918 73.1773V61.7641H678.668V73.1773M680.918 57.9597V46.5466H678.668V57.9597M680.918 42.7422V31.3191H678.668V42.7422M680.918 27.5147V16.1016H678.668V27.5147M680.918 12.2972V0.884033H678.668V12.2972" fill="white"/>
</g>
</svg>
