<svg width="100%" height="100%" viewBox="0 0 1166 118" fill="none" xmlns="http://www.w3.org/2000/svg">
<path fill-rule="evenodd" clip-rule="evenodd" d="M478.692 0.493164V3.49316V7.99372C478.692 9.65057 477.349 10.9937 475.692 10.9937C474.035 10.9937 472.692 9.65057 472.692 7.99372V3.49316V0.493164L478.692 0.493164ZM475.692 13.9948C477.349 13.9948 478.692 15.338 478.692 16.9948V25.9959C478.692 27.6528 477.349 28.9959 475.692 28.9959C474.035 28.9959 472.692 27.6528 472.692 25.9959V16.9948C472.692 15.338 474.035 13.9948 475.692 13.9948ZM475.692 31.997C477.349 31.997 478.692 33.3402 478.692 34.997V43.9981C478.692 45.655 477.349 46.9981 475.692 46.9981C474.035 46.9981 472.692 45.655 472.692 43.9981V34.997C472.692 33.3402 474.035 31.997 475.692 31.997ZM475.692 49.9992C477.349 49.9992 478.692 51.3424 478.692 52.9992V62.0003C478.692 63.6572 477.349 65.0003 475.692 65.0003C474.035 65.0003 472.692 63.6572 472.692 62.0003V52.9992C472.692 51.3424 474.035 49.9992 475.692 49.9992ZM475.692 68.0014C477.349 68.0014 478.692 69.3446 478.692 71.0014V80.0025C478.692 81.6594 477.349 83.0025 475.692 83.0025C474.035 83.0025 472.692 81.6594 472.692 80.0025V71.0014C472.692 69.3446 474.035 68.0014 475.692 68.0014ZM475.692 86.0036C477.349 86.0036 478.692 87.3468 478.692 89.0036V98.0048C478.692 99.6616 477.349 101.005 475.692 101.005C474.035 101.005 472.692 99.6616 472.692 98.0048V89.0036C472.692 87.3468 474.035 86.0036 475.692 86.0036ZM475.692 104.006C477.349 104.006 478.692 105.349 478.692 107.006V111.506V114.506H472.692V111.506V107.006C472.692 105.349 474.035 104.006 475.692 104.006ZM20.0005 0.599931C8.95476 0.599931 0.000450134 9.55426 0.000450134 20.6V27.6032C0.00030009 27.6032 0.000150045 27.6032 0 27.6032V84.5031C0.000150045 84.5031 0.00030009 84.5031 0.000450134 84.5031V94.3996C0.000450134 105.445 8.95478 114.4 20.0005 114.4H1146C1157.04 114.4 1166 105.445 1166 94.3996V20.5999C1166 9.55423 1157.04 0.599931 1146 0.599931H20.0005ZM0.000450134 84.5031C15.9069 84.5028 28.8015 71.7654 28.8015 56.0531C28.8015 40.3408 15.9069 27.6035 0.000450134 27.6032V84.5031ZM1166 86.4319C1150.1 86.4319 1137.2 73.6944 1137.2 57.982C1137.2 42.2695 1150.1 29.5321 1166 29.5321V86.4319Z" fill="#95D0C7"/>
</svg>
