<svg preserveAspectRatio="none" width="1359" height="150" viewBox="0 0 1359 150" fill="none" xmlns="http://www.w3.org/2000/svg">
<path fill-rule="evenodd" clip-rule="evenodd" d="M38.9142 0C20.0231 0 4.19071 13.0957 0 30.7042C28.0626 31.1641 50.6481 51.0147 50.6481 75.435C50.6481 99.7926 28.1787 119.604 0.216455 120.162C4.71295 137.332 20.3342 150 38.9142 150H1320C1338.59 150 1354.21 137.319 1358.7 120.135C1331.19 119.144 1309.24 99.5106 1309.24 75.435C1309.24 51.2969 1331.3 31.6235 1358.92 30.7279C1354.73 13.1075 1338.89 0 1320 0H38.9142Z" fill="#2FBFBB"/>
<mask id="mask0_227_1453" style="mask-type:luminance" maskUnits="userSpaceOnUse" x="676" y="0" width="3" height="150">
<path d="M679 0H676V150H679V0Z" fill="white"/>
</mask>
<g mask="url(#mask0_227_1453)">
<path d="M678.918 149.285V137.872H676.668V149.285M678.918 134.067V122.654H676.668V134.067M678.918 118.85V107.427H676.668V118.85M678.918 103.622V92.2091H676.668V103.622M678.918 88.4047V76.9916H676.668V88.4047M678.918 73.1773V61.7641H676.668V73.1773M678.918 57.9597V46.5466H676.668V57.9597M678.918 42.7422V31.3191H676.668V42.7422M678.918 27.5147V16.1016H676.668V27.5147M678.918 12.2972V0.884033H676.668V12.2972" fill="white"/>
</g>
</svg>
