<svg preserveAspectRatio="none" width="803" height="150" viewBox="0 0 803 150" fill="none" xmlns="http://www.w3.org/2000/svg">
<path fill-rule="evenodd" clip-rule="evenodd" d="M40.7411 0C18.9814 0 1.27982 17.3749 0.753174 39.0078C1.00154 39.0026 1.25054 39 1.50014 39C21.1063 39 37.0001 55.1177 37.0001 75C37.0001 94.8822 21.1063 111 1.50014 111C1.25054 111 1.00155 110.997 0.753174 110.992C1.27983 132.625 18.9814 150 40.7411 150H762.975C785.066 150 802.975 132.091 802.975 110V109.986C802.651 109.995 802.326 110 802 110C782.67 110 767 93.8822 767 74C767 54.1177 782.67 38 802 38C802.31 38 802.619 38.0041 802.927 38.0124C801.891 16.8443 784.4 0 762.975 0H40.7411Z" fill="#B5E2E0"/>
<path d="M408 148V136.618H402V148M408 132.824V121.441H402V132.824M408 117.647V106.255H402V117.647M408 102.461V91.0784H402V102.461M408 87.2843V75.902H402V87.2843M408 72.098V60.7157H402V72.098M408 56.9216V45.5392H402V56.9216M408 41.7451V30.3529H402V41.7451M408 26.5588V15.1764H402V26.5588M408 11.3823V0H402V11.3823" fill="white"/>
</svg>
