<svg preserveAspectRatio="none" width="361" height="66" viewBox="0 0 361 66" fill="none" xmlns="http://www.w3.org/2000/svg">
<path fill-rule="evenodd" clip-rule="evenodd" d="M177.715 2.50586L177.715 4.00586L177.715 8.48044C177.715 9.30886 177.043 9.98044 176.215 9.98044C175.386 9.98044 174.715 9.30886 174.715 8.48044L174.715 4.00586L174.715 2.50586L177.715 2.50586ZM176.215 15.9296C177.043 15.9296 177.715 16.6012 177.715 17.4296L177.715 26.3787C177.715 27.2072 177.043 27.8787 176.215 27.8787C175.386 27.8787 174.715 27.2072 174.715 26.3787L174.715 17.4296C174.715 16.6012 175.386 15.9296 176.215 15.9296ZM176.215 33.8279C177.043 33.8279 177.715 34.4995 177.715 35.3279L177.715 44.277C177.715 45.1055 177.043 45.777 176.215 45.7771C175.386 45.7771 174.715 45.1055 174.715 44.2771L174.715 35.3279C174.715 34.4995 175.386 33.8279 176.215 33.8279ZM176.215 51.7262C177.043 51.7262 177.715 52.3978 177.715 53.2262L177.715 62.1754C177.715 63.0038 177.043 63.6754 176.215 63.6754C175.386 63.6754 174.715 63.0038 174.715 62.1754L174.715 53.2262C174.715 52.3978 175.386 51.7262 176.215 51.7262ZM20.0023 0C8.95664 0 0.00233078 8.95431 0.00233078 20V20.9961C0.00155387 20.9961 0.000776941 20.9961 0 20.9961V42.9961C0.000776941 42.9961 0.00155387 42.9961 0.00233078 42.9961V46C0.00233078 57.0457 8.95664 66 20.0023 66H340.001C351.047 66 360.001 57.0457 360.001 46V20C360.001 8.95431 351.047 0 340.001 0H20.0023ZM0.00233078 42.9961C7.73325 42.9951 14 38.0706 14 31.9961C14 25.9216 7.73325 20.9971 0.00233078 20.9961V42.9961ZM360 43.9961C352.268 43.9961 346 39.0712 346 32.9961C346 26.921 352.268 21.9961 360 21.9961V43.9961Z" fill="#95D0C7"/>
</svg>
