<svg width="710" height="784" viewBox="0 0 710 784" fill="none" xmlns="http://www.w3.org/2000/svg">
<path d="M433.359 181.504C522.615 188.051 582.289 73.2719 637.479 82.5908C692.668 91.9097 715.347 163.586 702.495 253.182C701.073 263.102 696.221 276.553 688.61 292.603C653.194 367.287 558.025 498.243 470.496 591.494C406.928 659.217 347.39 707.054 317.692 699.009C285.518 690.294 220.181 630.354 157.426 554.939C142.698 537.241 128.113 518.69 114.131 499.748C100.543 481.34 87.5253 462.562 75.5024 443.841C22.5602 361.401 -11.0924 280.04 10.7587 235.98C37.8206 181.412 75.2605 125.75 115.908 82.5908C155.881 40.1467 198.957 9.79366 238.314 4.46307C290.599 -2.61849 312.19 73.0351 351.426 127.747C371.757 156.097 396.826 178.825 433.359 181.504Z" fill="#E1E2E0"/>
<path d="M264.773 751.333C260.993 742.015 54.606 475.378 42.51 471.795C30.4141 468.211 10.7587 494.731 10.7587 499.748C10.7587 504.766 226.218 777.137 233.022 780.004C239.826 782.871 268.553 760.651 264.773 751.333Z" fill="#E1E2E0"/>
<path d="M351.426 127.747C312.19 73.0351 290.599 -2.61849 238.314 4.46307C198.957 9.79367 155.881 40.1467 115.908 82.5908M351.426 127.747C371.757 156.097 396.826 178.825 433.359 181.504C522.615 188.051 582.289 73.2719 637.479 82.5908C692.668 91.9097 715.347 163.586 702.495 253.182C701.073 263.101 696.221 276.553 688.61 292.603M351.426 127.747L256.948 235.98M351.426 127.747L410.873 292.603M75.5024 443.841C22.5602 361.401 -11.0924 280.04 10.7587 235.98C37.8206 181.412 75.2605 125.75 115.908 82.5908M75.5024 443.841C87.5253 462.562 100.543 481.34 114.131 499.748M75.5024 443.841L111.166 402.985M256.948 235.98L115.908 82.5908M256.948 235.98L166.225 339.91M166.225 339.91L273.845 345.974M166.225 339.91L111.166 402.985M433.359 354.962L410.873 292.603M433.359 354.962L317.692 438.79M433.359 354.962L273.845 345.974M410.873 292.603H688.61M688.61 292.603C653.194 367.287 558.025 498.243 470.496 591.494M157.426 554.939C220.181 630.354 285.518 690.294 317.692 699.009C347.39 707.054 406.928 659.217 470.496 591.494M157.426 554.939L317.692 438.79M157.426 554.939C142.698 537.241 128.113 518.69 114.131 499.748M317.692 438.79L470.496 591.494M114.131 499.748L158.798 456.742M273.845 345.974L203.465 413.737M146.082 366.43L203.465 413.737M203.465 413.737L158.798 456.742M111.166 402.985L158.798 456.742M42.51 471.795C54.606 475.378 260.993 742.015 264.773 751.333C268.553 760.651 239.826 782.871 233.022 780.004C226.218 777.137 10.7587 504.766 10.7587 499.748C10.7587 494.731 30.4141 468.211 42.51 471.795Z" stroke="white" stroke-width="7"/>
</svg>
